{"glyphs":{"0":{"ha":913,"x_min":36,"x_max":876,"o":"m 549 4 q 451 -6 503 -8 q 319 22 385 -3 q 201 90 253 46 q 114 194 149 133 q 63 321 79 256 q 40 528 36 421 q 81 732 44 635 q 188 891 114 824 q 354 985 261 958 q 448 1000 400 997 q 542 993 496 1003 q 641 957 593 982 q 728 896 689 932 q 794 815 765 860 q 840 719 822 769 q 860 646 854 683 q 869 571 867 608 q 868 410 876 492 q 828 256 860 329 q 778 168 807 210 q 713 93 749 126 q 635 39 676 63 q 549 4 593 15 m 232 850 q 249 836 238 838 q 269 841 260 835 q 283 858 279 847 q 278 879 286 868 q 259 892 269 890 q 240 888 249 893 q 228 873 232 883 q 232 850 225 863 m 108 335 q 128 324 117 324 q 147 330 139 324 q 158 347 156 336 q 154 369 161 358 q 150 383 151 372 q 147 397 149 394 q 135 473 136 433 q 133 551 133 513 q 141 614 133 583 q 158 675 149 644 q 179 725 165 701 q 206 772 193 749 q 213 778 207 775 q 221 785 218 782 q 232 804 232 793 q 225 824 232 815 q 207 834 218 832 q 185 828 196 836 q 174 819 179 824 q 164 810 168 815 q 149 786 158 803 q 131 751 140 769 q 115 715 122 732 q 104 689 107 697 q 81 590 89 640 q 78 488 74 539 q 79 470 78 483 q 82 443 81 457 q 85 416 83 429 q 89 399 88 403 q 92 385 90 394 q 97 366 94 376 q 103 347 100 356 q 108 335 106 338 m 428 276 q 490 269 460 264 q 548 291 521 274 q 596 335 575 308 q 628 393 617 361 q 647 487 644 436 q 636 585 649 538 q 598 674 624 633 q 532 738 572 714 q 472 756 504 753 q 411 746 439 760 q 352 695 376 729 q 315 625 328 661 q 299 488 292 558 q 343 357 307 417 q 379 310 358 332 q 428 276 400 288 z "},"1":{"ha":636,"x_min":-4,"x_max":582,"o":"m 486 24 q 430 -3 461 4 q 368 -8 399 -11 q 308 9 338 -6 q 258 47 279 24 q 231 111 242 67 q 215 207 221 156 q 206 306 208 258 q 201 379 203 353 q 196 485 199 432 q 192 590 193 538 q 134 568 164 576 q 76 567 104 560 q 44 584 58 571 q 18 613 29 597 q 0 659 4 632 q 3 710 -4 686 q 21 743 10 728 q 47 771 32 758 q 81 798 56 778 q 134 842 106 818 q 188 885 163 865 q 221 913 213 906 q 293 961 254 940 q 375 992 332 982 q 427 997 400 997 q 478 986 454 996 q 550 918 526 967 q 569 845 565 883 q 576 769 574 807 q 581 634 581 701 q 579 499 582 567 q 575 362 578 429 q 565 225 572 294 q 555 156 561 190 q 533 90 549 122 q 513 53 525 71 q 486 24 501 36 m 315 922 q 313 890 303 907 q 343 878 324 874 q 362 889 349 879 q 379 901 375 899 q 413 908 389 906 q 447 908 436 911 q 466 910 458 906 q 478 922 474 914 q 481 940 482 931 q 471 957 479 949 q 451 964 464 963 q 425 964 439 965 q 397 960 411 963 q 375 957 383 958 q 361 953 369 957 q 344 943 353 949 q 327 932 335 938 q 315 922 319 926 m 224 600 q 240 583 229 588 q 260 583 250 579 q 275 595 269 586 q 278 618 281 604 q 264 636 275 632 q 242 637 253 640 q 224 624 231 633 q 224 600 217 614 m 251 226 q 269 216 260 217 q 288 220 279 215 q 300 235 296 225 q 299 257 304 246 q 294 280 296 263 q 292 303 293 297 q 290 324 292 308 q 288 356 289 339 q 285 388 286 372 q 285 408 285 403 q 282 472 282 440 q 282 536 282 504 q 276 554 282 547 q 261 563 269 561 q 244 562 253 565 q 229 549 235 558 q 226 528 226 543 q 226 507 226 514 q 229 415 229 461 q 235 324 229 369 q 236 305 235 319 q 239 288 238 290 q 240 274 239 283 q 243 256 242 265 q 247 238 244 246 q 251 226 249 231 z "},"2":{"ha":814,"x_min":31,"x_max":772,"o":"m 638 15 q 395 -11 518 -7 q 154 13 272 -15 q 99 33 126 19 q 56 69 72 46 q 32 142 35 101 q 42 214 31 178 q 78 278 54 250 q 123 323 97 303 q 175 361 149 343 q 240 406 207 385 q 308 446 274 426 q 419 526 367 481 q 504 629 472 571 q 517 726 528 675 q 499 757 513 743 q 468 769 485 771 q 403 738 428 767 q 376 700 388 719 q 351 661 364 681 q 330 636 342 649 q 303 617 318 624 q 220 602 264 599 q 143 629 176 606 q 108 665 124 644 q 88 708 93 685 q 91 785 79 746 q 128 860 103 825 q 187 924 153 896 q 257 968 221 953 q 374 1002 313 992 q 496 1004 435 1013 q 571 986 533 999 q 640 951 608 974 q 703 899 674 929 q 749 831 732 868 q 767 767 763 800 q 769 700 772 733 q 739 578 765 638 q 674 467 713 518 q 625 412 651 438 q 571 361 599 386 q 506 306 539 333 q 442 250 474 278 q 516 260 479 253 q 590 275 553 268 q 624 279 604 278 q 665 278 644 281 q 702 271 685 276 q 728 253 719 265 q 758 179 751 221 q 753 100 764 138 q 737 66 746 82 q 713 39 728 50 q 677 23 697 28 q 638 15 657 18 m 400 942 q 411 930 403 935 q 428 925 419 925 q 454 944 447 925 q 446 975 461 963 q 426 982 436 982 q 408 976 415 982 q 398 962 401 971 q 400 942 394 953 m 117 746 q 115 722 110 732 q 131 707 121 711 q 151 706 140 703 q 169 724 163 710 q 175 741 171 726 q 182 758 179 756 q 196 787 185 767 q 214 814 207 807 q 222 822 215 815 q 234 838 228 829 q 246 852 240 846 q 254 861 251 858 q 272 873 260 865 q 297 888 283 881 q 322 901 310 896 q 342 906 333 906 q 360 913 353 906 q 370 928 368 919 q 368 947 372 938 q 354 960 364 956 q 330 962 343 965 q 306 954 317 958 q 285 944 299 951 q 256 927 271 936 q 228 909 242 918 q 211 894 215 900 q 164 839 188 867 q 129 776 140 811 q 124 760 126 768 q 117 746 121 753 z "},"3":{"ha":818,"x_min":35,"x_max":783,"o":"m 488 -11 q 338 -18 414 -26 q 190 10 263 -10 q 140 27 165 17 q 94 53 115 38 q 69 77 81 64 q 50 106 57 90 q 35 169 35 136 q 48 230 35 201 q 86 278 61 258 q 144 301 111 297 q 211 294 178 306 q 278 276 244 283 q 337 273 307 271 q 394 288 367 275 q 440 328 425 300 q 440 385 456 357 q 407 413 431 406 q 374 420 392 418 q 340 422 357 422 q 310 421 329 422 q 270 419 290 419 q 233 422 250 419 q 207 433 215 425 q 177 484 185 453 q 169 544 169 515 q 174 583 169 564 q 190 617 178 601 q 212 635 199 628 q 240 644 225 642 q 308 651 274 651 q 376 654 342 651 q 406 659 392 654 q 428 675 421 664 q 434 717 439 692 q 413 756 429 743 q 374 765 399 765 q 323 759 350 765 q 270 744 296 753 q 228 732 244 736 q 190 724 208 726 q 151 725 171 721 q 107 749 128 731 q 79 790 86 767 q 70 834 72 810 q 71 883 68 858 q 83 927 74 907 q 108 958 92 947 q 196 995 149 985 q 290 1010 243 1006 q 378 1015 335 1014 q 464 1013 421 1017 q 519 1003 492 1010 q 569 983 546 997 q 665 895 631 950 q 703 780 699 840 q 684 660 708 719 q 606 557 660 600 l 604 556 q 700 492 660 533 q 762 400 740 451 q 783 292 783 349 q 758 181 783 235 q 719 119 743 147 q 665 68 694 90 q 581 19 625 39 q 488 -11 536 -1 m 410 953 q 428 933 414 938 q 456 938 443 928 q 466 960 467 946 q 454 982 465 974 q 422 983 439 994 q 410 953 406 972 m 619 758 q 622 740 617 747 q 635 728 626 732 q 652 725 643 724 q 668 735 661 726 q 674 751 671 739 q 678 768 678 763 q 667 834 678 801 q 635 893 656 867 q 599 929 619 914 q 554 953 578 944 q 531 958 543 956 q 508 956 519 961 q 494 942 497 951 q 492 924 490 933 q 502 909 494 915 q 521 903 510 903 q 545 897 532 903 q 570 881 558 890 q 591 859 582 871 q 604 838 600 847 q 618 799 613 819 q 619 758 624 778 z "},"4":{"ha":1019,"x_min":43,"x_max":1007,"o":"m 793 31 q 747 1 774 11 q 691 -10 719 -10 q 635 -3 663 -11 q 585 22 607 6 q 563 41 574 31 q 546 64 553 51 q 532 107 536 83 q 515 205 521 156 q 506 304 508 254 q 361 289 435 289 q 217 297 288 289 q 172 307 193 300 q 131 325 150 314 q 97 352 111 336 q 72 388 82 368 q 64 411 67 399 q 58 436 61 424 q 51 513 53 475 q 47 590 49 551 q 44 717 44 654 q 43 846 43 781 q 48 893 43 869 q 64 938 53 917 q 146 1008 90 989 q 222 1018 182 1021 q 297 1000 263 1015 q 351 954 328 986 q 375 902 367 931 q 385 846 383 874 q 384 795 385 833 q 382 714 383 757 q 380 633 381 671 q 379 582 379 594 q 378 567 379 576 q 378 546 378 557 q 381 525 379 535 q 385 511 382 515 q 399 504 388 506 q 418 503 411 503 q 456 502 438 501 q 494 506 475 503 q 490 598 492 551 q 489 690 488 644 q 496 781 490 736 q 515 871 501 826 q 537 921 522 897 q 572 963 551 944 q 650 1004 607 993 q 734 1006 693 1015 q 808 970 775 997 q 858 899 842 943 q 867 856 864 885 q 874 790 871 826 q 878 713 876 753 q 881 635 879 672 q 882 567 882 597 q 882 522 882 538 q 925 526 903 526 q 965 514 947 525 q 993 487 983 504 q 1005 449 1003 469 q 1000 409 1007 429 q 976 375 993 389 q 930 350 957 358 q 875 339 903 342 q 869 247 872 293 q 854 154 865 200 q 833 88 847 121 q 793 31 818 54 m 539 801 q 553 792 544 794 q 569 793 561 790 q 583 803 578 796 q 589 819 589 810 q 594 842 589 829 q 607 867 599 854 q 624 890 615 879 q 642 906 633 900 q 661 917 650 913 q 676 932 672 921 q 679 951 682 942 q 669 965 676 960 q 653 972 663 971 q 635 965 643 972 q 621 957 632 963 q 607 949 610 951 q 542 858 561 914 q 533 829 536 846 q 539 801 529 813 m 108 926 q 111 903 106 913 q 126 891 117 894 q 145 892 135 888 q 163 908 156 896 q 162 931 168 921 q 144 944 156 940 q 122 944 133 947 q 108 926 111 940 m 104 460 q 121 444 110 447 q 142 446 132 442 q 156 460 151 450 q 156 483 161 471 q 154 490 154 485 q 147 537 151 503 q 139 610 143 571 q 132 683 135 649 q 129 729 129 717 l 129 826 q 130 840 129 833 q 128 854 131 847 q 113 869 122 865 q 96 869 104 872 q 81 858 88 867 q 74 839 74 850 q 77 685 71 761 q 92 532 83 608 q 93 517 92 528 q 97 494 94 506 q 100 474 99 483 q 104 460 101 464 z "},"5":{"ha":838,"x_min":46,"x_max":806,"o":"m 506 -1 q 358 -16 433 -19 q 211 7 283 -12 q 131 41 171 18 q 68 99 92 64 q 47 167 46 132 q 67 231 49 203 q 117 274 85 258 q 188 285 149 290 q 269 261 229 278 q 350 243 308 244 q 406 247 378 242 q 458 263 433 251 q 510 301 486 276 q 540 358 535 326 q 530 419 547 390 q 479 450 513 447 q 408 446 443 453 q 340 428 374 439 q 270 408 306 418 q 200 397 235 399 q 156 401 179 396 q 117 421 133 406 q 88 463 97 438 q 72 513 78 488 q 67 601 64 557 q 71 690 69 646 q 72 778 72 735 q 79 865 72 822 q 84 888 81 874 q 93 918 88 903 q 104 947 99 933 q 115 967 110 961 q 134 985 124 976 q 157 1000 144 993 q 221 1018 188 1013 q 286 1025 254 1024 q 323 1025 297 1025 q 381 1026 349 1025 q 449 1026 413 1026 q 517 1026 485 1026 q 575 1026 550 1026 q 611 1025 600 1025 q 653 1021 632 1022 q 692 1008 674 1019 q 724 965 717 992 q 732 914 732 940 q 724 865 732 888 q 699 826 715 843 q 657 804 682 810 q 605 797 631 797 q 553 796 579 796 q 431 805 490 799 q 308 811 371 811 q 306 772 307 801 q 302 711 304 743 q 298 650 300 679 q 296 611 296 621 q 393 651 343 635 q 496 675 443 668 q 572 677 533 679 q 646 663 610 675 q 718 624 689 649 q 753 582 738 606 q 778 532 769 558 q 799 368 806 454 q 757 207 792 282 q 639 61 717 119 q 506 -1 578 15 m 140 897 q 159 876 143 882 q 188 881 175 871 q 199 906 200 890 q 182 928 197 921 q 151 926 167 936 q 140 897 136 915 m 110 481 q 137 458 115 458 q 164 481 158 458 q 163 507 167 488 q 157 533 158 526 q 152 594 151 564 q 153 654 153 624 q 153 676 153 660 q 156 710 154 692 q 158 743 157 728 q 160 764 160 758 q 161 777 160 768 q 165 797 163 786 q 168 816 167 807 q 168 829 169 825 q 142 851 163 851 q 114 829 121 851 q 104 767 106 799 q 100 703 103 735 q 97 638 97 671 q 97 571 97 604 q 99 553 97 565 q 102 526 100 540 q 106 499 104 511 q 110 481 108 486 z "},"6":{"ha":796,"x_min":38,"x_max":776,"o":"m 560 21 q 406 -5 488 -6 q 254 24 325 -4 q 188 59 219 39 q 131 107 157 79 q 58 231 82 160 q 40 342 42 285 q 43 454 38 399 q 101 685 57 572 q 214 893 144 797 q 272 963 240 929 q 339 1024 303 996 q 370 1033 353 1033 q 403 1029 388 1033 q 447 1011 424 1024 q 492 981 471 999 q 526 942 513 963 q 543 900 540 921 q 540 878 546 889 q 525 858 533 867 q 415 745 467 806 q 328 614 364 685 q 411 628 368 625 q 496 628 454 632 q 590 608 543 621 q 674 564 638 594 q 731 495 710 536 q 761 410 751 454 q 762 259 776 338 q 701 122 747 181 q 638 62 675 88 q 560 21 600 36 m 306 893 q 332 900 321 889 q 340 926 343 911 q 319 947 336 943 q 290 938 301 951 q 285 911 281 925 q 306 893 290 897 m 100 489 q 103 469 97 478 q 117 457 108 461 q 134 455 125 453 q 150 465 143 457 q 156 488 157 475 q 158 511 156 500 q 188 650 167 582 q 246 778 208 718 q 263 802 253 790 q 281 825 272 814 q 288 847 290 836 q 276 865 285 858 q 256 870 268 871 q 235 858 244 869 q 171 758 197 813 q 129 647 144 704 q 115 588 119 618 q 104 528 110 558 q 103 508 104 524 q 100 489 101 492 m 411 217 q 466 233 443 210 q 497 288 489 256 q 501 324 501 304 q 496 363 501 344 q 480 397 490 382 q 453 418 469 411 q 424 422 440 424 q 397 411 408 421 q 380 391 386 403 q 369 367 374 379 q 360 336 364 351 q 356 306 357 321 q 368 250 353 278 q 411 217 383 222 z "},"7":{"ha":728,"x_min":25,"x_max":704,"o":"m 329 4 q 275 1 304 -3 q 219 16 246 4 q 172 47 193 28 q 139 89 150 65 q 127 124 132 106 q 125 161 122 142 q 141 232 128 197 q 169 300 154 267 q 224 406 194 354 q 282 509 253 457 q 338 615 311 561 q 385 724 364 668 q 311 701 349 708 q 236 692 274 694 q 160 690 199 689 q 88 707 122 692 q 52 735 65 715 q 33 782 39 756 q 26 836 26 808 q 29 888 25 864 q 41 935 33 911 q 67 975 49 958 q 103 994 78 986 q 157 1006 128 1001 q 214 1014 186 1011 q 257 1017 242 1017 q 394 1023 325 1021 q 531 1017 463 1025 q 590 1001 561 1013 q 643 969 619 989 q 683 919 667 950 q 701 857 699 889 q 698 788 704 822 q 681 719 692 753 q 597 461 643 589 q 497 207 550 333 q 462 133 481 169 q 415 64 443 96 q 376 28 399 44 q 329 4 354 11 m 550 929 q 575 925 561 919 q 596 951 594 932 q 579 978 597 969 q 566 985 576 981 q 553 990 556 989 q 531 998 547 993 q 507 1003 514 1003 q 491 1002 499 1003 q 475 1004 483 1001 q 458 1004 469 1004 q 433 1003 446 1004 q 409 1001 421 1003 q 392 999 397 1000 q 378 994 385 996 q 368 986 372 992 q 366 955 356 971 q 396 942 376 939 l 408 946 q 427 947 414 946 q 456 947 440 947 q 485 947 471 947 q 504 947 499 947 q 528 940 511 946 q 550 929 544 933 m 418 715 q 397 706 404 715 q 390 687 390 697 q 398 667 390 676 q 419 658 406 658 q 440 667 433 658 q 447 687 447 676 q 440 706 447 697 q 418 715 432 715 m 228 344 q 222 324 219 335 q 231 307 224 314 q 248 299 238 300 q 268 306 258 297 q 285 328 275 311 q 307 363 296 344 q 328 397 318 381 q 342 422 338 414 q 381 505 361 464 q 415 590 401 546 q 423 613 425 601 q 413 633 421 625 q 393 640 404 640 q 372 629 382 640 q 365 616 367 624 q 361 601 364 608 q 345 560 354 581 q 326 519 336 540 q 283 429 307 474 q 228 344 258 385 z "},"8":{"ha":888,"x_min":36,"x_max":853,"o":"m 496 -39 q 272 -25 381 -46 q 178 5 224 -15 q 100 60 132 25 q 54 129 72 89 q 38 211 36 169 q 53 311 39 261 q 96 404 68 361 q 156 473 119 443 q 232 524 192 503 q 153 610 188 560 q 107 717 119 660 q 101 783 100 749 q 113 847 101 817 q 145 903 124 878 q 193 947 167 928 q 279 989 232 975 q 374 1010 326 1003 q 508 1017 440 1021 q 640 993 576 1014 q 698 966 671 983 q 744 925 725 949 q 768 886 760 907 q 782 844 776 865 q 786 763 790 804 q 768 685 782 722 q 735 621 756 651 q 690 564 715 590 q 747 508 719 536 q 799 446 775 479 q 843 344 831 399 q 849 251 853 299 q 831 158 844 203 q 777 66 814 108 q 693 1 740 24 q 597 -28 647 -19 q 496 -39 546 -36 m 167 868 q 184 855 172 856 q 205 860 196 854 q 218 877 214 867 q 214 899 222 888 q 194 910 206 908 q 175 906 183 911 q 163 891 167 901 q 167 868 160 881 m 407 736 q 451 683 425 707 q 504 640 476 660 q 538 679 521 660 q 564 722 554 699 q 572 765 572 742 q 558 807 571 789 q 504 840 539 833 q 478 844 493 843 q 447 842 463 844 q 417 835 431 840 q 396 821 403 829 q 390 779 385 806 q 407 736 396 753 m 254 544 q 281 554 271 539 q 285 585 292 569 q 278 594 283 588 q 265 606 272 600 q 252 618 258 613 q 244 626 246 624 q 233 638 242 629 q 217 657 225 647 q 201 676 208 667 q 192 689 193 685 q 176 761 174 722 q 179 776 178 765 q 183 790 181 786 q 190 808 190 799 q 183 824 189 817 q 167 833 176 831 q 147 832 157 836 q 132 814 139 829 q 122 772 124 796 q 124 722 119 747 q 138 674 128 697 q 161 638 147 651 q 179 617 167 631 q 206 588 192 603 q 233 560 219 572 q 254 544 246 547 m 288 293 q 299 242 285 264 q 336 207 313 219 q 389 192 360 194 q 446 201 418 190 q 466 213 457 206 q 482 231 475 219 q 492 278 496 253 q 476 329 489 304 q 442 377 463 354 q 401 417 422 400 q 387 427 394 422 q 372 432 379 432 q 363 427 367 431 q 354 421 358 424 q 328 388 339 406 q 307 351 318 371 q 288 293 292 322 z "},"9":{"ha":796,"x_min":21,"x_max":760,"o":"m 457 4 q 426 -5 444 -6 q 393 -1 408 -4 q 349 17 372 4 q 306 47 326 29 q 270 86 285 65 q 253 128 256 107 q 258 150 251 139 q 272 169 264 161 q 382 283 331 222 q 469 414 433 343 q 300 401 388 390 q 206 420 253 407 q 122 464 158 433 q 67 533 88 492 q 36 618 46 575 q 35 769 21 690 q 94 906 50 847 q 160 966 122 940 q 238 1007 197 992 q 390 1033 308 1033 q 542 1004 471 1032 q 608 969 576 990 q 665 921 640 949 q 738 797 717 868 q 757 687 754 744 q 753 574 760 629 q 697 343 740 456 q 583 135 653 231 q 525 65 556 99 q 457 4 494 32 m 169 897 q 194 881 176 881 q 219 897 213 881 q 221 918 225 907 q 207 933 217 929 q 175 929 189 943 q 169 897 161 915 m 181 463 q 204 460 194 456 q 217 475 214 465 q 217 497 221 485 q 200 515 214 508 q 166 542 181 525 q 139 579 151 560 q 121 619 126 597 q 114 663 115 640 q 117 727 113 694 q 138 788 122 760 q 144 799 140 790 q 151 810 149 807 q 166 828 164 817 q 163 848 168 839 q 147 861 157 857 q 124 860 136 865 q 112 849 118 857 q 99 832 106 842 q 88 813 93 822 q 81 799 82 804 q 60 719 64 761 q 61 638 57 678 q 65 607 63 622 q 75 578 68 592 q 119 511 94 543 q 181 463 144 479 m 343 610 q 393 613 368 599 q 411 632 403 618 q 426 662 419 646 q 436 694 432 678 q 440 722 440 711 q 435 760 442 742 q 417 792 429 779 q 390 810 406 806 q 356 810 374 815 q 320 783 335 803 q 300 740 306 763 q 296 703 296 724 q 301 665 296 683 q 317 631 307 646 q 343 610 326 617 z "},"\u0000":{"ha":0,"x_min":0,"x_max":0,"o":""},"\r":{"ha":417,"x_min":0,"x_max":0,"o":""}," ":{"ha":417,"x_min":0,"x_max":0,"o":""},"!":{"ha":453,"x_min":49,"x_max":403,"o":"m 261 263 q 201 260 232 256 q 144 278 171 264 q 122 292 133 285 q 103 310 111 299 q 85 352 92 322 q 73 415 78 382 q 65 481 68 449 q 61 529 63 513 q 52 663 56 596 q 51 796 49 729 q 60 869 54 832 q 83 938 67 906 q 116 976 94 960 q 165 1002 138 992 q 220 1015 192 1013 q 272 1013 249 1018 q 328 990 300 1006 q 371 951 356 975 q 391 897 386 926 q 397 838 396 867 q 402 634 403 736 q 386 431 401 532 q 372 367 381 399 q 343 311 363 336 q 306 279 328 292 q 261 263 285 267 m 139 936 q 147 910 136 921 q 174 903 158 899 q 194 920 189 906 q 189 947 199 935 q 160 958 178 961 q 139 936 143 954 m 104 485 q 133 475 115 471 q 153 496 150 479 q 154 532 156 506 q 150 588 153 558 q 144 644 147 618 q 142 681 142 669 q 141 740 142 710 q 146 799 140 769 q 149 821 147 804 q 154 842 151 838 q 158 844 154 844 q 169 866 169 853 q 158 888 169 879 q 139 894 149 894 q 121 887 129 893 q 106 871 113 881 q 99 849 100 861 q 97 835 99 846 q 94 821 94 824 q 87 751 88 786 q 86 681 86 717 q 88 659 86 675 q 90 625 89 643 q 93 591 92 607 q 96 569 94 575 q 97 551 97 563 q 97 526 97 539 q 99 501 97 513 q 104 485 100 489 m 289 -15 q 183 -19 236 -28 q 150 -11 167 -17 q 119 6 133 -6 q 97 35 104 17 q 88 74 89 53 q 90 115 86 94 q 103 153 94 136 q 146 192 117 181 q 179 200 161 199 q 214 200 197 201 q 241 199 224 200 q 276 194 258 197 q 310 185 294 190 q 333 172 326 181 q 344 156 340 165 q 350 138 347 147 q 354 106 353 125 q 353 69 356 88 q 346 33 351 50 q 331 7 340 15 q 289 -15 315 -8 m 281 153 q 267 140 269 149 q 266 122 264 131 q 276 106 268 113 q 294 100 283 100 q 322 119 314 100 q 313 150 329 138 q 281 153 297 163 z "},"\"":{"ha":576,"x_min":32,"x_max":543,"o":"m 194 650 q 143 627 174 626 q 89 651 113 628 q 63 693 72 669 q 49 740 54 717 q 38 801 42 771 q 33 863 35 831 q 34 907 32 885 q 44 950 36 929 q 77 993 56 978 q 128 1011 99 1008 q 163 1012 146 1013 q 196 1004 181 1011 q 244 961 229 990 q 258 926 254 944 q 261 888 261 907 q 238 733 261 811 q 220 689 231 710 q 194 650 210 668 m 476 638 q 425 615 456 614 q 371 638 394 615 q 344 679 353 656 q 331 726 336 703 q 320 788 324 757 q 315 849 317 818 q 316 893 314 871 q 326 936 318 915 q 359 979 338 964 q 410 997 381 994 q 445 998 428 999 q 478 990 463 997 q 506 973 493 983 q 526 949 519 963 q 539 913 536 932 q 543 874 542 893 q 519 719 543 797 q 502 676 513 697 q 476 638 492 654 m 461 876 q 484 874 474 869 q 499 886 494 878 q 503 906 504 894 q 490 925 501 917 q 469 929 479 933 q 452 915 458 925 q 447 894 446 906 q 461 876 449 882 m 167 874 q 187 872 176 869 q 204 882 197 874 q 206 914 217 897 q 176 926 196 931 q 151 903 156 922 q 167 874 147 883 z "},"«":{"ha":576,"x_min":32,"x_max":543,"o":"m 194 650 q 143 627 174 626 q 89 651 113 628 q 63 693 72 669 q 49 740 54 717 q 38 801 42 771 q 33 863 35 831 q 34 907 32 885 q 44 950 36 929 q 77 993 56 978 q 128 1011 99 1008 q 163 1012 146 1013 q 196 1004 181 1011 q 244 961 229 990 q 258 926 254 944 q 261 888 261 907 q 238 733 261 811 q 220 689 231 710 q 194 650 210 668 m 476 638 q 425 615 456 614 q 371 638 394 615 q 344 679 353 656 q 331 726 336 703 q 320 788 324 757 q 315 849 317 818 q 316 893 314 871 q 326 936 318 915 q 359 979 338 964 q 410 997 381 994 q 445 998 428 999 q 478 990 463 997 q 506 973 493 983 q 526 949 519 963 q 539 913 536 932 q 543 874 542 893 q 519 719 543 797 q 502 676 513 697 q 476 638 492 654 m 461 876 q 484 874 474 869 q 499 886 494 878 q 503 906 504 894 q 490 925 501 917 q 469 929 479 933 q 452 915 458 925 q 447 894 446 906 q 461 876 449 882 m 167 874 q 187 872 176 869 q 204 882 197 874 q 206 914 217 897 q 176 926 196 931 q 151 903 156 922 q 167 874 147 883 z "},"»":{"ha":576,"x_min":32,"x_max":543,"o":"m 194 650 q 143 627 174 626 q 89 651 113 628 q 63 693 72 669 q 49 740 54 717 q 38 801 42 771 q 33 863 35 831 q 34 907 32 885 q 44 950 36 929 q 77 993 56 978 q 128 1011 99 1008 q 163 1012 146 1013 q 196 1004 181 1011 q 244 961 229 990 q 258 926 254 944 q 261 888 261 907 q 238 733 261 811 q 220 689 231 710 q 194 650 210 668 m 476 638 q 425 615 456 614 q 371 638 394 615 q 344 679 353 656 q 331 726 336 703 q 320 788 324 757 q 315 849 317 818 q 316 893 314 871 q 326 936 318 915 q 359 979 338 964 q 410 997 381 994 q 445 998 428 999 q 478 990 463 997 q 506 973 493 983 q 526 949 519 963 q 539 913 536 932 q 543 874 542 893 q 519 719 543 797 q 502 676 513 697 q 476 638 492 654 m 461 876 q 484 874 474 869 q 499 886 494 878 q 503 906 504 894 q 490 925 501 917 q 469 929 479 933 q 452 915 458 925 q 447 894 446 906 q 461 876 449 882 m 167 874 q 187 872 176 869 q 204 882 197 874 q 206 914 217 897 q 176 926 196 931 q 151 903 156 922 q 167 874 147 883 z "},"„":{"ha":576,"x_min":32,"x_max":543,"o":"m 194 650 q 143 627 174 626 q 89 651 113 628 q 63 693 72 669 q 49 740 54 717 q 38 801 42 771 q 33 863 35 831 q 34 907 32 885 q 44 950 36 929 q 77 993 56 978 q 128 1011 99 1008 q 163 1012 146 1013 q 196 1004 181 1011 q 244 961 229 990 q 258 926 254 944 q 261 888 261 907 q 238 733 261 811 q 220 689 231 710 q 194 650 210 668 m 476 638 q 425 615 456 614 q 371 638 394 615 q 344 679 353 656 q 331 726 336 703 q 320 788 324 757 q 315 849 317 818 q 316 893 314 871 q 326 936 318 915 q 359 979 338 964 q 410 997 381 994 q 445 998 428 999 q 478 990 463 997 q 506 973 493 983 q 526 949 519 963 q 539 913 536 932 q 543 874 542 893 q 519 719 543 797 q 502 676 513 697 q 476 638 492 654 m 461 876 q 484 874 474 869 q 499 886 494 878 q 503 906 504 894 q 490 925 501 917 q 469 929 479 933 q 452 915 458 925 q 447 894 446 906 q 461 876 449 882 m 167 874 q 187 872 176 869 q 204 882 197 874 q 206 914 217 897 q 176 926 196 931 q 151 903 156 922 q 167 874 147 883 z "},"‟":{"ha":576,"x_min":32,"x_max":543,"o":"m 194 650 q 143 627 174 626 q 89 651 113 628 q 63 693 72 669 q 49 740 54 717 q 38 801 42 771 q 33 863 35 831 q 34 907 32 885 q 44 950 36 929 q 77 993 56 978 q 128 1011 99 1008 q 163 1012 146 1013 q 196 1004 181 1011 q 244 961 229 990 q 258 926 254 944 q 261 888 261 907 q 238 733 261 811 q 220 689 231 710 q 194 650 210 668 m 476 638 q 425 615 456 614 q 371 638 394 615 q 344 679 353 656 q 331 726 336 703 q 320 788 324 757 q 315 849 317 818 q 316 893 314 871 q 326 936 318 915 q 359 979 338 964 q 410 997 381 994 q 445 998 428 999 q 478 990 463 997 q 506 973 493 983 q 526 949 519 963 q 539 913 536 932 q 543 874 542 893 q 519 719 543 797 q 502 676 513 697 q 476 638 492 654 m 461 876 q 484 874 474 869 q 499 886 494 878 q 503 906 504 894 q 490 925 501 917 q 469 929 479 933 q 452 915 458 925 q 447 894 446 906 q 461 876 449 882 m 167 874 q 187 872 176 869 q 204 882 197 874 q 206 914 217 897 q 176 926 196 931 q 151 903 156 922 q 167 874 147 883 z "},"#":{"ha":1340,"x_min":28,"x_max":1314,"o":"m 942 47 q 879 9 914 18 q 810 7 844 0 q 747 38 775 14 q 704 97 718 61 q 697 125 699 111 q 696 154 696 139 q 606 156 651 156 q 517 156 561 156 q 490 96 506 125 q 450 46 474 67 q 390 15 422 22 q 326 15 357 8 q 267 42 294 22 q 225 94 240 63 q 216 127 218 110 q 213 163 214 144 q 159 167 186 164 q 107 178 132 169 q 53 217 72 192 q 41 240 46 225 q 33 271 36 254 q 28 303 29 288 q 31 331 28 319 q 58 377 38 357 q 104 407 79 397 q 168 422 135 419 q 235 426 201 424 q 242 482 239 454 q 250 538 246 510 q 210 541 231 539 q 171 550 190 543 q 147 558 158 553 q 125 572 135 564 q 89 628 101 594 q 82 693 76 661 q 107 744 86 721 q 154 779 128 768 q 226 797 189 794 q 301 801 264 799 q 335 893 314 849 q 351 926 342 910 q 375 954 361 942 q 440 992 404 981 q 512 1000 476 1004 q 578 976 547 996 q 629 922 610 957 q 648 867 643 897 q 651 808 653 838 q 720 808 686 808 q 789 807 754 807 q 811 872 799 839 q 844 931 824 904 q 949 992 886 981 q 998 992 972 996 q 1046 978 1024 989 q 1090 944 1071 965 q 1121 897 1110 922 q 1134 849 1132 874 q 1135 799 1136 824 q 1188 792 1161 796 q 1239 779 1214 789 q 1267 765 1254 774 q 1289 742 1281 756 q 1307 696 1300 721 q 1311 646 1314 671 q 1304 619 1308 632 q 1292 594 1300 606 q 1253 565 1275 574 q 1176 543 1217 549 q 1096 535 1136 538 q 1085 480 1090 507 q 1074 425 1081 453 q 1141 417 1107 422 q 1204 397 1175 413 q 1233 368 1225 385 q 1249 332 1243 351 q 1257 293 1256 313 q 1252 255 1257 274 q 1236 221 1247 236 q 1207 196 1225 206 q 1169 181 1189 186 q 1088 165 1129 169 q 1004 158 1046 161 q 978 99 993 128 q 942 47 964 71 m 483 919 q 501 899 486 904 q 528 904 515 894 q 540 930 540 914 q 525 953 540 946 q 493 949 507 961 q 483 919 479 938 m 325 769 q 334 749 325 756 q 353 742 343 742 q 373 749 364 742 q 382 769 382 756 q 385 785 382 775 q 393 808 389 796 q 402 830 397 819 q 410 846 407 840 q 419 863 414 854 q 431 879 424 872 q 447 892 438 886 q 463 908 457 897 q 464 927 467 918 q 454 942 461 936 q 438 948 447 947 q 419 942 428 949 q 413 936 417 939 q 404 931 408 933 q 394 922 400 928 q 383 908 389 915 q 371 893 376 900 q 364 882 365 886 q 353 859 360 875 q 341 826 347 843 q 330 793 335 808 q 325 769 325 778 m 265 401 q 274 379 265 389 q 296 369 282 369 q 317 380 310 369 q 322 403 325 390 q 321 417 321 410 q 321 431 321 424 q 324 469 321 450 q 333 508 328 489 q 336 524 335 511 q 339 539 338 536 q 342 563 346 551 q 328 578 338 574 q 307 581 318 583 q 290 565 296 578 q 283 544 285 556 q 279 522 282 533 q 270 481 275 501 q 265 439 265 461 l 265 401 m 592 435 q 656 433 624 433 q 719 433 688 433 q 726 481 722 457 q 733 529 729 506 l 610 529 q 601 482 606 506 q 592 435 597 458 z "},"$":{"ha":831,"x_min":40,"x_max":794,"o":"m 499 -129 q 433 -144 469 -143 q 369 -128 397 -146 q 350 -108 358 -121 q 340 -81 342 -94 q 343 -48 339 -64 q 351 -15 347 -32 q 242 -5 297 -12 q 138 28 186 3 q 93 61 113 40 q 61 108 74 82 q 44 163 49 133 q 46 221 40 192 q 103 313 58 278 q 157 340 126 332 q 218 344 188 347 q 300 331 260 342 q 382 317 340 319 q 413 323 397 317 q 435 342 428 329 q 437 385 450 368 q 397 414 424 401 q 335 436 369 426 q 274 460 300 446 q 203 497 238 478 q 139 543 168 517 q 103 581 119 560 q 78 625 88 601 q 57 720 58 669 q 71 815 56 771 q 126 904 89 868 q 240 977 175 951 q 372 1014 306 1003 q 369 1028 371 1018 q 364 1048 367 1038 q 359 1068 361 1058 q 357 1082 357 1078 q 364 1105 357 1092 q 378 1124 371 1118 q 419 1141 397 1136 q 463 1147 440 1146 q 507 1146 489 1150 q 546 1126 528 1143 q 572 1090 564 1110 q 581 1052 579 1071 q 583 1014 583 1033 q 651 1000 618 1008 q 717 978 685 992 q 762 944 744 965 q 787 895 779 922 q 792 838 794 868 q 776 779 789 807 q 756 746 768 763 q 729 718 744 729 q 702 704 717 710 q 672 700 688 699 q 594 713 632 701 q 518 726 557 724 q 454 724 486 729 q 399 697 422 718 q 387 670 385 685 q 401 642 389 656 q 432 617 414 628 q 468 597 450 606 q 533 573 500 582 q 599 549 567 564 q 669 501 636 529 q 724 436 701 472 q 763 313 757 378 q 746 186 769 249 q 656 58 718 110 q 558 6 611 25 q 553 -44 557 -19 q 536 -90 549 -69 q 499 -129 522 -117 m 283 903 q 309 892 293 890 q 332 908 325 893 q 328 938 340 924 q 299 947 317 951 q 278 930 283 944 q 283 903 272 915 m 219 519 q 239 517 229 514 q 254 526 249 519 q 260 543 260 533 q 254 561 261 553 q 244 569 250 567 q 233 576 239 572 q 208 593 221 586 q 185 613 196 599 q 165 646 174 628 q 153 682 157 664 q 149 715 149 700 q 149 758 149 736 q 161 800 150 781 q 174 815 165 806 q 192 835 182 825 q 213 854 203 846 q 229 865 222 863 q 244 887 243 872 q 235 911 246 901 q 217 918 228 918 q 199 911 206 918 q 153 875 175 894 q 117 832 132 856 q 97 783 103 813 q 93 721 92 753 q 101 659 94 689 q 121 610 108 629 q 143 578 131 593 q 171 551 156 563 q 181 545 175 547 q 192 539 186 543 q 219 519 206 528 z "},"%":{"ha":1306,"x_min":21,"x_max":1281,"o":"m 554 -28 q 493 -28 524 -35 q 437 -4 463 -21 q 392 38 411 13 q 367 93 374 63 q 365 138 363 115 q 374 182 368 160 q 415 336 389 261 q 468 486 442 411 q 347 433 415 444 q 267 432 308 426 q 190 451 226 438 q 115 497 150 467 q 60 565 79 526 q 26 680 32 618 q 35 800 21 742 q 52 852 42 826 q 81 899 63 878 q 159 963 113 938 q 257 996 206 988 q 360 996 308 1004 q 453 960 411 988 q 504 917 481 940 q 543 864 528 893 q 563 812 557 839 q 572 757 569 785 q 608 831 589 794 q 650 901 626 867 q 678 939 663 921 q 713 972 693 957 q 831 1007 765 1010 q 885 997 858 1006 q 933 969 911 988 q 974 921 957 950 q 994 860 990 892 q 995 815 997 838 q 988 771 993 793 q 951 660 972 714 q 908 550 931 606 q 1025 567 963 569 q 1139 538 1088 565 q 1213 479 1179 515 q 1261 399 1246 443 q 1280 285 1279 346 q 1261 172 1281 225 q 1178 58 1235 104 q 1051 0 1122 11 q 985 -3 1019 -6 q 918 10 951 0 q 855 38 885 21 q 803 79 825 56 q 767 126 782 100 q 743 181 753 153 q 709 117 726 149 q 669 57 692 86 q 618 5 647 29 q 554 -28 589 -19 m 844 946 q 824 934 831 943 q 819 915 818 925 q 828 898 821 906 q 850 890 836 890 q 870 900 864 890 q 875 921 876 910 q 866 940 874 932 q 844 946 858 949 m 604 767 q 598 744 596 756 q 608 727 600 733 q 628 722 617 721 q 649 733 640 722 q 656 747 654 740 q 663 761 658 754 q 672 777 664 764 q 682 793 679 790 q 708 834 693 815 q 743 868 724 853 q 759 880 750 875 q 778 889 768 885 q 796 917 796 897 q 776 943 796 936 q 749 938 765 946 q 724 924 732 931 q 673 878 696 903 q 633 822 650 853 q 623 804 629 813 q 613 786 617 796 q 608 776 611 783 q 604 767 606 769 m 274 593 q 332 587 304 581 q 381 613 360 593 q 415 661 403 632 q 425 724 426 690 q 417 767 424 746 q 399 808 411 789 q 372 836 388 824 q 339 856 357 849 q 268 856 300 869 q 217 813 236 843 q 195 743 199 783 q 208 664 192 703 q 235 622 218 642 q 274 593 251 603 m 978 160 q 1038 154 1008 147 q 1088 181 1067 161 q 1121 232 1110 201 q 1129 296 1132 263 q 1122 338 1128 317 q 1103 375 1115 358 q 1043 424 1081 410 q 973 424 1004 438 q 923 380 942 410 q 900 310 904 350 q 913 231 896 269 q 940 189 924 208 q 978 160 956 169 z "},"&":{"ha":1039,"x_min":31,"x_max":1018,"o":"m 808 -42 q 748 -37 779 -44 q 693 -11 717 -31 q 668 17 678 0 q 653 53 658 35 q 613 22 633 38 q 568 -6 592 6 q 492 -29 532 -22 q 411 -39 451 -36 q 257 -22 332 -42 q 199 -2 228 -14 q 147 28 171 10 q 80 103 107 57 q 42 199 53 150 q 33 301 31 249 q 50 403 35 354 q 101 493 68 456 q 165 553 129 526 q 242 600 201 581 q 207 644 222 621 q 181 693 192 667 q 162 763 165 725 q 167 833 158 800 q 188 884 174 860 q 218 929 201 908 q 315 1014 258 981 q 436 1058 371 1047 q 551 1063 489 1068 q 672 1038 614 1057 q 775 983 729 1018 q 842 899 821 949 q 853 856 850 879 q 850 813 856 833 q 816 758 842 782 q 760 725 790 735 q 722 715 743 719 q 679 713 700 711 q 641 721 658 714 q 615 744 624 728 q 597 786 604 764 q 575 826 590 808 q 557 834 569 832 q 538 835 544 836 q 519 831 528 832 q 503 824 510 829 q 474 790 483 813 q 467 744 464 767 q 472 723 468 733 q 485 707 476 713 q 531 693 506 694 q 579 683 556 692 q 612 646 603 675 q 617 593 621 617 q 607 562 614 578 q 588 535 600 546 q 558 520 575 524 q 524 515 540 517 q 478 514 500 513 q 432 513 456 515 q 388 493 404 510 q 353 438 364 469 q 339 374 342 406 q 340 328 338 351 q 351 286 342 306 q 383 241 363 260 q 429 213 404 222 q 482 203 454 203 q 536 214 510 203 q 565 231 551 221 q 586 257 578 242 q 601 297 597 275 q 606 340 606 318 q 601 407 606 374 q 600 474 597 440 q 633 528 603 510 q 699 543 663 547 q 781 532 739 538 q 863 531 822 526 q 913 535 888 533 q 963 528 939 538 q 1006 489 993 517 q 1014 431 1018 461 q 971 333 1006 374 q 938 308 958 317 q 897 296 918 299 q 906 241 899 268 q 924 187 914 214 q 944 133 933 160 q 961 79 954 106 q 963 35 967 57 q 942 1 958 15 q 902 -22 925 -12 q 854 -36 879 -32 q 808 -42 829 -40 m 501 986 q 531 990 517 979 q 542 1018 546 1000 q 526 1037 539 1031 q 501 1036 514 1043 q 486 1012 486 1029 q 501 986 486 994 m 244 657 q 264 646 253 646 q 283 653 275 646 q 294 671 292 660 q 288 693 296 682 q 263 746 269 715 q 263 804 256 776 q 269 822 264 810 q 280 846 274 833 q 292 870 286 858 q 300 886 297 882 q 374 947 326 925 q 396 958 379 950 q 417 971 413 965 q 423 989 424 979 q 416 1006 422 999 q 401 1015 410 1013 q 382 1013 392 1018 q 344 994 363 1004 q 308 972 325 985 q 297 963 304 969 q 281 947 289 956 q 265 931 272 939 q 256 919 258 924 q 237 888 244 904 q 222 854 229 871 q 209 819 215 836 q 203 782 203 801 q 213 715 203 749 q 244 657 224 682 z "},"'":{"ha":294,"x_min":32,"x_max":261,"o":"m 194 649 q 143 626 174 625 q 89 650 113 626 q 63 691 72 667 q 49 739 54 715 q 38 799 42 769 q 33 861 35 829 q 34 906 32 883 q 44 949 36 928 q 77 992 56 976 q 128 1010 99 1007 q 163 1010 146 1010 q 196 1003 181 1010 q 244 960 229 989 q 258 924 254 943 q 261 886 261 906 q 238 732 261 810 q 220 688 231 708 q 194 649 210 667 m 161 886 q 178 865 164 871 q 206 871 193 860 q 215 899 219 882 q 194 919 211 915 q 168 912 179 922 q 161 886 157 901 z "},"‚":{"ha":294,"x_min":32,"x_max":261,"o":"m 194 649 q 143 626 174 625 q 89 650 113 626 q 63 691 72 667 q 49 739 54 715 q 38 799 42 769 q 33 861 35 829 q 34 906 32 883 q 44 949 36 928 q 77 992 56 976 q 128 1010 99 1007 q 163 1010 146 1010 q 196 1003 181 1010 q 244 960 229 989 q 258 924 254 943 q 261 886 261 906 q 238 732 261 810 q 220 688 231 708 q 194 649 210 667 m 161 886 q 178 865 164 871 q 206 871 193 860 q 215 899 219 882 q 194 919 211 915 q 168 912 179 922 q 161 886 157 901 z "},"‛":{"ha":294,"x_min":32,"x_max":261,"o":"m 194 649 q 143 626 174 625 q 89 650 113 626 q 63 691 72 667 q 49 739 54 715 q 38 799 42 769 q 33 861 35 829 q 34 906 32 883 q 44 949 36 928 q 77 992 56 976 q 128 1010 99 1007 q 163 1010 146 1010 q 196 1003 181 1010 q 244 960 229 989 q 258 924 254 943 q 261 886 261 906 q 238 732 261 810 q 220 688 231 708 q 194 649 210 667 m 161 886 q 178 865 164 871 q 206 871 193 860 q 215 899 219 882 q 194 919 211 915 q 168 912 179 922 q 161 886 157 901 z "},"‹":{"ha":294,"x_min":32,"x_max":261,"o":"m 194 649 q 143 626 174 625 q 89 650 113 626 q 63 691 72 667 q 49 739 54 715 q 38 799 42 769 q 33 861 35 829 q 34 906 32 883 q 44 949 36 928 q 77 992 56 976 q 128 1010 99 1007 q 163 1010 146 1010 q 196 1003 181 1010 q 244 960 229 989 q 258 924 254 943 q 261 886 261 906 q 238 732 261 810 q 220 688 231 708 q 194 649 210 667 m 161 886 q 178 865 164 871 q 206 871 193 860 q 215 899 219 882 q 194 919 211 915 q 168 912 179 922 q 161 886 157 901 z "},"›":{"ha":294,"x_min":32,"x_max":261,"o":"m 194 649 q 143 626 174 625 q 89 650 113 626 q 63 691 72 667 q 49 739 54 715 q 38 799 42 769 q 33 861 35 829 q 34 906 32 883 q 44 949 36 928 q 77 992 56 976 q 128 1010 99 1007 q 163 1010 146 1010 q 196 1003 181 1010 q 244 960 229 989 q 258 924 254 943 q 261 886 261 906 q 238 732 261 810 q 220 688 231 708 q 194 649 210 667 m 161 886 q 178 865 164 871 q 206 871 193 860 q 215 899 219 882 q 194 919 211 915 q 168 912 179 922 q 161 886 157 901 z "},"(":{"ha":540,"x_min":33,"x_max":524,"o":"m 422 -51 q 389 -52 406 -53 q 357 -47 372 -51 q 253 -5 303 -35 q 168 65 204 25 q 85 199 115 124 q 44 353 56 274 q 47 515 33 433 q 83 674 60 596 q 166 837 111 761 q 292 969 221 913 q 352 1010 319 992 q 421 1031 385 1028 q 487 1013 457 1033 q 521 957 517 993 q 503 899 524 925 q 453 840 479 867 q 403 781 426 813 q 376 740 388 761 q 354 694 364 718 q 313 520 322 611 q 325 343 303 429 q 360 248 336 294 q 419 164 385 201 q 463 126 439 143 q 501 85 488 110 q 513 40 514 63 q 501 -2 513 17 q 468 -35 489 -21 q 422 -51 447 -49 m 301 901 q 326 892 311 890 q 347 907 340 893 q 346 934 354 921 q 322 947 338 947 q 297 931 304 947 q 301 901 290 915 m 96 301 q 109 283 99 290 q 131 278 119 275 q 150 292 144 281 q 150 317 156 304 q 142 340 147 322 q 136 365 138 358 q 131 458 129 411 q 142 553 133 506 q 146 574 144 564 q 150 594 147 583 q 207 733 169 668 q 216 747 208 738 q 231 769 224 757 q 246 790 239 781 q 256 804 253 800 q 269 824 258 808 q 283 843 279 840 q 288 846 285 844 q 290 849 290 847 q 301 867 300 857 q 296 885 301 876 q 280 896 290 893 q 258 893 269 899 q 231 867 242 885 q 210 835 221 850 q 199 819 207 831 q 183 796 192 808 q 167 772 175 783 q 157 757 160 761 q 133 711 144 735 q 114 664 122 688 q 90 577 97 622 q 78 488 82 532 q 78 394 72 442 q 96 301 83 346 z "},")":{"ha":539,"x_min":14,"x_max":503,"o":"m 160 -50 q 121 -51 140 -53 q 83 -42 101 -49 q 49 -17 63 -33 q 31 19 36 0 q 28 59 25 39 q 46 97 32 79 q 76 126 58 114 q 110 154 94 139 q 182 253 154 196 q 221 369 210 310 q 227 526 236 446 q 190 681 218 607 q 163 740 179 711 q 125 794 147 769 q 72 854 100 826 q 26 918 43 882 q 19 965 14 942 q 41 1003 25 988 q 81 1027 57 1019 q 132 1029 106 1035 q 176 1015 156 1024 q 215 993 196 1006 q 362 853 299 936 q 456 675 425 771 q 490 531 478 604 q 497 385 503 458 q 474 254 493 318 q 421 133 454 190 q 384 81 404 106 q 340 35 364 56 q 256 -22 303 1 q 160 -50 210 -44 m 85 894 q 107 890 96 886 q 124 903 118 893 q 129 924 131 913 q 115 942 128 935 q 92 944 103 947 q 76 933 82 942 q 72 914 71 925 q 85 894 74 903 m 242 321 q 235 297 232 308 q 249 278 239 285 q 271 274 258 272 q 290 292 283 276 q 299 311 294 301 q 307 332 303 321 q 320 376 317 353 q 326 422 324 399 q 328 451 328 431 q 326 492 328 471 q 324 534 325 514 q 322 563 324 554 q 311 616 318 590 q 294 668 304 642 q 285 696 290 682 q 274 722 281 710 q 262 744 271 728 q 242 780 253 761 q 222 815 232 799 q 207 836 211 831 q 191 852 203 842 q 174 865 179 863 q 153 868 163 871 q 139 858 144 865 q 133 842 133 851 q 139 824 132 832 q 152 813 144 817 q 164 801 160 808 q 203 737 185 769 q 236 669 221 704 q 241 655 238 665 q 248 633 244 644 q 254 610 251 621 q 258 596 257 600 q 270 519 268 558 q 272 442 272 481 q 272 429 272 438 q 269 410 271 421 q 267 392 268 400 q 264 379 265 383 q 260 367 263 375 q 254 349 257 358 q 248 332 251 340 q 242 321 244 324 z "},"*":{"ha":575,"x_min":32,"x_max":542,"o":"m 344 522 q 310 508 329 511 q 271 507 290 504 q 233 522 251 510 q 210 553 215 533 q 206 604 201 578 q 213 657 210 631 q 185 626 199 642 q 156 597 171 611 q 117 577 140 583 q 75 579 94 571 q 42 618 51 590 q 46 669 33 646 q 89 719 63 697 q 143 760 115 740 q 94 786 119 772 q 53 822 69 800 q 35 865 38 842 q 43 910 32 889 q 90 940 58 939 q 150 924 122 940 q 174 905 164 917 q 196 882 185 893 q 194 933 193 907 q 206 983 194 960 q 247 1020 218 1008 q 304 1029 276 1032 q 331 1018 318 1026 q 351 997 344 1010 q 370 942 367 972 q 371 882 374 911 q 418 910 394 897 q 469 926 442 922 q 493 928 481 929 q 513 918 506 926 q 535 870 532 899 q 519 822 538 842 q 483 793 504 804 q 442 771 463 782 q 484 747 464 760 q 519 714 504 733 q 537 677 532 697 q 539 638 542 657 q 525 604 536 619 q 494 582 514 589 q 450 583 471 572 q 409 613 428 596 q 371 650 390 631 q 377 610 375 631 q 375 571 379 590 q 364 544 372 557 q 344 522 356 531 m 317 996 q 296 987 303 996 q 289 967 289 978 q 296 949 289 957 q 317 940 303 940 q 338 949 331 940 q 344 967 344 957 q 338 987 344 978 q 317 996 331 996 z "},"+":{"ha":738,"x_min":29,"x_max":707,"o":"m 472 99 q 412 81 444 83 q 347 81 379 78 q 314 87 331 83 q 282 97 297 90 q 265 107 274 101 q 251 121 257 113 q 229 175 235 144 q 221 235 224 206 q 156 231 189 232 q 90 240 122 229 q 39 297 50 256 q 32 342 35 315 q 31 397 29 369 q 40 449 33 425 q 60 486 46 474 q 97 508 75 501 q 157 517 126 517 q 217 514 188 517 q 215 568 215 542 q 217 622 214 594 q 229 666 219 644 q 257 700 239 688 q 290 711 268 707 q 336 717 313 715 q 383 719 360 719 q 418 715 406 718 q 462 696 442 711 q 492 660 482 681 q 508 595 506 629 q 510 529 511 561 q 559 532 535 531 q 608 532 583 533 q 640 526 624 529 q 671 514 657 524 q 685 501 678 508 q 694 485 692 494 q 706 431 706 458 q 707 375 707 403 q 706 340 707 358 q 699 306 704 322 q 625 246 682 253 q 574 244 599 243 q 522 247 549 246 q 519 190 521 219 q 506 135 517 161 q 492 115 500 124 q 472 99 483 106 m 253 496 q 269 472 253 479 q 299 475 285 464 q 308 488 306 479 q 310 503 310 496 q 310 549 310 526 q 317 594 310 572 q 324 609 318 600 q 336 621 331 618 q 349 638 346 628 q 349 656 351 647 q 337 669 346 664 q 315 672 328 675 q 297 661 304 669 q 283 644 290 653 q 263 607 267 625 q 254 551 256 579 q 253 496 253 524 z "},",":{"ha":351,"x_min":28,"x_max":322,"o":"m 203 -193 q 172 -205 189 -203 q 140 -203 154 -207 q 118 -188 126 -199 q 114 -161 110 -178 q 121 -148 115 -157 q 134 -129 126 -139 q 148 -110 142 -119 q 157 -97 154 -101 q 175 -56 169 -78 q 179 -10 181 -33 q 111 1 146 -10 q 54 36 76 11 q 32 83 36 56 q 29 138 28 111 q 38 192 32 164 q 63 239 44 219 q 92 263 75 254 q 129 278 110 272 q 178 284 151 285 q 231 276 206 283 q 276 253 256 268 q 307 217 296 238 q 318 184 315 201 q 321 149 321 167 q 313 40 322 94 q 285 -67 303 -15 q 253 -138 272 -103 q 203 -193 235 -174 m 224 183 q 222 161 218 171 q 235 147 226 151 q 254 143 243 142 q 274 156 265 144 q 279 176 281 165 q 268 194 278 188 q 244 200 257 204 q 224 183 231 196 z "},"-":{"ha":686,"x_min":29,"x_max":658,"o":"m 465 261 q 397 261 446 261 q 291 262 347 261 q 185 264 235 263 q 118 268 136 265 q 87 276 103 271 q 61 292 71 281 q 38 336 44 311 q 31 386 32 361 q 29 417 29 401 q 33 447 29 432 q 64 506 40 483 q 84 518 72 514 q 108 525 96 522 q 288 538 197 540 q 469 533 378 535 q 511 533 486 533 q 561 528 536 532 q 607 517 586 525 q 636 494 628 508 q 650 456 644 479 q 657 408 656 433 q 656 360 658 383 q 646 322 654 336 q 630 299 639 310 q 607 282 621 288 q 538 265 574 267 q 465 261 501 263 m 83 451 q 101 437 88 440 q 125 436 114 433 q 141 438 129 438 q 167 440 153 439 q 192 442 181 442 q 208 443 204 443 q 231 441 215 443 q 263 438 246 439 q 296 437 281 438 q 318 438 311 436 q 335 449 331 440 q 339 468 340 458 q 331 485 338 478 q 311 493 324 493 q 272 494 292 493 q 233 496 253 494 q 222 497 231 496 q 210 499 213 499 q 179 498 194 499 q 149 496 164 497 q 131 493 144 496 q 114 492 118 490 q 86 481 97 496 q 83 451 75 467 m 376 440 q 395 439 386 436 q 410 449 404 442 q 416 465 415 456 q 410 483 417 475 q 381 493 397 497 q 359 469 361 489 q 376 440 357 450 z "},".":{"ha":350,"x_min":29,"x_max":322,"o":"m 210 -8 q 160 -11 186 -12 q 110 -1 133 -10 q 67 22 86 7 q 39 58 47 36 q 30 104 31 81 q 32 151 29 128 q 40 195 35 174 q 60 235 46 217 q 82 254 69 246 q 110 269 94 263 q 167 283 138 281 q 225 276 197 285 q 266 258 246 269 q 299 229 286 247 q 317 186 311 211 q 321 135 322 161 q 313 85 319 110 q 293 43 306 60 q 210 -8 261 3 m 196 186 q 212 160 196 168 q 242 163 228 151 q 252 189 254 174 q 235 211 250 204 q 208 210 221 218 q 196 186 196 201 z "},"/":{"ha":704,"x_min":17,"x_max":686,"o":"m 197 -76 q 129 -72 163 -83 q 70 -36 96 -60 q 31 19 44 -12 q 19 88 17 51 q 31 156 24 122 q 49 225 39 190 q 75 313 61 269 q 104 400 89 356 q 165 576 135 488 q 231 751 194 664 q 281 867 254 810 q 343 978 307 925 q 374 1017 358 999 q 410 1050 390 1036 q 469 1078 438 1068 q 533 1085 501 1088 q 593 1069 565 1083 q 642 1030 621 1054 q 674 976 663 1006 q 686 913 686 946 q 675 828 686 869 q 649 746 664 786 q 635 710 644 735 q 615 653 626 686 q 589 585 603 621 q 563 517 575 550 q 540 460 550 485 q 526 425 531 435 q 453 257 490 340 q 372 92 417 174 q 333 29 354 60 q 286 -26 313 -1 q 244 -58 267 -44 q 197 -76 222 -71 m 385 961 q 364 952 371 961 q 357 933 357 943 q 364 913 357 922 q 385 904 371 904 q 409 913 401 904 q 417 933 417 922 q 409 952 417 943 q 385 961 401 961 m 128 368 q 131 347 125 356 q 146 336 136 339 q 165 337 156 333 q 181 351 175 340 q 189 373 183 357 q 201 407 194 389 q 213 441 207 425 q 219 464 218 457 q 228 489 221 471 q 242 527 235 507 q 258 565 250 547 q 268 590 265 583 q 275 609 269 594 q 287 640 281 624 q 299 672 293 657 q 307 692 304 688 q 327 736 317 714 q 344 782 338 758 q 362 815 350 800 q 374 849 374 829 q 355 874 374 868 q 324 865 336 881 q 317 854 321 863 q 308 836 313 846 q 300 818 304 826 q 294 806 296 810 q 290 793 292 803 q 286 781 288 783 q 281 766 285 776 q 271 744 276 756 q 260 723 265 733 q 254 708 256 713 q 249 693 253 704 q 239 669 244 682 q 229 644 233 656 q 224 628 225 632 q 212 600 221 621 q 194 555 203 579 q 176 510 185 531 q 167 481 168 489 q 157 451 163 465 q 146 421 151 436 q 143 409 144 418 q 140 397 142 400 q 133 383 138 394 q 128 368 129 372 z "},":":{"ha":383,"x_min":39,"x_max":346,"o":"m 233 464 q 183 462 210 460 q 133 472 157 464 q 90 495 110 481 q 63 531 71 510 q 53 576 54 553 q 56 624 53 600 q 64 667 58 646 q 83 707 69 689 q 133 742 103 731 q 190 755 160 753 q 249 749 221 757 q 290 731 269 742 q 322 701 310 721 q 340 658 335 683 q 344 608 346 633 q 336 557 343 582 q 317 515 329 532 q 233 464 285 475 m 253 642 q 282 644 268 635 q 296 669 296 653 q 281 694 296 686 q 250 690 265 701 q 238 665 238 681 q 253 642 238 649 m 219 -8 q 169 -11 196 -12 q 119 -1 143 -10 q 76 22 96 7 q 49 58 57 36 q 40 104 40 81 q 42 151 39 128 q 50 195 44 174 q 69 235 56 217 q 92 254 79 246 q 119 269 104 263 q 177 283 147 281 q 235 276 207 285 q 276 258 256 269 q 308 229 296 247 q 326 186 321 211 q 331 135 332 161 q 322 85 329 110 q 303 43 315 60 q 219 -8 271 3 m 221 183 q 240 163 225 168 q 267 169 254 158 q 277 197 281 181 q 256 218 274 214 q 229 210 240 221 q 221 183 218 199 z "},";":{"ha":382,"x_min":39,"x_max":343,"o":"m 231 464 q 182 462 208 460 q 132 472 156 464 q 89 495 108 481 q 61 531 69 510 q 51 576 53 553 q 53 624 50 600 q 62 667 56 646 q 82 707 68 689 q 131 742 101 731 q 189 755 158 753 q 247 749 219 757 q 288 731 268 742 q 319 701 307 721 q 338 658 332 683 q 342 608 343 633 q 335 557 342 582 q 314 515 328 532 q 231 464 282 475 m 278 690 q 262 676 264 688 q 265 653 260 664 q 280 638 269 643 q 301 642 290 633 q 315 678 324 660 q 278 690 306 696 m 214 -193 q 183 -205 200 -203 q 151 -203 165 -207 q 129 -188 138 -199 q 125 -161 121 -178 q 132 -148 126 -157 q 145 -129 138 -139 q 159 -110 153 -119 q 168 -97 165 -101 q 186 -56 181 -78 q 190 -10 192 -33 q 122 1 157 -10 q 65 36 88 11 q 43 83 47 56 q 40 138 39 111 q 49 192 43 164 q 74 239 56 219 q 103 263 86 254 q 140 278 121 272 q 190 284 163 285 q 242 276 217 283 q 287 253 267 268 q 318 217 307 238 q 329 184 326 201 q 332 149 332 167 q 324 40 333 94 q 296 -67 314 -15 q 265 -138 283 -103 q 214 -193 246 -174 m 239 203 q 238 181 232 190 q 253 167 243 171 q 275 165 264 163 q 293 181 286 168 q 294 203 299 193 q 278 218 289 214 q 256 219 268 222 q 239 203 244 215 z "},"<":{"ha":514,"x_min":25,"x_max":489,"o":"m 483 475 q 471 466 479 468 q 452 465 463 464 q 431 467 442 465 q 413 471 421 469 q 244 513 328 486 q 93 594 160 540 q 64 622 78 607 q 40 654 50 636 q 38 719 25 686 q 85 768 51 753 q 116 776 100 775 q 147 776 132 778 q 210 764 179 774 q 271 739 242 754 q 397 643 340 703 q 481 510 453 583 q 486 492 483 501 q 483 475 489 482 m 124 704 q 146 688 131 689 q 172 700 161 688 q 176 726 182 711 q 156 744 171 740 q 128 733 139 747 q 124 704 117 719 m 243 171 q 192 165 218 167 q 140 168 165 164 q 107 178 124 171 q 78 196 90 185 q 56 249 56 218 q 78 304 57 281 q 120 332 96 322 q 168 349 144 342 q 306 351 235 364 q 435 301 376 338 q 460 281 449 293 q 460 258 471 269 q 425 235 444 243 q 336 195 381 213 q 243 171 292 178 m 119 294 q 122 271 117 281 q 137 258 128 261 q 156 258 146 254 q 171 274 165 261 q 171 297 176 286 q 155 311 165 307 q 133 312 144 315 q 119 294 122 308 z "},"=":{"ha":711,"x_min":42,"x_max":672,"o":"m 478 413 q 438 412 465 413 q 377 411 411 411 q 305 412 343 411 q 232 413 267 413 q 170 415 197 414 q 131 418 143 415 q 100 426 115 421 q 74 442 85 431 q 52 486 58 461 q 43 536 46 511 q 42 567 42 551 q 46 599 43 583 q 76 657 56 633 q 121 675 94 672 q 301 688 211 690 q 483 685 392 685 q 525 684 500 685 q 574 679 550 683 q 619 667 599 675 q 649 644 640 658 q 663 606 657 629 q 670 558 668 583 q 669 510 672 533 q 660 472 667 488 q 621 432 646 444 q 551 415 588 418 q 478 413 514 413 m 114 579 q 134 577 124 575 q 156 582 144 579 q 176 586 160 585 q 196 588 192 588 q 223 588 203 589 q 266 586 243 588 q 309 585 289 585 q 336 586 329 585 q 357 613 357 592 q 336 640 357 635 q 308 641 329 642 q 281 640 286 640 q 245 644 263 643 q 211 644 228 646 q 194 644 206 644 q 172 641 183 643 q 149 637 160 639 q 133 633 138 635 q 124 631 129 631 q 114 629 118 632 q 99 604 99 622 q 114 579 99 586 m 403 581 q 430 583 417 574 q 443 607 443 592 q 427 631 443 624 q 396 628 411 639 q 386 603 385 618 q 403 581 388 588 m 478 68 q 409 67 458 68 q 303 67 360 67 q 198 69 247 68 q 131 75 149 71 q 99 83 115 78 q 74 99 83 88 q 51 143 57 118 q 43 193 44 168 q 42 224 42 208 q 46 254 42 239 q 76 313 53 290 q 97 325 85 321 q 121 332 108 329 q 300 344 210 347 q 482 340 390 340 q 524 340 499 340 q 574 335 549 339 q 619 322 599 331 q 649 300 640 314 q 663 263 657 286 q 669 215 668 240 q 669 167 671 190 q 658 129 667 143 q 642 106 651 117 q 619 89 633 94 q 550 72 586 74 q 478 68 514 69 m 129 236 q 156 234 138 232 q 182 240 174 236 q 203 244 188 243 q 235 246 218 246 q 267 245 251 246 q 289 244 282 244 q 305 244 294 244 q 326 242 315 243 q 348 240 338 240 q 363 243 358 240 q 378 268 378 250 q 363 293 378 286 q 339 297 351 299 q 315 297 326 296 q 286 299 306 299 q 244 300 267 300 q 203 299 222 300 q 175 296 183 299 q 166 293 174 296 q 156 289 158 290 q 145 288 150 288 q 136 288 140 289 q 114 264 117 283 q 129 236 111 244 m 404 251 q 432 235 413 233 q 456 257 451 238 q 452 278 458 268 q 435 292 446 289 q 407 281 418 296 q 404 251 396 267 z "},">":{"ha":514,"x_min":26,"x_max":486,"o":"m 86 468 q 65 466 75 467 q 43 467 54 465 q 35 470 40 468 q 29 475 31 472 q 29 499 26 486 q 38 522 32 511 q 142 669 74 606 q 297 761 211 733 q 347 774 321 769 q 399 775 374 779 q 449 754 425 772 q 479 711 472 736 q 476 663 486 686 q 446 618 465 639 q 401 580 426 597 q 353 550 375 563 q 223 499 290 518 q 86 468 156 479 m 328 697 q 349 688 338 686 q 369 697 361 689 q 379 716 378 704 q 369 736 381 728 q 347 744 358 744 q 328 737 336 743 q 320 719 321 731 q 328 697 319 708 m 428 189 q 382 169 408 174 q 329 165 356 165 q 208 185 267 165 q 93 232 149 204 q 69 245 86 236 q 50 261 53 254 q 56 287 43 276 q 83 304 69 297 q 217 353 144 342 q 360 344 290 364 q 406 325 383 338 q 444 292 429 313 q 456 238 461 268 q 428 189 451 207 m 336 265 q 365 267 351 258 q 379 290 379 275 q 365 315 379 307 q 336 315 351 322 q 321 290 321 308 q 336 265 321 272 z "},"?":{"ha":743,"x_min":32,"x_max":721,"o":"m 401 322 q 378 286 396 301 q 339 262 361 271 q 292 249 317 253 q 244 244 267 244 q 185 255 215 246 q 136 285 156 264 q 120 317 125 296 q 115 364 115 339 q 116 413 114 389 q 121 451 118 436 q 134 478 124 465 q 158 503 144 492 q 188 521 172 514 q 218 531 204 528 q 269 533 243 536 q 322 531 296 531 q 356 536 339 532 q 385 550 372 540 q 424 604 410 569 q 439 676 438 638 q 429 749 440 714 q 414 785 424 768 q 388 813 404 803 q 330 813 360 828 q 285 771 300 799 q 268 728 272 751 q 256 683 264 704 q 244 665 251 674 q 228 651 238 656 q 201 647 218 647 q 165 647 183 646 q 128 652 146 649 q 100 660 110 656 q 72 674 85 665 q 50 694 58 682 q 35 737 39 711 q 35 790 32 763 q 46 842 38 817 q 65 885 54 868 q 138 959 93 928 q 231 1006 182 990 q 328 1025 278 1021 q 428 1022 379 1029 q 521 999 475 1015 q 604 956 567 983 q 665 892 639 929 q 703 813 692 854 q 714 685 721 751 q 679 561 707 619 q 629 485 660 521 q 560 428 599 450 q 481 407 524 408 q 397 403 438 406 q 404 363 401 383 q 401 322 407 342 m 79 806 q 72 776 75 792 q 70 746 69 760 q 77 723 71 732 q 99 714 83 714 q 121 725 113 714 q 126 749 129 736 q 126 765 125 754 q 131 786 128 775 q 138 807 133 797 q 144 822 142 817 q 170 860 157 842 q 203 890 183 879 q 242 913 222 903 q 283 929 261 924 q 299 931 286 931 q 315 931 313 931 q 334 945 329 935 q 336 966 339 956 q 325 983 333 976 q 303 988 317 990 q 278 984 290 985 q 253 979 265 983 q 208 960 229 972 q 168 935 188 947 q 128 895 144 919 q 96 847 111 871 q 87 827 93 843 q 79 806 81 811 m 364 940 q 389 925 371 925 q 415 942 407 925 q 411 971 422 957 q 382 981 400 985 q 363 965 369 978 q 364 940 357 953 m 279 -3 q 186 8 228 -7 q 142 44 156 19 q 131 95 129 68 q 149 146 132 122 q 196 181 165 169 q 251 191 222 192 q 307 185 279 190 q 346 172 326 182 q 372 143 365 163 q 377 117 376 132 q 376 88 378 103 q 369 58 374 72 q 357 35 364 43 q 322 8 343 18 q 279 -3 300 -1 m 299 111 q 325 97 307 96 q 351 114 343 97 q 351 138 357 125 q 332 153 346 150 q 303 142 314 157 q 299 111 292 128 z "},"@":{"ha":1125,"x_min":33,"x_max":1094,"o":"m 663 -43 q 493 -42 579 -54 q 329 4 407 -31 q 255 44 290 21 q 190 100 219 68 q 88 256 126 167 q 42 436 49 344 q 54 627 33 531 q 129 800 75 724 q 209 888 163 849 q 308 956 256 928 q 499 1022 396 1003 q 703 1022 603 1040 q 867 961 788 1007 q 1000 847 947 915 q 1059 751 1035 803 q 1089 646 1083 700 q 1085 525 1094 585 q 1054 407 1075 465 q 1018 328 1039 367 q 968 257 997 289 q 915 211 944 231 q 850 181 885 192 q 880 168 865 176 q 904 146 894 160 q 918 97 918 125 q 907 44 918 68 q 892 24 901 33 q 872 10 883 14 q 768 -22 821 -8 q 663 -43 715 -36 m 363 939 q 367 910 356 924 q 394 900 378 896 q 417 919 410 904 q 414 946 424 933 q 386 957 403 960 q 363 939 369 954 m 69 364 q 78 342 69 349 q 97 335 86 335 q 116 342 107 335 q 125 363 125 349 q 124 375 125 367 q 123 392 124 383 q 122 410 122 401 q 119 421 121 418 q 116 447 117 429 q 115 484 115 464 q 116 522 115 504 q 117 549 117 540 q 127 594 119 572 q 142 638 135 615 q 170 708 153 674 q 211 771 188 742 q 231 794 217 779 q 260 824 244 808 q 292 851 276 839 q 315 868 307 864 q 328 874 318 869 q 340 881 338 878 q 349 912 356 893 q 324 931 343 931 q 306 925 318 931 q 290 917 294 919 q 242 881 264 901 q 197 839 221 860 q 174 814 185 828 q 153 785 164 800 q 106 698 125 744 q 72 603 86 651 q 63 558 65 581 q 60 511 61 535 q 59 492 60 506 q 59 462 58 478 q 60 432 60 446 q 64 413 61 418 q 69 364 69 392 m 528 165 q 633 165 581 160 q 738 182 686 169 q 699 199 718 189 q 667 224 681 208 q 639 269 650 242 q 573 246 607 254 q 504 242 539 238 q 438 260 469 246 q 383 299 407 275 q 342 353 358 322 q 321 418 325 383 q 323 540 313 478 q 364 654 333 601 q 410 712 383 686 q 468 753 436 738 q 560 776 510 772 q 656 769 610 781 q 710 749 683 763 q 756 717 736 736 q 774 695 767 707 q 786 671 781 683 q 790 652 788 665 q 796 624 793 639 q 801 596 799 610 q 803 576 803 582 q 804 532 806 554 q 814 490 803 510 q 818 482 815 488 q 825 475 821 476 q 830 473 826 474 q 835 474 833 472 q 839 477 836 475 q 843 479 842 479 q 853 504 849 488 q 859 540 857 521 q 862 578 861 560 q 863 606 863 596 q 857 661 861 633 q 842 714 853 689 q 811 763 831 740 q 765 797 792 785 q 646 835 710 825 q 521 833 582 844 q 392 769 447 818 q 318 669 346 728 q 278 551 290 614 q 269 426 265 489 q 280 363 272 394 q 303 304 288 332 q 331 263 314 282 q 368 228 349 243 q 444 186 403 201 q 528 165 485 171 m 554 411 q 585 421 569 407 q 608 449 600 435 q 633 513 626 478 q 632 582 639 549 q 626 601 629 592 q 615 618 622 611 q 576 627 599 638 q 539 594 553 617 q 517 533 524 567 q 517 468 511 500 q 528 433 519 451 q 554 411 538 415 z "},"A":{"ha":886,"x_min":10,"x_max":876,"o":"m 863 49 q 841 12 857 28 q 803 -14 825 -4 q 758 -28 782 -24 q 711 -29 733 -32 q 669 -20 690 -26 q 631 1 647 -14 q 608 31 617 14 q 592 65 599 47 q 576 121 582 93 q 561 176 569 149 q 441 168 501 165 q 319 172 381 171 q 307 120 313 146 q 293 69 301 94 q 278 31 286 50 q 256 -1 271 13 q 221 -18 240 -14 q 182 -22 201 -22 q 140 -21 161 -21 q 100 -14 119 -21 q 67 6 82 -7 q 40 33 51 18 q 21 73 28 51 q 11 117 14 94 q 14 165 10 140 q 24 214 18 190 q 64 367 40 292 q 113 519 88 443 q 167 678 139 599 q 226 835 194 757 q 262 905 242 871 q 311 964 282 939 q 400 1007 350 999 q 461 1012 429 1011 q 521 1001 493 1013 q 565 976 544 992 q 600 942 585 961 q 636 888 621 917 q 664 828 651 858 q 724 672 697 750 q 779 513 751 593 q 829 354 806 433 q 868 192 853 275 q 875 104 876 144 q 869 76 874 97 q 863 49 865 54 m 315 903 q 328 879 315 888 q 356 878 342 871 q 373 901 371 885 q 363 928 375 917 q 331 930 347 939 q 315 903 315 921 m 79 267 q 85 249 79 256 q 101 240 92 242 q 119 241 110 238 q 132 254 128 244 q 135 265 133 257 q 139 283 138 274 q 142 299 140 292 q 143 311 143 307 q 161 382 150 350 q 167 399 163 386 q 175 426 171 411 q 183 453 179 440 q 189 469 188 465 q 231 590 208 531 q 276 710 253 650 q 283 729 278 715 q 294 758 289 743 q 306 787 300 774 q 317 804 313 800 q 323 824 325 814 q 314 842 321 835 q 297 851 307 849 q 276 844 286 853 q 263 824 271 840 q 253 800 256 807 q 180 610 217 704 q 114 417 143 515 q 107 394 113 413 q 99 372 101 376 q 92 338 94 356 q 86 304 89 321 q 81 285 83 294 q 79 267 79 276 m 393 517 q 376 440 382 479 q 367 363 369 401 q 442 365 404 363 q 517 369 479 367 q 505 444 511 407 q 488 518 499 482 q 481 540 485 526 q 470 567 476 554 q 457 592 464 581 q 442 607 450 603 q 433 603 438 610 q 426 594 429 597 q 407 557 414 578 q 393 517 400 536 z "},"B":{"ha":860,"x_min":47,"x_max":831,"o":"m 560 -21 q 391 -47 478 -44 q 221 -31 304 -49 q 167 -15 193 -25 q 118 13 140 -6 q 97 33 107 22 q 81 60 86 44 q 67 124 71 88 q 55 235 58 179 q 50 347 51 290 q 47 535 47 442 q 58 722 47 629 q 74 819 64 771 q 111 907 85 867 q 150 944 124 926 q 208 981 178 964 q 272 1011 239 999 q 416 1043 340 1036 q 564 1036 492 1050 q 656 1007 611 1026 q 738 956 701 988 q 812 840 793 906 q 816 710 831 775 q 757 592 801 646 q 643 510 713 538 q 702 479 674 497 q 754 438 731 461 q 810 342 793 394 q 822 235 826 289 q 790 133 817 182 q 717 51 764 85 q 642 8 682 26 q 560 -21 601 -10 m 261 900 q 291 904 278 893 q 301 932 304 915 q 276 954 296 951 q 249 939 257 957 q 247 917 243 928 q 261 900 250 906 m 101 194 q 128 185 113 183 q 149 200 143 186 q 152 226 154 213 q 147 251 150 239 q 140 370 140 311 q 144 490 140 429 q 145 503 144 493 q 146 525 146 514 q 147 547 146 536 q 147 560 147 557 q 150 593 147 568 q 156 645 153 618 q 162 697 158 672 q 167 729 165 721 q 176 773 171 751 q 190 815 182 794 q 197 829 193 819 q 207 842 201 839 q 222 868 222 850 q 206 894 222 886 q 174 890 188 901 q 133 821 146 861 q 113 740 119 781 q 108 703 111 731 q 101 644 104 675 q 94 585 97 613 q 90 547 90 557 q 86 374 86 461 q 88 301 86 338 q 96 229 89 265 q 97 211 97 221 q 101 194 96 201 m 375 617 q 434 613 404 613 q 492 626 464 614 q 525 653 513 635 q 545 693 539 671 q 550 738 551 715 q 539 780 549 760 q 513 815 529 800 q 477 832 496 829 q 441 828 458 835 q 410 806 424 821 q 392 769 397 790 q 381 694 383 732 q 375 617 378 656 m 376 201 q 401 181 386 188 q 433 176 417 175 q 467 182 450 176 q 500 197 485 188 q 520 214 511 204 q 535 235 529 224 q 551 304 550 267 q 543 375 553 342 q 524 417 536 396 q 493 449 513 438 q 430 468 465 465 q 363 465 394 471 q 360 350 360 407 q 365 235 360 293 q 369 217 367 226 q 376 201 371 208 z "},"C":{"ha":825,"x_min":33,"x_max":796,"o":"m 457 -10 q 296 10 375 -15 q 154 88 217 35 q 75 189 101 131 q 49 272 56 229 q 39 357 42 314 q 36 541 33 449 q 63 722 39 633 q 127 860 82 797 q 238 964 172 924 q 382 1015 304 1007 q 510 1015 446 1021 q 632 983 574 1008 q 694 946 665 968 q 744 894 724 924 q 778 828 765 864 q 793 756 790 792 q 792 694 796 725 q 774 636 788 664 q 756 609 767 622 q 732 588 746 596 q 710 577 722 581 q 688 571 699 574 q 648 568 671 568 q 603 572 625 568 q 563 584 581 575 q 536 608 544 593 q 524 637 529 622 q 511 665 518 651 q 468 699 497 693 q 411 692 439 706 q 382 667 393 685 q 365 629 371 649 q 353 567 357 599 q 346 504 349 536 q 346 465 346 492 q 347 408 346 438 q 352 353 349 379 q 361 315 356 328 q 398 279 374 292 q 451 272 422 267 q 476 280 464 275 q 496 296 489 285 q 513 349 511 319 q 521 406 514 378 q 538 433 525 421 q 564 453 550 444 q 631 474 593 469 q 699 463 668 478 q 738 434 719 451 q 765 394 757 417 q 776 337 775 367 q 774 279 778 307 q 744 176 767 226 q 685 86 721 125 q 581 18 642 42 q 457 -10 519 -6 m 372 929 q 403 933 389 922 q 413 961 417 943 q 394 982 410 976 q 367 976 379 988 q 357 951 356 967 q 372 929 358 936 m 88 364 q 105 346 93 350 q 126 346 117 342 q 142 360 136 350 q 140 383 147 369 q 136 401 138 389 q 135 428 135 414 q 135 456 135 443 q 135 475 135 468 q 142 601 135 538 q 172 725 150 665 q 190 769 182 747 q 213 811 199 792 q 221 822 215 814 q 233 840 226 831 q 246 856 240 849 q 254 865 251 863 q 276 886 265 876 q 300 903 286 896 q 315 928 315 911 q 300 953 315 946 q 284 955 293 957 q 268 950 275 953 q 256 941 264 947 q 238 926 247 935 q 222 911 229 918 q 211 900 214 904 q 204 891 207 896 q 197 882 201 886 q 142 797 164 840 q 134 780 139 793 q 124 753 129 767 q 115 726 119 739 q 108 708 110 713 q 90 620 94 665 q 82 531 85 575 q 80 496 81 519 q 79 446 79 472 q 81 397 79 419 q 88 364 83 374 z "},"D":{"ha":933,"x_min":47,"x_max":918,"o":"m 583 13 q 480 -15 533 -7 q 372 -24 426 -24 q 282 -19 328 -24 q 192 -1 236 -14 q 150 15 171 6 q 111 39 129 24 q 77 90 88 58 q 63 153 67 122 q 51 289 53 221 q 47 425 49 357 q 49 601 47 513 q 67 776 50 689 q 77 827 71 801 q 93 876 83 853 q 108 903 100 890 q 128 928 117 917 q 166 957 146 944 q 207 981 186 969 q 376 1037 285 1022 q 554 1036 467 1051 q 617 1022 586 1031 q 676 997 649 1013 q 740 954 710 979 q 793 900 769 929 q 872 765 843 840 q 907 611 900 689 q 887 381 918 497 q 786 172 856 264 q 695 79 747 121 q 583 13 643 38 m 163 907 q 180 887 165 892 q 207 892 194 882 q 219 922 222 903 q 197 944 215 940 q 170 935 182 947 q 163 907 158 922 m 93 319 q 105 301 96 307 q 124 297 114 296 q 141 306 133 299 q 149 325 149 313 q 147 337 149 328 q 144 356 146 346 q 142 376 143 367 q 140 388 140 385 q 136 490 133 439 q 139 594 139 542 q 140 638 139 617 q 143 682 142 660 q 145 703 143 688 q 150 735 147 718 q 156 768 153 753 q 160 789 158 783 q 164 802 161 796 q 169 814 167 808 q 171 833 174 824 q 161 849 168 843 q 144 855 154 854 q 126 849 135 856 q 117 836 122 844 q 110 817 113 828 q 104 797 107 807 q 101 781 101 786 q 91 708 97 744 q 83 635 85 672 q 79 499 81 567 q 88 363 78 431 q 90 341 89 358 q 93 319 92 324 m 364 274 q 382 220 367 246 q 425 193 397 194 q 491 210 458 192 q 543 256 524 228 q 588 346 572 296 q 610 444 603 396 q 617 576 619 510 q 594 704 614 642 q 576 751 588 728 q 547 793 564 774 q 523 812 538 803 q 492 826 508 821 q 459 831 475 831 q 431 824 443 831 q 406 803 417 817 q 393 775 396 790 q 358 526 361 653 q 364 274 354 400 z "},"E":{"ha":733,"x_min":42,"x_max":713,"o":"m 446 -21 q 323 -19 385 -24 q 203 1 261 -15 q 119 51 151 15 q 90 97 101 72 q 72 149 79 122 q 49 292 53 219 q 43 438 46 364 q 44 541 42 490 q 51 644 47 592 q 66 759 57 703 q 92 871 75 815 q 112 917 99 894 q 144 956 125 940 q 206 982 172 975 q 271 992 239 989 q 388 991 329 996 q 504 976 446 986 q 586 958 544 969 q 661 921 628 946 q 684 898 674 911 q 699 869 694 885 q 695 781 713 826 q 638 717 678 735 q 602 710 621 710 q 565 714 583 710 q 507 724 536 719 q 447 732 478 729 q 404 726 424 735 q 392 709 397 724 q 383 688 386 694 q 378 655 381 676 q 382 624 376 633 q 395 614 385 617 q 413 611 406 611 q 504 617 458 611 q 594 613 550 624 q 612 605 601 610 q 625 594 622 600 q 640 549 636 574 q 642 501 643 525 q 635 460 640 481 q 615 424 631 439 q 578 402 600 408 q 536 394 557 396 q 471 394 504 393 q 406 390 438 394 q 388 386 400 389 q 374 379 376 383 q 367 366 369 375 q 363 347 364 357 q 360 326 361 336 q 360 311 360 317 q 365 282 361 300 q 376 257 369 264 q 382 254 378 256 q 388 253 386 253 q 423 246 399 247 q 474 246 447 244 q 526 249 501 247 q 564 251 551 251 q 608 248 586 253 q 649 231 631 243 q 690 181 676 210 q 701 120 703 151 q 684 60 700 89 q 639 14 668 32 q 546 -16 597 -12 q 446 -21 494 -19 m 158 929 q 156 906 151 917 q 171 890 161 894 q 191 888 181 885 q 208 903 201 890 q 210 926 214 915 q 196 942 206 938 q 175 944 186 947 q 158 929 164 942 m 103 335 q 116 316 106 321 q 137 313 126 311 q 154 324 147 315 q 158 346 161 332 q 144 458 146 401 q 143 572 143 515 q 146 634 143 604 q 151 694 149 664 q 153 722 151 703 q 158 761 156 740 q 165 801 161 782 q 172 828 168 819 q 174 847 176 838 q 164 861 171 856 q 147 867 157 867 q 129 861 138 868 q 117 840 122 856 q 113 824 115 836 q 108 799 111 813 q 103 774 106 786 q 101 758 101 763 q 92 665 97 711 q 88 572 88 619 q 88 499 88 536 q 90 426 88 463 q 92 409 90 422 q 97 381 94 396 q 100 352 99 365 q 103 335 101 339 z "},"F":{"ha":792,"x_min":42,"x_max":782,"o":"m 353 35 q 297 0 329 11 q 231 -10 265 -11 q 165 6 197 -8 q 111 46 133 19 q 85 101 92 69 q 72 164 78 132 q 63 247 65 206 q 57 332 60 289 q 46 526 50 429 q 49 719 42 622 q 60 806 51 763 q 89 886 68 849 q 128 940 106 915 q 179 982 151 965 q 244 1011 210 1001 q 315 1024 279 1021 q 407 1024 361 1026 q 499 1015 453 1021 q 584 1007 542 1011 q 668 992 626 1003 q 722 968 696 985 q 764 928 749 951 q 778 895 775 913 q 782 860 782 878 q 776 822 782 843 q 761 780 771 800 q 738 744 751 760 q 710 721 725 728 q 679 713 694 714 q 649 714 664 711 q 592 724 621 719 q 536 732 564 729 q 505 735 524 733 q 467 738 486 738 q 432 735 449 738 q 407 722 415 732 q 397 701 400 714 q 393 678 394 689 q 394 649 390 664 q 408 625 397 633 q 431 622 414 622 q 454 621 447 621 q 490 622 464 621 q 545 623 517 622 q 599 624 574 624 q 635 621 625 624 q 674 606 654 617 q 704 576 693 594 q 718 542 714 563 q 722 498 722 521 q 716 453 721 475 q 703 418 711 432 q 654 381 686 393 q 592 369 622 369 q 553 369 582 369 q 491 369 524 369 q 430 369 458 369 q 392 369 401 369 q 393 314 390 342 q 399 259 396 286 q 403 204 401 232 q 403 150 406 176 q 388 88 400 118 q 353 35 375 58 m 324 936 q 351 925 335 922 q 374 943 367 928 q 370 973 381 960 q 342 983 360 986 q 319 964 326 979 q 324 936 313 949 m 122 328 q 154 326 138 315 q 167 357 171 338 q 165 365 167 358 q 161 374 163 372 q 149 462 154 418 q 143 550 143 506 q 144 674 143 613 q 163 796 144 736 q 183 851 169 824 q 219 899 197 879 q 244 913 231 907 q 265 931 258 918 q 267 949 269 940 q 257 965 264 958 q 240 972 250 971 q 222 965 231 972 q 215 960 221 964 q 203 953 210 957 q 192 945 197 949 q 185 940 186 942 q 156 908 169 925 q 132 872 142 892 q 103 790 113 833 q 90 703 93 747 q 88 556 85 629 q 100 410 90 483 q 103 391 101 403 q 106 367 104 379 q 113 343 108 354 q 122 328 117 332 z "},"G":{"ha":856,"x_min":35,"x_max":842,"o":"m 568 13 q 378 -8 476 -19 q 197 56 279 4 q 121 119 156 82 q 68 203 86 157 q 49 260 57 231 q 39 322 42 290 q 35 439 35 381 q 38 556 35 497 q 47 655 40 606 q 69 751 54 704 q 143 882 93 822 q 260 978 193 942 q 313 1001 285 992 q 368 1014 340 1011 q 503 1013 435 1021 q 633 981 571 1004 q 712 940 674 965 q 769 878 750 915 q 779 840 778 861 q 776 795 781 818 q 763 752 772 772 q 742 718 754 732 q 657 678 710 681 q 581 690 618 678 q 504 707 543 703 q 458 705 481 710 q 415 688 435 700 q 383 655 396 675 q 363 613 369 635 q 344 487 343 551 q 353 360 344 422 q 356 337 354 349 q 361 314 357 325 q 391 283 368 296 q 433 271 414 269 q 467 277 450 271 q 494 297 485 283 q 505 316 501 306 q 511 338 508 326 q 483 340 497 338 q 457 351 468 343 q 434 381 442 363 q 426 421 426 400 q 428 463 425 442 q 440 500 432 483 q 454 519 446 511 q 472 535 463 528 q 508 555 489 547 q 547 567 528 563 q 624 576 585 574 q 701 572 663 578 q 729 567 715 569 q 756 560 743 565 q 804 519 785 544 q 833 462 824 493 q 839 401 842 431 q 821 348 836 372 q 776 310 806 324 q 745 183 772 246 q 672 76 718 121 q 623 39 650 54 q 568 13 596 24 m 279 918 q 307 908 290 904 q 328 929 324 913 q 324 952 331 942 q 306 965 317 963 q 276 952 286 969 q 279 918 265 935 m 83 357 q 113 360 99 350 q 124 389 126 371 q 122 392 122 389 q 121 490 122 440 q 129 588 119 539 q 147 669 136 629 q 174 749 158 710 q 182 765 175 754 q 197 788 189 776 q 212 810 204 800 q 224 825 219 821 q 236 839 231 832 q 250 850 242 846 q 265 866 263 856 q 264 886 268 876 q 251 901 260 896 q 229 901 242 906 q 194 876 211 896 q 186 866 192 874 q 174 850 181 858 q 160 834 167 842 q 153 824 154 826 q 115 750 128 790 q 90 669 101 710 q 77 609 83 639 q 68 547 71 579 q 67 516 68 539 q 67 467 67 493 q 67 417 67 440 q 67 386 67 394 q 83 357 67 367 m 735 472 q 765 464 746 457 q 783 490 783 471 q 772 513 783 504 q 760 522 768 517 q 742 531 751 526 q 724 540 733 536 q 711 543 715 543 q 686 545 706 544 q 661 546 667 546 q 643 540 650 546 q 634 525 636 533 q 635 508 632 517 q 649 493 639 499 q 673 490 656 490 q 697 489 690 490 q 717 483 704 489 q 735 472 731 478 z "},"H":{"ha":1069,"x_min":47,"x_max":1029,"o":"m 893 -1 q 838 -22 868 -18 q 778 -19 807 -26 q 723 5 749 -12 q 683 47 697 22 q 664 106 668 75 q 663 168 660 138 q 672 258 667 213 q 674 350 676 304 q 537 331 607 332 q 400 346 467 331 q 401 217 400 281 q 397 90 401 154 q 392 63 396 76 q 378 38 388 49 q 321 -3 354 11 q 251 -18 288 -17 q 181 -7 215 -19 q 121 31 147 6 q 90 73 101 49 q 71 122 78 97 q 52 246 54 183 q 50 371 50 308 q 49 482 50 426 q 49 593 47 538 q 55 704 50 649 q 71 814 60 760 q 94 885 79 850 q 133 949 110 921 q 192 995 158 978 q 261 1017 225 1013 q 334 1012 297 1021 q 401 981 371 1003 q 422 956 414 971 q 435 925 431 940 q 441 853 443 889 q 433 780 439 817 q 421 706 428 743 q 411 632 414 669 q 543 632 478 636 q 672 613 608 628 q 676 738 678 675 q 676 863 674 800 q 678 894 676 878 q 686 925 679 910 q 716 965 696 949 q 763 989 736 981 q 817 998 789 997 q 871 993 846 999 q 957 942 922 981 q 992 878 981 914 q 1010 806 1003 842 q 1028 554 1029 681 q 1013 301 1028 428 q 994 210 1006 256 q 965 121 982 165 q 951 85 958 103 q 935 53 944 68 q 917 24 928 38 q 893 -1 907 10 m 714 749 q 727 735 718 738 q 745 734 736 732 q 760 744 754 736 q 767 763 767 751 q 764 815 765 789 q 769 864 763 840 q 778 888 772 872 q 793 907 785 903 q 808 931 808 914 q 793 957 808 949 q 763 954 778 964 q 739 932 749 944 q 713 863 718 901 q 710 788 707 824 q 710 767 710 782 q 714 749 711 753 m 151 908 q 153 881 144 893 q 178 868 163 868 q 200 879 192 868 q 206 904 208 890 q 181 925 200 924 q 151 908 161 926 m 107 315 q 119 297 110 301 q 140 294 129 292 q 157 306 150 297 q 163 328 164 314 q 160 340 163 331 q 157 362 158 350 q 154 383 156 374 q 153 396 153 393 q 144 535 144 465 q 151 675 144 604 q 159 741 154 708 q 171 806 164 774 q 169 825 174 817 q 156 838 164 833 q 138 840 147 842 q 122 829 129 838 q 114 806 118 824 q 108 782 110 789 q 104 752 107 775 q 99 703 101 729 q 94 656 96 678 q 90 625 92 633 q 90 600 90 618 q 89 562 89 582 q 90 523 89 542 q 90 499 90 504 q 92 463 90 489 q 97 407 94 436 q 101 351 99 378 q 107 315 104 325 z "},"I":{"ha":486,"x_min":44,"x_max":439,"o":"m 363 47 q 306 3 339 18 q 240 -10 274 -11 q 172 5 206 -10 q 113 47 138 19 q 85 111 96 67 q 69 206 75 156 q 60 304 63 257 q 56 378 57 351 q 48 519 51 449 q 46 661 44 590 q 50 756 47 708 q 64 850 53 803 q 81 898 71 874 q 107 942 90 922 q 148 979 124 963 q 199 1003 172 996 q 268 1008 233 1011 q 333 990 303 1004 q 385 949 363 975 q 417 890 407 924 q 429 820 426 856 q 433 749 432 785 q 438 476 439 611 q 418 204 436 340 q 401 122 413 164 q 363 47 389 79 m 178 918 q 208 921 194 910 q 218 949 222 932 q 200 969 215 964 q 174 964 185 975 q 163 940 161 954 q 178 918 164 925 m 97 356 q 110 336 100 342 q 131 333 121 331 q 149 343 142 335 q 153 365 156 351 q 147 416 150 379 q 142 494 144 453 q 138 572 140 535 q 136 622 136 608 q 137 733 135 678 q 153 843 139 789 q 159 856 156 850 q 165 867 163 861 q 160 900 174 886 q 126 906 146 914 q 113 891 119 901 q 103 867 107 881 q 95 840 99 853 q 90 818 92 826 q 87 791 89 811 q 83 749 85 771 q 81 708 82 728 q 79 681 79 688 q 81 633 79 668 q 83 558 82 597 q 87 483 85 518 q 90 435 89 447 q 91 419 90 431 q 93 394 92 407 q 95 371 94 382 q 97 356 96 360 z "},"J":{"ha":768,"x_min":0,"x_max":731,"o":"m 415 6 q 310 -6 363 -3 q 206 0 257 -8 q 140 16 172 6 q 79 44 107 26 q 48 68 63 56 q 24 97 33 81 q 1 188 0 138 q 28 281 3 238 q 67 326 43 306 q 121 349 92 346 q 200 346 160 354 q 281 340 240 338 q 314 348 297 342 q 340 368 331 354 q 360 423 356 393 q 364 482 364 453 q 352 624 363 553 q 342 765 342 694 q 351 862 342 814 q 389 949 361 910 q 424 989 406 974 q 501 1023 458 1014 q 586 1024 544 1032 q 651 994 625 1017 q 681 961 669 981 q 700 921 693 942 q 722 821 717 872 q 729 718 728 769 q 726 587 731 651 q 717 457 722 522 q 699 322 711 389 q 658 194 686 256 q 567 71 626 122 q 495 29 535 46 q 415 6 456 13 m 467 929 q 492 919 476 917 q 515 936 508 921 q 511 965 522 951 q 483 975 500 979 q 462 957 468 972 q 467 929 456 942 m 396 413 q 394 381 383 397 q 424 368 404 364 q 448 392 440 371 q 457 432 456 414 q 459 508 460 469 q 454 583 458 546 q 444 674 450 629 q 439 765 439 719 q 444 809 440 788 q 453 851 447 831 q 458 875 461 863 q 443 894 456 888 q 419 895 429 900 q 403 878 410 890 q 393 849 397 865 q 388 818 389 833 q 384 759 385 789 q 386 699 383 729 q 399 574 393 636 q 401 447 406 511 q 401 429 401 439 q 396 413 401 419 z "},"K":{"ha":981,"x_min":44,"x_max":957,"o":"m 833 -8 q 785 -11 810 -14 q 739 1 761 -8 q 695 31 715 13 q 658 71 675 50 q 546 224 597 144 q 432 374 494 303 q 426 270 429 321 q 413 168 422 219 q 399 117 407 142 q 376 68 390 92 q 329 17 360 39 q 264 -8 299 -4 q 176 4 218 -12 q 113 49 140 19 q 85 113 96 68 q 69 208 75 157 q 60 306 63 258 q 56 379 57 353 q 48 521 51 450 q 46 663 44 592 q 50 757 47 710 q 64 851 53 804 q 81 899 71 875 q 107 943 90 924 q 148 981 124 964 q 199 1004 172 997 q 268 1009 233 1013 q 333 991 303 1006 q 385 951 363 976 q 417 892 407 925 q 433 776 432 835 q 436 660 435 718 q 514 751 475 706 q 593 840 553 796 q 650 895 621 868 q 714 942 679 922 q 762 962 736 954 q 813 968 788 969 q 883 946 853 965 q 922 906 906 931 q 947 852 939 881 q 953 794 956 824 q 939 740 951 765 q 892 678 921 706 q 831 628 863 651 q 745 564 788 596 q 661 497 703 532 q 699 464 671 489 q 760 410 728 439 q 820 356 792 382 q 857 322 849 331 q 908 268 885 297 q 944 203 932 239 q 953 137 957 171 q 935 73 950 103 q 893 22 919 43 q 833 -8 867 0 m 151 936 q 147 906 140 922 q 172 890 154 890 q 197 901 188 890 q 201 925 206 911 q 181 947 199 942 q 151 936 163 951 m 667 858 q 665 838 661 847 q 678 822 669 828 q 697 818 686 817 q 714 829 707 819 q 769 879 735 857 q 774 880 772 881 q 776 881 775 879 q 798 894 792 883 q 803 915 804 904 q 792 932 801 925 q 768 935 783 939 q 757 933 763 933 q 746 929 751 932 q 733 922 743 928 q 719 913 722 915 q 708 903 715 910 q 692 888 700 896 q 676 871 683 879 q 667 858 669 863 m 99 354 q 114 340 104 343 q 133 339 124 336 q 149 350 143 342 q 151 371 154 358 q 141 451 146 396 q 134 569 136 507 q 133 688 132 632 q 138 768 133 743 q 142 797 140 783 q 149 825 144 810 q 151 838 149 828 q 154 850 154 847 q 135 876 154 869 q 106 867 117 882 q 97 849 101 863 q 92 829 93 835 q 78 722 79 776 q 78 614 78 668 q 79 571 78 603 q 83 503 81 539 q 88 435 85 467 q 92 393 90 404 q 94 373 92 388 q 99 354 96 358 z "},"L":{"ha":696,"x_min":43,"x_max":701,"o":"m 635 35 q 499 -15 571 3 q 354 -29 426 -32 q 258 -14 306 -26 q 169 26 210 -1 q 110 94 133 53 q 79 179 86 135 q 67 281 71 231 q 58 382 63 332 q 46 640 50 511 q 47 766 43 703 q 71 888 50 829 q 103 943 82 918 q 151 984 124 968 q 210 1007 178 1000 q 275 1008 242 1014 q 364 971 326 1001 q 402 922 388 951 q 421 861 417 892 q 430 763 428 813 q 432 665 432 714 q 433 529 433 597 q 429 393 432 461 q 426 346 428 369 q 429 299 425 322 q 440 268 432 283 q 464 246 449 253 q 528 239 494 235 q 593 250 561 243 q 627 253 608 254 q 658 242 646 253 q 692 191 682 221 q 698 131 701 161 q 678 75 694 101 q 635 35 663 49 m 114 897 q 137 883 121 883 q 164 894 153 882 q 167 923 175 908 q 142 939 160 938 q 116 926 125 940 q 114 897 107 913 m 106 374 q 124 367 114 367 q 140 374 133 368 q 150 388 147 379 q 149 407 153 397 q 144 431 146 413 q 142 454 142 449 q 134 560 136 507 q 132 667 132 614 q 132 688 132 672 q 132 723 132 704 q 133 758 132 742 q 133 779 133 774 q 135 792 133 783 q 138 810 136 800 q 140 828 139 819 q 140 840 140 838 q 130 857 138 851 q 113 863 122 863 q 96 857 104 863 q 86 840 88 851 q 83 829 85 838 q 81 811 82 821 q 79 792 81 801 q 78 781 78 783 q 77 748 78 772 q 76 697 76 724 q 76 646 76 669 q 76 614 76 622 q 78 570 76 601 q 81 504 79 539 q 86 438 83 469 q 93 394 89 407 q 106 374 97 382 z "},"M":{"ha":1321,"x_min":44,"x_max":1278,"o":"m 1232 96 q 1205 40 1224 64 q 1160 3 1186 17 q 1103 -15 1133 -11 q 1042 -11 1072 -19 q 1006 3 1024 -6 q 975 24 989 11 q 942 67 956 43 q 919 115 928 90 q 901 207 906 160 q 892 301 896 254 q 844 228 868 265 q 794 156 821 192 q 765 115 779 135 q 732 78 750 96 q 703 60 719 67 q 667 53 686 54 q 631 57 649 53 q 599 71 613 61 q 559 113 583 81 q 509 181 535 144 q 460 253 483 218 q 428 303 438 288 q 415 176 424 240 q 375 60 407 113 q 319 6 353 24 q 249 -15 286 -12 q 176 -2 213 -17 q 113 44 139 13 q 85 108 96 64 q 69 203 75 153 q 60 301 63 253 q 56 374 57 349 q 48 515 51 444 q 46 657 44 586 q 51 771 47 714 q 74 881 54 828 q 97 925 83 904 q 131 961 111 946 q 203 999 161 986 q 282 1003 244 1011 q 396 947 344 989 q 451 886 428 921 q 494 814 475 851 q 581 615 543 717 q 661 411 618 513 q 737 606 701 508 q 819 799 772 704 q 860 872 839 836 q 914 936 882 908 q 975 979 942 961 q 1044 1003 1008 997 q 1106 1001 1075 1007 q 1163 978 1136 994 q 1211 940 1190 963 q 1243 889 1232 917 q 1265 800 1258 846 q 1274 707 1271 754 q 1273 523 1278 615 q 1263 338 1268 431 q 1253 215 1260 276 q 1232 96 1247 154 m 903 869 q 899 848 896 858 q 911 833 903 838 q 930 828 919 828 q 949 838 940 828 q 953 847 951 842 q 958 856 956 851 q 1001 901 974 881 q 1011 907 1004 904 q 1021 908 1018 910 q 1051 921 1040 904 q 1049 953 1061 938 q 1031 963 1042 960 q 1011 964 1021 967 q 948 928 975 956 q 903 869 921 901 m 178 947 q 179 920 171 933 q 203 907 188 907 q 228 922 221 907 q 225 953 236 938 q 200 963 215 964 q 178 947 185 961 m 103 346 q 119 331 108 333 q 140 331 131 328 q 156 344 150 335 q 157 365 161 353 q 149 403 153 375 q 143 465 146 432 q 138 526 140 497 q 135 567 136 556 q 135 601 135 576 q 136 653 135 625 q 138 705 138 681 q 140 739 139 729 q 153 824 144 779 q 157 843 154 829 q 164 861 160 857 q 172 883 174 872 q 163 902 171 894 q 142 910 154 910 q 119 899 129 910 q 106 867 113 889 q 96 822 100 846 q 89 776 92 799 q 85 742 86 753 q 82 708 83 732 q 80 655 81 683 q 78 601 79 626 q 79 567 78 576 q 87 474 85 521 q 97 381 89 426 q 99 363 99 376 q 103 346 100 349 z "},"N":{"ha":1078,"x_min":42,"x_max":1031,"o":"m 951 47 q 875 1 918 10 q 787 2 832 -8 q 697 40 742 13 q 617 101 653 67 q 516 217 561 154 q 431 347 471 281 q 424 258 428 303 q 411 168 419 213 q 388 95 403 132 q 344 35 372 58 q 290 5 321 14 q 226 -1 258 -4 q 165 15 194 1 q 115 54 136 29 q 89 106 96 76 q 76 164 82 136 q 65 261 69 213 q 58 358 61 310 q 47 568 51 463 q 51 778 42 674 q 65 865 56 821 q 101 943 75 908 q 156 992 124 974 q 224 1016 189 1011 q 295 1013 260 1021 q 360 979 331 1004 q 423 916 394 951 q 475 843 451 881 q 557 699 519 772 q 640 554 594 625 q 638 724 638 639 q 667 888 639 808 q 739 983 686 949 q 810 1013 772 1006 q 885 1013 849 1021 q 951 983 921 1006 q 997 925 981 961 q 1018 853 1014 892 q 1029 700 1028 776 q 1028 546 1031 624 q 1024 382 1026 463 q 1011 219 1021 301 q 994 128 1007 175 q 951 47 982 82 m 686 743 q 710 728 693 728 q 736 743 728 728 q 739 758 739 750 q 738 774 739 767 q 750 869 735 824 q 756 883 753 876 q 763 896 760 889 q 765 917 768 907 q 753 932 761 926 q 734 936 744 938 q 715 925 724 935 q 702 901 707 914 q 693 874 697 888 q 683 821 686 847 q 683 767 681 794 q 683 754 683 760 q 686 743 683 749 m 164 915 q 160 886 153 901 q 185 871 168 871 q 209 883 200 871 q 211 911 218 896 q 189 926 204 925 q 164 915 174 928 m 110 301 q 124 283 114 288 q 143 280 133 278 q 159 291 153 282 q 164 314 165 300 q 160 334 161 325 q 156 354 158 343 q 151 406 154 368 q 147 485 149 443 q 143 565 144 528 q 142 615 142 603 q 146 735 142 676 q 149 755 147 742 q 154 782 151 768 q 160 808 157 796 q 168 825 164 819 q 174 842 174 833 q 169 858 174 850 q 156 869 164 865 q 138 869 147 872 q 119 854 124 867 q 101 797 108 826 q 92 736 93 767 q 88 703 90 719 q 86 669 86 686 q 88 595 86 647 q 92 485 89 543 q 99 374 94 426 q 110 301 103 322 z "},"O":{"ha":919,"x_min":26,"x_max":893,"o":"m 519 3 q 384 2 453 -7 q 254 40 315 11 q 168 101 207 64 q 101 182 129 138 q 46 323 63 247 q 28 475 29 399 q 43 650 26 563 q 103 813 60 738 q 167 896 129 857 q 250 961 204 935 q 412 1008 324 1001 q 583 1000 500 1015 q 678 968 632 990 q 760 911 724 946 q 821 832 796 876 q 861 740 846 788 q 889 583 885 664 q 886 422 893 501 q 863 298 881 360 q 811 183 844 236 q 755 115 788 147 q 685 60 722 83 q 606 23 649 36 q 519 3 564 10 m 310 892 q 342 888 325 881 q 356 917 360 897 q 333 940 353 936 q 315 938 322 943 q 303 925 307 933 q 300 908 299 917 q 310 892 301 899 m 114 290 q 131 284 122 283 q 148 290 140 285 q 159 302 156 294 q 158 319 163 310 q 138 419 142 369 q 135 458 136 431 q 134 515 135 485 q 133 572 133 546 q 136 610 133 599 q 150 674 142 642 q 172 736 158 706 q 183 759 175 744 q 201 789 192 774 q 221 817 211 804 q 238 835 231 831 q 256 849 246 842 q 268 867 265 856 q 256 896 272 886 q 224 894 239 906 q 206 881 219 892 q 190 868 193 871 q 162 830 175 849 q 138 792 149 811 q 88 653 101 728 q 76 507 74 579 q 81 434 79 471 q 89 361 83 397 q 92 344 90 354 q 98 323 94 333 q 106 303 101 313 q 114 290 110 294 m 365 318 q 399 297 381 306 q 438 289 418 289 q 492 301 467 289 q 532 332 514 313 q 563 374 550 351 q 599 478 590 421 q 596 589 607 536 q 577 652 590 621 q 544 707 564 683 q 497 743 524 731 q 438 751 469 756 q 399 738 418 749 q 364 714 379 728 q 324 661 340 692 q 300 599 308 631 q 289 512 289 557 q 300 425 289 467 q 326 366 310 394 q 365 318 342 338 z "},"P":{"ha":856,"x_min":47,"x_max":842,"o":"m 325 25 q 242 -9 289 -4 q 153 6 196 -14 q 112 31 131 15 q 83 69 93 47 q 76 93 78 81 q 71 117 74 106 q 63 213 64 165 q 64 308 63 260 q 60 486 64 399 q 52 638 57 563 q 51 790 47 714 q 53 810 51 796 q 55 842 54 825 q 57 873 56 858 q 60 893 58 888 q 67 916 63 904 q 79 939 72 928 q 120 975 96 961 q 171 1000 144 989 q 253 1022 211 1015 q 339 1032 296 1029 q 482 1033 410 1039 q 621 1003 554 1026 q 699 965 661 989 q 764 908 736 942 q 817 808 800 864 q 838 693 835 751 q 826 545 842 619 q 768 410 810 471 q 669 317 731 354 q 542 267 608 279 q 408 264 474 254 q 400 189 406 226 q 383 115 394 151 q 361 66 375 90 q 325 25 347 42 m 146 946 q 153 919 143 931 q 179 913 164 908 q 200 931 194 915 q 194 958 206 946 q 167 969 183 974 q 146 946 150 964 m 99 388 q 113 369 103 374 q 133 366 122 364 q 150 376 143 368 q 154 399 157 385 q 149 436 151 408 q 143 494 146 464 q 138 551 140 524 q 136 589 136 578 q 136 632 136 600 q 136 700 136 664 q 137 767 136 736 q 139 810 138 799 q 142 834 139 817 q 147 857 144 851 q 148 880 153 869 q 133 894 143 890 q 112 895 124 899 q 94 879 100 892 q 90 865 92 875 q 87 843 89 854 q 83 821 85 832 q 82 806 82 810 q 79 653 78 729 q 88 500 81 576 q 89 478 88 494 q 92 444 90 463 q 95 409 93 425 q 99 388 97 393 m 414 458 q 467 460 439 453 q 514 486 496 467 q 542 532 533 506 q 554 586 550 558 q 558 650 558 613 q 553 726 558 688 q 535 796 547 764 q 501 844 522 828 q 456 852 482 858 q 419 824 429 846 q 413 793 413 810 q 415 761 414 776 q 415 728 415 751 q 415 674 415 704 q 415 610 415 643 q 415 546 415 576 q 415 492 415 515 q 414 458 414 468 z "},"Q":{"ha":942,"x_min":25,"x_max":925,"o":"m 836 -139 q 781 -154 810 -150 q 724 -149 751 -158 q 693 -128 707 -142 q 671 -99 679 -114 q 641 -37 654 -68 q 615 26 628 -6 q 458 -3 540 -1 q 300 22 375 -4 q 238 50 268 33 q 181 89 207 67 q 117 158 144 119 q 72 242 90 197 q 39 353 49 294 q 28 469 29 411 q 42 643 25 556 q 100 806 58 731 q 151 879 122 844 q 215 939 179 914 q 304 985 256 968 q 401 1007 353 1001 q 528 1009 464 1014 q 650 981 592 1004 q 724 940 689 965 q 786 883 758 915 q 826 824 810 856 q 856 757 843 792 q 885 629 878 694 q 890 497 893 564 q 887 428 889 463 q 878 358 885 393 q 849 263 867 310 q 804 174 832 215 q 827 142 810 165 q 863 91 844 118 q 899 40 882 64 q 919 7 915 17 q 924 -18 925 -4 q 921 -44 924 -32 q 890 -101 914 -76 q 836 -139 865 -126 m 317 899 q 347 902 332 892 q 357 931 361 913 q 339 951 354 946 q 311 946 324 956 q 301 921 299 936 q 317 899 303 906 m 90 324 q 103 309 94 313 q 122 308 113 306 q 137 317 131 310 q 143 335 143 324 q 140 347 143 342 q 136 360 138 353 q 127 413 129 386 q 122 467 125 440 q 122 485 122 472 q 122 511 122 497 q 123 538 122 525 q 125 554 124 550 q 146 642 132 599 q 179 726 160 686 q 210 782 193 754 q 249 833 228 810 q 264 847 256 840 q 275 863 272 853 q 273 882 278 874 q 260 894 268 890 q 242 897 251 899 q 225 888 232 896 l 221 883 q 202 864 214 878 q 178 833 190 850 q 157 801 167 817 q 143 778 147 786 q 98 676 117 729 q 71 568 79 622 q 67 521 67 544 q 67 474 67 497 q 68 451 67 467 q 72 418 69 436 q 75 384 74 400 q 78 363 76 368 q 90 324 82 340 m 369 314 q 414 292 389 299 q 463 290 439 286 q 509 313 488 297 q 546 350 531 329 q 590 436 575 388 q 603 535 604 485 q 587 633 603 586 q 538 714 571 681 q 476 750 510 742 q 431 749 454 754 q 388 732 407 743 q 331 672 353 710 q 298 588 308 633 q 290 494 288 542 q 306 408 292 447 q 331 356 315 381 q 369 314 346 332 z "},"R":{"ha":868,"x_min":49,"x_max":850,"o":"m 324 10 q 247 -19 292 -15 q 163 -11 201 -22 q 123 5 142 -4 q 89 29 104 14 q 64 65 74 44 q 51 108 54 86 q 49 146 50 119 q 49 206 49 172 q 49 276 49 239 q 49 347 49 314 q 51 407 50 381 q 51 446 51 433 q 56 637 50 542 q 82 824 61 732 q 99 883 89 854 q 129 936 110 913 q 153 958 140 949 q 181 978 167 968 q 241 1007 208 996 q 306 1024 274 1018 q 482 1024 392 1039 q 650 967 572 1008 q 710 926 682 950 q 763 875 739 903 q 799 813 785 847 q 817 743 814 779 q 810 644 821 694 q 772 551 799 593 q 713 478 747 511 q 640 417 679 444 q 695 353 668 385 q 750 289 722 321 q 787 251 768 269 q 821 213 806 233 q 836 184 829 199 q 846 154 843 169 q 833 89 850 118 q 794 41 818 60 q 740 15 769 22 q 680 13 711 8 q 619 32 649 17 q 542 89 578 56 q 479 160 507 122 q 394 290 432 221 q 393 194 393 242 q 381 101 393 147 q 360 51 374 75 q 324 10 346 26 m 292 956 q 292 933 285 943 q 309 917 299 922 q 331 916 319 913 q 344 933 342 919 q 342 957 347 947 q 327 971 336 967 q 308 972 318 975 q 292 956 297 968 m 96 274 q 120 252 100 254 q 149 268 140 250 q 151 288 153 278 q 149 308 150 299 q 144 371 146 326 q 143 465 143 415 q 144 558 143 514 q 149 621 146 603 q 164 720 156 671 q 193 815 172 769 q 211 853 201 835 q 238 885 221 872 l 246 889 q 260 904 257 894 q 260 923 264 914 q 249 938 257 932 q 228 940 240 943 q 203 928 214 938 q 183 910 193 919 q 156 869 167 892 q 136 824 146 847 q 117 759 125 792 q 104 694 110 726 q 92 606 96 647 q 90 545 90 589 q 89 453 89 501 q 90 361 89 404 q 93 301 90 318 q 95 288 94 299 q 96 274 96 276 m 389 567 q 444 561 417 565 q 499 564 472 557 q 545 595 526 572 q 572 647 564 618 q 574 704 579 675 q 547 754 568 733 q 531 767 540 761 q 511 776 521 772 q 453 785 483 786 q 394 781 424 785 q 387 674 388 728 q 389 567 386 619 z "},"S":{"ha":801,"x_min":26,"x_max":779,"o":"m 436 -15 q 331 -15 383 -19 q 225 -3 278 -11 q 173 9 199 1 q 124 28 147 17 q 79 61 99 40 q 47 108 60 82 q 31 163 35 133 q 32 221 26 192 q 89 313 44 278 q 143 340 113 332 q 204 344 174 347 q 286 331 246 342 q 368 317 326 319 q 399 323 383 317 q 421 342 414 329 q 423 385 436 368 q 383 414 410 401 q 321 436 356 426 q 260 460 286 446 q 189 497 224 478 q 125 543 154 517 q 90 581 106 560 q 64 625 74 601 q 44 713 47 667 q 53 804 40 760 q 83 867 63 838 q 131 921 103 897 q 221 976 171 956 q 324 1008 271 997 q 509 1021 415 1028 q 690 982 603 1014 q 751 940 729 968 q 777 862 775 908 q 763 779 779 815 q 742 746 754 763 q 715 718 731 729 q 688 704 703 710 q 658 700 674 699 q 581 713 618 701 q 504 726 543 724 q 440 724 472 729 q 385 697 408 718 q 373 670 371 685 q 388 642 375 656 q 418 617 400 628 q 454 597 436 606 q 519 573 486 582 q 585 549 553 564 q 646 508 617 532 q 696 456 675 485 q 744 342 733 403 q 742 224 756 282 q 693 115 729 165 q 601 32 657 64 q 522 -1 564 10 q 436 -15 479 -12 m 240 915 q 255 903 246 906 q 272 904 264 901 q 286 915 281 907 q 292 933 292 922 q 285 951 292 944 q 270 960 279 958 q 252 958 261 963 q 238 944 243 954 q 240 915 231 931 m 228 514 q 247 513 238 510 q 261 522 256 515 q 267 539 267 529 q 261 557 268 549 q 250 566 257 563 q 236 574 243 569 q 206 592 221 582 q 181 618 192 603 q 160 648 169 633 q 143 679 150 663 q 135 714 136 696 q 135 751 133 732 q 139 774 136 757 q 144 796 142 790 q 161 825 151 811 q 182 850 171 839 q 196 868 193 861 q 197 891 201 881 q 182 906 192 901 q 162 907 172 910 q 146 892 151 904 q 133 879 143 889 q 121 867 124 869 q 83 778 92 829 q 85 681 74 726 q 105 631 92 654 q 135 588 118 608 q 141 578 138 583 q 147 569 144 574 q 163 557 151 565 q 186 540 174 549 q 210 524 199 531 q 228 514 222 517 z "},"T":{"ha":767,"x_min":-3,"x_max":771,"o":"m 406 -8 q 355 -8 382 -12 q 303 7 328 -4 q 260 35 279 18 q 233 75 242 51 q 222 117 226 96 q 214 161 217 139 q 203 253 207 207 q 196 347 199 300 q 185 542 189 444 q 188 738 181 639 q 108 738 149 736 q 35 764 67 740 q 10 796 18 776 q -1 838 1 815 q 1 882 -3 860 q 15 924 6 904 q 47 958 26 944 q 89 979 67 972 q 145 995 117 989 q 203 1006 174 1001 q 356 1018 279 1017 q 511 1011 433 1019 q 685 976 604 1003 q 722 961 704 969 q 750 936 740 953 q 768 878 765 908 q 762 820 771 847 q 733 772 753 793 q 682 740 713 750 q 627 729 654 732 q 572 725 600 726 q 576 535 575 629 q 571 344 578 440 q 563 250 568 297 q 546 157 557 203 q 531 103 539 129 q 507 54 522 78 q 463 13 492 29 q 406 -8 435 -3 m 601 925 q 620 924 611 921 q 635 933 629 926 q 640 950 640 940 q 633 968 640 960 q 616 978 626 976 q 596 982 606 981 q 532 992 564 986 q 468 992 500 999 q 447 968 449 988 q 463 940 444 949 q 474 938 468 938 q 486 939 481 938 q 536 936 511 942 q 585 928 561 931 q 593 927 589 926 q 601 925 597 928 m 235 703 q 257 697 246 694 q 274 707 268 699 q 281 727 281 715 q 269 747 281 739 q 247 753 258 756 q 230 742 236 750 q 224 722 224 733 q 235 703 224 711 m 247 265 q 275 249 256 247 q 299 271 294 251 q 296 297 300 278 q 292 324 292 317 q 288 345 290 329 q 284 379 286 361 q 280 413 282 397 q 278 435 278 429 q 274 538 275 486 q 276 642 274 589 q 269 665 278 657 q 251 674 261 674 q 231 666 240 674 q 221 643 222 658 q 219 587 218 615 q 219 531 219 558 q 220 506 219 524 q 222 467 221 488 q 224 429 222 447 q 226 404 225 411 q 230 376 228 396 q 234 333 232 356 q 240 292 236 311 q 247 265 243 272 z "},"U":{"ha":949,"x_min":40,"x_max":914,"o":"m 636 17 q 522 -10 582 -6 q 403 -7 461 -15 q 284 26 342 0 q 182 92 226 51 q 126 157 150 119 q 92 235 103 194 q 46 506 51 367 q 40 785 40 646 q 49 862 40 824 q 74 935 58 900 q 98 967 82 954 q 133 989 114 981 q 246 1013 188 1013 q 319 999 285 1015 q 365 961 346 986 q 390 907 385 936 q 394 781 400 844 q 381 656 388 718 q 378 468 369 558 q 381 435 379 456 q 388 394 383 415 q 400 356 393 374 q 418 329 407 338 q 467 310 439 314 q 519 317 496 306 q 553 352 542 326 q 571 410 565 378 q 576 475 576 442 q 575 533 576 508 q 573 572 575 544 q 569 635 571 600 q 564 710 567 671 q 558 785 561 750 q 553 849 556 821 q 551 888 551 876 q 563 942 549 918 q 599 983 576 965 q 652 1012 622 1001 q 713 1025 682 1022 q 794 1014 753 1029 q 864 971 836 999 q 888 934 879 956 q 900 892 896 913 q 913 753 913 822 q 911 614 914 683 q 894 444 906 528 q 860 278 883 361 q 812 167 844 219 q 735 76 779 115 q 636 17 689 38 m 613 733 q 624 716 615 721 q 644 713 633 711 q 661 722 654 714 q 667 743 668 731 q 660 791 664 767 q 654 839 656 815 q 654 885 653 863 q 663 929 656 907 q 669 946 669 938 q 665 962 669 954 q 653 973 661 969 q 636 975 646 976 q 613 953 618 971 q 599 839 594 900 q 600 818 599 833 q 603 786 601 803 q 608 754 606 769 q 613 733 611 739 m 93 904 q 109 878 93 886 q 139 882 125 871 q 151 906 150 892 q 140 928 151 919 q 110 931 126 939 q 93 904 93 922 m 124 292 q 154 288 139 281 q 169 314 169 296 q 167 328 169 318 q 163 349 165 338 q 157 372 160 361 q 154 386 154 382 q 151 403 153 390 q 146 432 149 417 q 140 461 143 447 q 138 479 138 475 q 133 540 135 497 q 128 633 131 583 q 126 725 126 682 q 129 786 126 768 q 126 806 131 797 q 114 818 122 814 q 97 820 106 822 q 81 810 88 818 q 76 798 78 806 q 72 781 74 790 q 70 763 71 772 q 69 750 69 754 q 76 551 69 650 q 104 356 83 453 q 111 322 107 344 q 124 292 115 299 z "},"V":{"ha":886,"x_min":10,"x_max":878,"o":"m 594 33 q 539 -8 571 8 q 472 -30 507 -25 q 401 -29 436 -35 q 336 -4 365 -24 q 278 53 303 19 q 236 125 253 88 q 160 316 194 219 q 94 511 126 413 q 53 649 72 581 q 19 789 33 718 q 12 849 14 818 q 21 908 10 881 q 46 958 29 935 q 86 994 63 982 q 130 1008 104 1004 q 181 1011 156 1013 q 231 1003 207 1010 q 271 982 256 996 q 295 940 283 969 q 316 878 307 911 q 331 813 325 844 q 340 764 338 781 q 361 649 351 706 q 383 535 371 592 q 395 481 389 507 q 413 431 401 456 q 423 410 415 424 q 438 393 431 396 q 447 389 442 389 q 472 407 463 393 q 495 466 488 435 q 510 529 503 497 q 525 653 521 592 q 540 776 529 714 q 562 856 549 817 q 597 932 575 896 q 676 989 624 975 q 749 993 711 997 q 817 969 786 989 q 857 932 840 956 q 876 881 874 908 q 872 833 878 864 q 858 763 867 801 q 838 683 849 725 q 815 603 826 642 q 794 535 804 565 q 779 488 785 504 q 731 340 756 413 q 679 193 707 267 q 644 108 664 150 q 594 33 624 67 m 592 790 q 617 791 606 783 q 631 814 628 799 q 638 840 632 825 q 653 867 644 854 q 672 892 661 881 q 693 906 682 903 q 700 907 694 906 q 707 910 706 908 q 722 925 719 915 q 722 944 725 935 q 709 958 718 953 q 688 961 700 964 q 652 946 668 957 q 622 921 636 935 q 615 910 619 918 q 605 894 610 903 q 596 879 600 886 q 590 868 592 872 q 583 847 586 858 q 578 824 579 835 q 579 803 576 813 q 592 790 582 794 m 47 914 q 51 888 44 900 q 74 876 58 876 q 97 888 89 876 q 101 914 104 900 q 74 936 96 936 q 47 914 53 936 m 225 283 q 244 282 235 279 q 258 292 253 285 q 265 308 264 299 q 258 325 265 317 q 249 349 256 331 q 239 372 242 367 q 231 392 236 378 q 219 424 225 407 q 208 457 214 442 q 201 478 203 472 q 197 488 200 481 q 191 505 194 496 q 185 522 188 514 q 182 532 182 529 q 173 561 179 539 q 159 608 167 583 q 144 656 151 633 q 135 686 138 678 q 126 712 129 699 q 118 739 122 725 q 101 808 108 771 q 99 825 101 814 q 68 840 89 844 q 46 813 47 835 q 48 795 46 807 q 53 769 50 783 q 59 744 56 756 q 64 726 63 732 q 73 694 69 711 q 83 663 76 678 q 89 647 85 658 q 97 622 93 635 q 105 597 101 608 q 110 581 108 585 q 124 535 113 568 q 147 465 135 503 q 172 394 160 428 q 188 350 183 361 q 197 330 192 339 q 204 311 201 321 q 212 294 207 303 q 225 283 217 286 z "},"W":{"ha":1192,"x_min":35,"x_max":1157,"o":"m 313 -3 q 260 -6 288 -8 q 206 6 232 -3 q 160 32 181 15 q 132 72 140 49 q 113 133 121 103 q 99 196 106 164 q 78 319 88 258 q 61 443 69 381 q 42 596 50 519 q 38 750 35 672 q 43 833 39 790 q 67 911 47 875 q 114 970 85 946 q 178 1005 143 994 q 252 1011 214 1015 q 324 986 290 1007 q 364 951 346 972 q 390 906 382 931 q 413 812 406 860 q 426 715 421 764 q 438 585 433 650 q 444 456 442 521 q 487 517 464 488 q 542 565 510 547 q 612 579 575 585 q 676 546 649 574 q 715 499 699 525 q 746 446 731 474 q 755 588 749 518 q 769 729 761 658 q 778 812 774 771 q 794 893 783 853 q 848 978 808 947 q 935 1017 888 1010 q 1032 1004 983 1024 q 1113 939 1081 985 q 1142 872 1133 908 q 1153 797 1150 835 q 1151 653 1157 725 q 1136 508 1144 581 q 1113 320 1125 414 q 1078 135 1100 226 q 1061 81 1071 107 q 1027 35 1050 54 q 976 8 1004 17 q 917 -2 947 -1 q 858 6 886 -3 q 834 15 846 10 q 811 31 822 21 q 738 113 768 67 q 669 201 707 160 q 653 216 663 208 q 631 230 643 224 q 608 238 619 236 q 586 238 596 240 q 557 222 571 232 q 532 201 543 213 q 482 143 504 174 q 438 81 460 113 q 381 26 414 49 q 313 -3 349 4 m 794 713 q 803 692 794 699 q 822 685 811 685 q 841 692 832 685 q 850 713 850 699 q 882 865 850 793 q 888 881 885 871 q 897 894 892 892 q 913 917 911 901 q 903 942 914 932 q 882 948 894 949 q 861 940 869 947 q 841 909 853 933 q 825 874 829 885 q 803 794 811 835 q 794 713 794 753 m 132 871 q 160 861 143 857 q 181 882 178 865 q 174 911 185 899 q 147 919 164 924 q 126 901 131 917 q 132 871 121 885 m 126 296 q 140 283 131 286 q 158 281 149 279 q 173 290 167 283 q 179 308 179 297 q 174 329 179 314 q 165 350 168 344 q 153 406 160 367 q 142 490 147 446 q 133 575 138 535 q 129 632 129 615 q 128 663 129 642 q 129 706 128 683 q 133 748 131 728 q 139 776 135 768 q 138 803 146 790 q 108 817 126 819 q 85 794 90 814 q 81 776 83 789 q 77 748 79 763 q 74 719 75 733 q 72 700 72 706 q 74 631 72 665 q 78 561 75 596 q 83 517 79 549 q 91 449 86 485 q 101 381 96 413 q 111 338 107 350 q 119 317 114 333 q 126 296 124 300 z "},"X":{"ha":853,"x_min":31,"x_max":835,"o":"m 692 4 q 613 -5 656 -10 q 540 25 569 0 q 478 88 507 54 q 421 158 449 122 q 367 95 394 126 q 308 36 340 64 q 215 -6 268 0 q 115 13 161 -11 q 80 38 96 24 q 53 71 64 51 q 40 101 46 86 q 33 132 35 117 q 42 211 31 172 q 72 286 54 250 q 126 388 97 339 q 185 486 154 438 q 105 614 143 549 q 44 751 67 679 q 35 785 39 768 q 33 818 32 801 q 47 884 35 851 q 81 940 58 917 q 122 973 99 960 q 169 992 144 986 q 224 995 196 999 q 276 981 251 992 q 312 960 296 972 q 343 932 328 947 q 384 883 365 908 q 422 832 403 858 q 481 908 450 871 q 554 969 513 946 q 616 991 582 985 q 682 990 650 997 q 735 972 710 986 q 779 938 760 958 q 821 865 807 907 q 826 782 835 822 q 806 714 819 746 q 775 650 792 682 q 719 557 749 601 q 657 468 689 513 q 699 394 679 431 q 739 318 719 357 q 776 231 760 276 q 789 136 792 185 q 760 55 786 90 q 692 4 735 19 m 157 961 q 146 941 146 953 q 153 921 146 929 q 171 910 160 913 q 193 917 182 908 q 204 937 204 925 q 197 957 204 949 q 179 967 190 965 q 157 961 168 969 m 175 572 q 194 556 182 558 q 216 560 207 554 q 228 578 225 567 q 222 603 232 590 q 217 613 221 606 q 208 629 213 621 q 199 645 203 638 q 193 656 194 653 q 188 668 190 663 q 183 679 186 674 q 156 731 169 706 q 136 785 143 757 q 133 832 132 810 q 139 856 142 843 q 125 874 136 868 q 96 872 110 881 q 79 846 82 863 q 83 769 75 808 q 110 699 92 731 q 122 676 113 693 q 135 653 132 658 q 142 637 136 649 q 154 612 147 625 q 167 588 161 599 q 175 572 172 576 z "},"Y":{"ha":961,"x_min":4,"x_max":964,"o":"m 579 11 q 495 -11 540 -8 q 408 -1 450 -14 q 363 17 385 6 q 322 47 340 29 q 298 87 307 64 q 285 133 289 110 q 276 196 278 164 q 274 260 274 228 q 275 298 274 269 q 278 359 276 326 q 281 420 279 392 q 283 458 282 449 q 237 475 260 465 q 193 499 214 485 q 77 613 125 542 q 13 763 29 683 q 6 819 7 790 q 8 875 4 847 q 15 906 11 890 q 28 936 19 922 q 48 963 36 951 q 74 985 60 975 q 129 1013 99 1003 q 190 1022 160 1022 q 247 1010 219 1021 q 294 975 275 999 q 322 924 304 963 q 360 844 340 886 q 400 765 381 801 q 433 719 419 729 q 453 708 442 713 q 475 707 464 704 q 522 734 501 714 q 557 776 542 754 q 613 858 588 817 q 664 943 639 900 q 699 981 676 965 q 751 1002 722 996 q 808 1008 779 1008 q 863 999 838 1007 q 918 964 897 988 q 956 886 949 931 q 954 795 964 842 q 922 704 944 749 q 868 626 899 660 q 765 533 821 575 q 647 460 710 492 q 661 302 657 381 q 658 144 665 224 q 655 111 657 128 q 647 78 653 94 q 620 39 639 56 q 579 11 601 22 m 97 965 q 108 937 94 947 q 138 933 121 926 q 153 958 153 940 q 139 985 154 976 q 113 985 126 990 q 97 965 100 979 m 663 840 q 676 826 667 829 q 694 824 685 822 q 709 833 703 826 q 715 851 715 840 q 725 872 719 860 q 738 894 731 883 q 752 915 744 906 q 768 926 760 924 q 787 940 782 929 q 789 960 792 950 q 777 976 786 969 q 754 981 768 983 q 735 972 744 978 q 719 960 726 967 q 689 924 703 947 q 678 906 685 917 q 667 882 672 894 q 660 858 663 869 q 663 840 658 847 m 183 543 q 201 537 192 536 q 218 543 211 538 q 228 558 225 549 q 226 576 231 567 q 215 590 224 581 q 197 608 207 599 q 178 625 188 617 q 167 638 169 633 q 156 651 161 644 q 144 665 150 658 q 90 788 101 719 q 88 807 89 794 q 86 833 86 819 q 87 858 86 846 q 90 875 88 869 q 84 907 99 893 q 51 911 69 921 q 35 889 38 904 q 33 799 25 844 q 56 708 40 753 q 66 687 58 703 q 78 667 74 671 q 110 619 94 643 q 149 576 126 594 q 166 560 158 569 q 183 543 174 550 z "},"Z":{"ha":764,"x_min":19,"x_max":740,"o":"m 597 -14 q 479 -31 539 -28 q 360 -32 419 -35 q 255 -24 307 -29 q 153 0 203 -19 q 99 24 125 10 q 54 61 74 39 q 28 143 25 96 q 43 215 29 179 q 76 282 57 250 q 156 404 114 344 q 240 523 197 464 q 324 642 282 582 q 401 765 365 703 q 224 732 317 736 q 153 733 189 731 q 86 751 118 736 q 58 769 71 758 q 38 796 44 781 q 26 888 19 838 q 60 975 33 939 q 103 1008 76 997 q 158 1022 131 1019 q 203 1026 172 1025 q 274 1027 235 1026 q 358 1028 314 1028 q 440 1027 401 1028 q 510 1026 479 1026 q 556 1024 542 1025 q 607 1014 582 1021 q 654 992 632 1007 q 683 968 669 981 q 707 939 697 956 q 732 844 729 896 q 731 806 732 825 q 724 769 731 788 q 706 727 717 747 q 685 686 696 707 q 543 464 621 571 q 394 246 465 357 q 470 260 425 254 q 560 265 515 265 q 644 254 604 264 q 704 221 683 244 q 733 165 726 196 q 734 105 740 135 q 709 49 728 75 q 660 8 690 24 q 629 -5 644 1 q 597 -14 614 -11 m 86 940 q 85 922 82 931 q 94 907 88 913 q 110 901 101 901 q 128 907 119 900 q 133 913 131 910 q 138 919 135 917 q 165 942 149 936 q 186 944 176 944 q 207 947 196 944 q 217 950 213 949 q 229 950 222 951 q 251 954 243 947 q 263 972 260 961 q 260 992 265 982 q 242 1006 256 1003 q 222 1006 236 1007 q 201 1003 207 1004 q 172 999 186 1000 q 144 993 158 999 q 110 972 126 986 q 86 940 94 958 m 431 717 q 465 714 447 703 q 478 746 482 725 q 465 763 475 757 q 444 767 456 769 q 422 745 426 763 q 431 717 417 728 m 200 408 q 198 376 188 393 q 228 364 208 360 q 249 379 242 367 q 263 403 256 392 q 297 457 278 433 q 319 488 303 464 q 354 537 336 511 q 389 586 372 563 q 411 617 406 610 q 420 629 414 619 q 429 642 426 639 q 438 674 446 656 q 408 692 429 693 q 393 685 397 689 q 381 671 389 681 q 365 649 374 661 q 349 627 357 638 q 339 613 342 617 q 333 603 338 610 q 324 590 329 597 q 313 576 318 582 q 307 568 308 569 q 288 540 296 554 q 269 513 281 526 q 242 474 254 493 q 217 436 229 456 q 209 422 213 429 q 200 408 206 415 z "},"[":{"ha":585,"x_min":54,"x_max":557,"o":"m 396 -12 q 315 -21 356 -19 q 235 -17 275 -22 q 181 -7 207 -14 q 131 15 154 0 q 100 46 108 29 q 74 131 81 83 q 62 235 64 183 q 57 340 60 288 q 58 563 54 453 q 71 785 61 674 q 78 845 74 815 q 86 904 82 875 q 93 942 89 924 q 106 981 97 961 q 113 990 107 983 q 121 1000 118 997 q 173 1027 144 1018 q 229 1040 201 1036 q 299 1046 264 1046 q 368 1043 333 1046 q 447 1033 408 1039 q 519 1007 486 1026 q 543 981 535 999 q 554 944 551 964 q 556 903 557 924 q 550 865 554 882 q 540 835 547 850 q 524 807 533 821 q 506 792 517 797 q 483 786 494 788 q 421 784 451 781 q 358 789 390 788 q 346 732 350 761 q 339 674 342 703 q 332 458 328 565 q 350 243 336 350 q 424 237 386 240 q 493 217 461 233 q 517 192 508 210 q 531 157 526 175 q 534 112 535 136 q 526 65 533 88 q 505 26 518 43 q 471 3 492 10 q 433 -7 451 -4 q 396 -12 415 -10 m 178 1001 q 167 984 168 994 q 169 965 165 974 q 181 952 172 957 q 200 950 189 947 q 222 968 214 953 q 214 1003 232 990 q 178 1001 196 1015 m 96 325 q 111 311 101 314 q 130 311 121 308 q 145 323 139 314 q 149 344 151 332 q 142 422 143 367 q 140 538 140 476 q 142 653 140 599 q 147 732 144 708 q 149 749 147 736 q 151 776 150 761 q 154 803 153 790 q 156 821 156 817 q 176 889 161 856 q 178 895 176 890 q 181 901 181 900 q 177 923 183 914 q 161 935 171 932 q 142 933 151 938 q 128 917 132 929 q 112 875 119 896 q 101 832 104 854 q 100 811 101 826 q 97 779 99 796 q 93 747 94 763 q 92 726 92 732 q 85 581 85 653 q 85 433 85 508 q 88 390 85 411 q 92 347 90 369 q 96 325 92 335 z "},"\\":{"ha":703,"x_min":15,"x_max":689,"o":"m 683 97 q 669 11 689 50 q 617 -51 650 -28 q 542 -78 585 -74 q 460 -58 500 -82 q 390 3 419 -35 q 338 82 361 42 q 236 286 282 182 q 150 497 190 390 q 87 656 118 576 q 32 818 56 735 q 20 878 25 847 q 21 939 15 908 q 36 992 24 967 q 68 1036 49 1017 q 135 1078 97 1067 q 211 1083 172 1089 q 285 1055 250 1076 q 346 999 321 1033 q 399 915 375 958 q 442 828 422 872 q 509 661 478 744 q 569 492 540 578 q 624 328 597 410 q 671 164 651 247 q 683 97 679 131 m 69 883 q 89 882 79 879 q 105 892 99 885 q 112 910 111 900 q 106 929 113 921 q 84 940 97 940 q 63 929 71 940 q 54 904 53 918 q 69 883 56 890 m 275 272 q 292 258 281 260 q 313 260 303 256 q 327 274 322 264 q 326 297 332 285 q 319 315 322 306 q 313 333 315 325 q 305 347 311 336 q 297 361 299 358 q 287 384 294 367 q 270 422 279 401 q 253 458 261 442 q 243 481 244 475 q 233 504 240 486 q 219 542 226 522 q 206 581 213 563 q 199 606 200 599 q 182 647 192 626 q 167 688 172 667 q 163 704 165 692 q 157 730 160 717 q 151 755 154 743 q 146 771 147 767 q 140 786 143 778 q 138 803 138 794 q 126 824 138 817 q 103 829 115 832 q 84 815 90 826 q 81 792 78 804 q 86 774 82 789 q 92 756 90 760 q 108 699 101 729 q 112 684 111 692 q 115 669 113 676 q 129 631 121 650 q 144 592 138 611 q 156 557 147 582 q 176 504 165 532 q 196 451 186 476 q 210 418 206 426 q 220 397 213 413 q 236 363 228 381 q 252 330 244 346 q 263 310 260 314 q 268 291 265 300 q 275 272 271 282 z "},"]":{"ha":585,"x_min":29,"x_max":536,"o":"m 339 -18 q 250 -20 294 -24 q 163 -8 206 -17 q 123 2 143 -4 q 88 19 103 8 q 64 51 72 31 q 53 93 56 71 q 52 138 50 115 q 61 179 54 161 q 97 219 72 206 q 165 238 129 235 q 235 243 200 240 q 253 492 250 367 q 238 739 257 617 q 233 764 235 751 q 226 789 231 776 q 160 784 193 788 q 94 788 126 781 q 60 810 74 792 q 43 838 49 822 q 35 869 38 854 q 30 909 31 888 q 33 951 29 931 q 45 987 36 971 q 71 1011 54 1003 q 117 1028 93 1022 q 164 1036 140 1033 q 244 1044 204 1042 q 324 1043 283 1046 q 375 1037 350 1040 q 424 1024 400 1033 q 456 1006 440 1017 q 479 981 471 996 q 490 948 485 971 q 499 899 494 925 q 506 850 503 874 q 511 817 510 826 q 528 328 536 572 q 524 258 526 301 q 517 169 522 214 q 500 84 511 124 q 469 26 489 44 q 408 -6 443 3 q 339 -18 374 -14 m 54 914 q 85 898 64 893 q 107 925 106 903 q 111 936 107 929 q 119 946 115 943 q 175 961 143 961 q 201 981 194 963 q 193 1011 208 999 q 178 1016 188 1015 q 158 1015 168 1017 q 138 1011 147 1014 q 121 1007 128 1008 q 94 995 107 1001 q 72 978 82 989 q 55 947 63 967 q 54 914 47 926 m 257 776 q 280 776 269 771 q 294 790 290 781 q 296 810 299 800 q 281 828 293 821 q 258 828 268 833 q 244 814 249 824 q 242 793 239 804 q 257 776 244 782 m 272 319 q 278 301 272 308 q 294 293 285 294 q 312 295 303 292 q 325 308 321 299 q 328 323 326 313 q 330 345 329 333 q 331 368 331 357 q 331 385 331 379 q 333 422 332 404 q 335 460 335 440 q 335 592 335 526 q 319 724 335 658 q 307 741 317 736 q 288 744 297 746 q 271 735 278 743 q 264 714 264 726 q 267 701 265 707 q 269 689 268 696 q 280 563 279 626 q 279 436 281 499 q 278 414 279 431 q 276 378 276 397 q 274 342 275 358 q 272 319 272 325 z "},"^":{"ha":646,"x_min":25,"x_max":615,"o":"m 578 461 q 538 444 560 450 q 493 441 515 439 q 451 452 471 443 q 419 478 432 461 q 397 528 410 492 q 373 606 385 564 q 351 685 361 647 q 336 739 342 722 q 307 654 321 697 q 275 571 293 611 q 247 514 263 542 q 207 465 231 486 q 154 446 185 446 q 107 453 131 446 q 65 472 83 460 q 35 501 46 483 q 26 543 25 519 q 40 606 29 578 q 102 742 68 676 q 172 874 136 808 q 209 930 189 903 q 257 976 229 957 q 358 1004 304 1008 q 453 960 413 1000 q 501 889 485 929 q 535 810 517 849 q 566 736 551 774 q 592 660 581 699 q 608 598 601 629 q 615 535 615 567 q 606 493 615 514 q 578 461 596 472 m 253 850 q 272 849 263 846 q 286 858 281 851 q 292 875 292 865 q 286 893 293 885 q 267 905 279 903 q 244 900 254 907 q 235 873 232 889 q 253 850 238 857 m 78 597 q 84 564 69 578 q 117 558 99 550 q 128 571 124 563 q 136 586 133 579 q 146 624 138 599 q 165 676 154 649 q 185 727 175 703 q 203 761 196 751 q 215 777 206 765 q 228 792 224 789 q 238 817 240 801 q 217 842 235 836 q 186 832 200 847 q 163 800 174 817 q 143 765 151 783 q 129 734 139 757 q 110 685 119 711 q 92 637 100 660 q 82 604 83 614 q 81 601 82 601 q 78 597 79 600 z "},"_":{"ha":728,"x_min":-72,"x_max":801,"o":"m 524 -285 q 402 -285 463 -285 q 281 -283 342 -285 q 224 -283 264 -283 q 142 -280 185 -282 q 60 -275 99 -278 q 6 -265 21 -272 q -33 -244 -18 -258 q -56 -208 -49 -229 q -67 -165 -64 -187 q -71 -108 -72 -137 q -56 -53 -69 -78 q -30 -20 -46 -35 q 6 -1 -14 -6 q 33 4 19 1 q 58 8 46 7 q 168 17 114 14 q 278 19 222 19 q 347 19 296 19 q 458 17 399 18 q 568 15 517 17 q 638 13 619 14 q 704 3 669 8 q 764 -22 739 -1 q 784 -51 776 -32 q 796 -92 792 -71 q 801 -136 800 -114 q 799 -174 801 -158 q 790 -205 796 -189 q 772 -232 783 -221 q 746 -253 761 -246 q 714 -265 731 -261 q 619 -281 667 -278 q 524 -285 572 -283 m 43 -89 q 59 -92 50 -92 q 75 -89 68 -92 q 117 -84 88 -85 q 181 -84 147 -83 q 244 -86 214 -85 q 288 -87 275 -87 q 308 -79 301 -87 q 315 -60 315 -71 q 308 -41 315 -50 q 286 -32 300 -32 q 224 -31 254 -32 q 163 -31 194 -31 q 118 -30 140 -31 q 74 -32 96 -29 q 69 -33 72 -32 q 64 -33 65 -35 q 42 -35 51 -29 q 28 -51 32 -42 q 28 -72 25 -61 q 43 -89 31 -83 m 367 -47 q 360 -64 360 -56 q 365 -80 361 -72 q 378 -91 369 -87 q 396 -92 386 -94 q 417 -68 415 -87 q 400 -39 418 -49 q 381 -37 390 -35 q 367 -47 372 -40 z "},"a":{"ha":889,"x_min":10,"x_max":876,"o":"m 796 -18 q 745 -28 772 -26 q 692 -26 718 -31 q 645 -8 667 -21 q 611 28 624 6 q 583 101 592 63 q 563 176 574 139 q 442 168 503 165 q 322 172 382 171 q 305 108 313 140 q 285 43 297 75 q 275 22 281 32 q 263 4 269 13 q 236 -13 251 -7 q 206 -21 221 -19 q 171 -22 188 -22 q 136 -21 154 -21 q 81 -4 106 -19 q 41 35 57 11 q 17 88 25 58 q 14 150 10 118 q 25 218 17 185 q 43 285 33 251 q 65 364 50 313 q 101 478 81 415 q 145 610 122 542 q 192 741 168 679 q 237 851 215 803 q 275 924 258 900 q 304 957 289 942 q 339 983 319 972 q 422 1010 375 1006 q 479 1010 450 1013 q 533 996 508 1008 q 594 950 568 979 q 629 901 614 928 q 657 847 644 875 q 725 676 694 763 q 785 503 756 590 q 833 349 810 426 q 869 192 856 271 q 876 113 876 153 q 860 36 875 72 q 834 3 853 17 q 796 -18 815 -11 m 318 903 q 331 879 318 888 q 357 878 343 871 q 374 901 372 885 q 364 928 376 917 q 333 930 349 939 q 318 903 318 921 m 82 260 q 106 238 86 240 q 133 254 125 236 q 136 263 136 258 q 138 272 136 267 q 147 324 144 297 q 161 375 150 350 q 167 396 163 381 q 178 428 172 411 q 188 461 183 446 q 194 482 193 476 q 221 559 208 521 q 249 635 233 597 q 262 668 253 643 q 282 721 271 693 q 303 773 293 749 q 318 806 313 797 q 323 825 324 815 q 317 842 322 835 q 302 851 311 849 q 283 849 293 853 q 270 834 276 844 q 258 811 264 824 q 247 786 251 799 q 240 767 243 774 q 179 606 208 686 q 124 443 150 525 q 105 384 114 414 q 90 324 96 354 q 88 310 90 319 q 85 292 86 301 q 82 273 83 282 q 82 260 81 264 m 406 551 q 381 459 389 507 q 368 363 372 411 q 443 365 406 363 q 518 369 481 367 q 508 433 514 401 q 494 497 503 465 q 481 541 488 519 q 464 582 475 563 q 452 602 458 593 q 436 604 446 611 q 419 581 425 594 q 406 551 413 567 z "},"b":{"ha":849,"x_min":42,"x_max":822,"o":"m 626 6 q 423 -44 531 -36 q 213 -31 315 -51 q 165 -17 189 -25 q 121 7 142 -8 q 97 26 108 15 q 79 50 86 36 q 62 115 68 69 q 51 213 56 161 q 45 311 47 264 q 43 381 43 358 q 42 524 42 453 q 47 669 42 596 q 59 768 51 718 q 83 865 67 818 q 108 908 93 889 q 142 943 122 928 q 188 973 165 958 q 236 999 211 988 q 365 1037 299 1025 q 499 1043 432 1049 q 607 1023 553 1039 q 706 975 661 1007 q 797 861 772 929 q 812 725 822 793 q 756 598 801 657 q 636 510 711 539 q 713 469 676 494 q 772 408 749 443 q 807 336 796 375 q 817 258 818 297 q 804 179 817 218 q 767 107 792 140 q 703 47 740 72 q 626 6 667 22 m 256 900 q 278 899 268 894 q 294 914 289 904 q 296 934 299 924 q 281 951 293 944 q 258 952 268 957 q 243 938 247 947 q 241 917 239 929 q 256 900 243 906 m 90 214 q 99 192 90 199 q 117 184 107 185 q 137 190 128 183 q 146 213 146 197 q 144 244 147 228 q 139 275 140 260 q 139 490 132 382 q 140 503 139 493 q 140 525 140 514 q 141 547 140 536 q 142 561 142 557 q 144 594 142 569 q 150 645 147 618 q 156 697 153 672 q 161 729 160 721 q 171 773 165 751 q 185 815 176 794 q 192 829 188 819 q 201 842 196 839 q 215 857 211 847 q 215 876 218 867 q 205 892 213 885 q 186 897 197 899 q 164 885 174 896 q 146 861 154 875 q 132 832 138 847 q 122 806 126 817 q 101 702 107 754 q 89 597 94 650 q 88 566 89 589 q 85 516 86 543 q 82 465 83 489 q 81 433 81 442 q 81 369 81 401 q 82 304 81 336 q 83 287 82 300 q 87 259 85 274 q 90 231 89 244 q 90 214 90 218 m 368 617 q 457 617 413 610 q 487 626 472 619 q 513 643 501 632 q 542 703 535 667 q 538 771 549 740 q 500 819 526 801 q 439 828 471 839 q 392 785 407 817 q 383 751 388 775 q 376 701 379 728 q 372 651 374 675 q 368 617 369 626 m 361 224 q 384 189 363 204 q 425 176 406 174 q 480 189 453 178 q 522 222 507 200 q 544 278 540 246 q 544 339 547 310 q 528 398 540 368 q 493 446 517 428 q 428 469 465 465 q 357 465 390 472 q 354 344 354 404 q 361 224 354 285 z "},"c":{"ha":817,"x_min":29,"x_max":792,"o":"m 592 24 q 474 -9 536 -3 q 350 -4 411 -15 q 256 23 301 4 q 171 71 211 42 q 124 113 146 90 q 85 164 101 136 q 53 233 65 196 q 38 310 42 271 q 35 339 36 317 q 33 386 33 361 q 31 433 32 411 q 31 464 31 456 q 36 605 29 535 q 64 743 43 675 q 99 822 76 783 q 151 893 121 860 q 216 953 181 926 q 292 994 251 979 q 360 1012 325 1007 q 431 1017 394 1017 q 536 1010 483 1018 q 638 979 589 1001 q 693 944 667 965 q 739 896 719 924 q 773 828 761 865 q 789 754 785 792 q 788 694 792 725 q 769 635 783 663 q 751 608 763 621 q 726 586 740 596 q 692 573 714 576 q 645 569 669 569 q 598 573 621 569 q 561 583 575 576 q 528 614 538 594 q 514 649 519 631 q 496 682 508 667 q 460 699 485 696 q 421 697 436 703 q 399 688 410 694 q 382 672 389 682 q 363 633 369 654 q 353 589 357 611 q 343 507 344 549 q 343 425 342 465 q 347 369 344 397 q 357 315 349 342 q 384 285 364 296 q 424 271 404 274 q 457 274 439 269 q 486 290 475 278 q 498 308 493 297 q 506 329 503 318 q 510 367 508 349 q 517 404 511 386 q 534 434 521 421 q 564 456 547 447 q 600 469 581 465 q 636 474 619 474 q 690 463 664 472 q 735 433 715 453 q 763 389 754 414 q 774 338 772 364 q 751 204 776 271 q 682 89 726 138 q 640 51 663 68 q 592 24 617 35 m 368 929 q 399 933 385 922 q 408 961 413 943 q 390 982 406 976 q 363 976 375 988 q 353 951 351 967 q 368 929 354 936 m 93 350 q 111 344 101 343 q 128 350 121 344 q 138 365 135 356 q 136 383 140 374 q 133 399 133 388 q 131 421 132 410 q 131 443 131 432 q 131 458 131 454 q 135 565 131 511 q 151 671 139 618 q 158 694 153 678 q 170 728 164 710 q 183 761 176 746 q 193 783 189 776 q 201 797 197 790 q 208 810 204 803 q 216 821 210 813 q 228 838 222 829 q 241 855 235 847 q 250 865 247 863 q 272 886 261 876 q 296 903 282 896 q 311 928 311 911 q 296 953 311 946 q 267 951 283 960 q 240 933 250 943 q 224 916 238 929 q 207 900 210 903 q 195 886 203 896 q 179 865 188 876 q 164 842 171 853 q 154 828 157 832 q 113 733 131 782 q 86 635 94 685 q 81 583 82 608 q 78 531 79 557 q 74 460 75 494 q 78 389 74 425 q 82 367 79 378 q 93 350 85 357 z "},"d":{"ha":928,"x_min":42,"x_max":911,"o":"m 417 -22 q 319 -22 368 -25 q 222 -10 269 -19 q 160 8 190 -3 q 106 39 131 19 q 85 62 94 49 q 71 90 75 75 q 55 165 60 126 q 47 240 50 203 q 43 341 44 290 q 42 443 42 392 q 42 572 42 508 q 50 700 43 636 q 63 791 54 746 q 89 879 71 836 q 119 926 99 904 q 158 956 138 943 q 200 981 179 969 q 333 1031 263 1015 q 474 1043 403 1046 q 580 1029 526 1040 q 681 992 633 1018 q 757 933 722 968 q 819 858 792 899 q 873 749 853 807 q 900 629 893 690 q 894 442 911 538 q 836 264 878 347 q 734 119 799 185 q 589 18 669 53 q 505 -10 549 0 q 417 -22 461 -19 m 171 888 q 194 886 183 881 q 210 902 206 892 q 213 924 215 913 q 197 942 210 935 q 174 942 185 947 q 159 927 164 938 q 156 905 154 917 q 171 888 158 893 m 88 319 q 100 301 90 306 q 120 298 110 296 q 138 308 131 300 q 142 331 144 317 q 138 357 140 338 q 134 397 136 376 q 131 438 132 418 q 129 464 129 457 q 130 497 129 472 q 131 550 131 522 q 133 603 132 578 q 133 636 133 628 q 139 694 135 665 q 147 750 143 722 q 153 783 150 767 q 163 814 156 799 q 165 833 168 824 q 156 849 163 843 q 139 855 149 854 q 121 849 129 856 q 109 829 115 844 q 100 807 103 814 q 94 773 97 797 q 87 722 90 749 q 81 669 83 694 q 78 635 78 644 q 74 512 75 572 q 79 389 72 451 q 81 375 79 385 q 83 354 82 365 q 85 333 83 343 q 88 319 86 324 m 407 196 q 478 207 442 189 q 536 254 515 225 q 573 320 558 285 q 594 393 588 356 q 606 624 621 508 q 592 695 601 660 q 564 763 583 731 q 537 797 553 782 q 501 822 521 813 q 436 829 469 838 q 392 789 403 821 q 381 753 385 771 q 374 715 376 735 q 351 496 351 607 q 358 274 350 385 q 372 226 360 251 q 407 196 385 200 z "},"e":{"ha":726,"x_min":38,"x_max":701,"o":"m 629 10 q 539 -17 597 -10 q 416 -23 481 -24 q 291 -15 351 -22 q 196 1 231 -8 q 115 51 147 14 q 81 108 93 76 q 61 172 68 140 q 45 289 49 231 q 39 407 42 347 q 40 538 38 474 q 49 668 42 603 q 61 762 54 715 q 82 853 68 808 q 97 897 89 875 q 121 938 106 919 q 144 958 131 950 q 172 972 157 967 q 259 992 214 988 q 349 993 304 996 q 432 985 390 990 q 514 974 474 981 q 569 963 542 969 q 621 942 596 956 q 658 920 640 932 q 686 889 675 908 q 700 828 701 863 q 685 767 699 794 q 663 738 676 751 q 633 717 650 724 q 592 710 614 710 q 549 715 569 711 q 513 723 535 718 q 469 731 492 728 q 426 734 446 735 q 396 725 406 733 q 383 702 389 719 q 376 678 378 685 q 372 653 374 671 q 374 628 371 635 q 386 617 378 621 q 403 613 394 613 q 469 615 436 610 q 538 619 503 621 q 600 610 571 619 q 624 590 615 604 q 635 558 632 576 q 637 519 638 539 q 635 483 636 500 q 623 443 632 464 q 596 411 614 422 q 532 394 567 397 q 500 394 522 394 q 454 394 478 394 q 409 391 431 393 q 378 385 388 389 q 373 382 376 383 q 368 378 369 381 q 355 338 357 360 q 356 297 353 317 q 361 275 357 289 q 372 258 365 261 q 403 247 386 250 q 485 247 443 243 q 568 253 526 251 q 651 226 618 254 q 692 158 683 197 q 687 78 701 119 q 629 10 672 36 m 153 929 q 151 906 146 917 q 165 890 156 894 q 185 888 175 885 q 203 903 196 890 q 204 926 208 915 q 190 942 200 938 q 169 944 181 947 q 153 929 158 942 m 99 335 q 112 316 101 321 q 132 313 122 311 q 149 324 142 315 q 153 346 156 332 q 140 440 142 393 q 139 535 138 488 q 143 651 140 593 q 154 768 146 710 q 156 781 154 772 q 159 798 157 789 q 163 815 161 807 q 167 828 165 824 q 168 847 171 838 q 158 861 165 856 q 142 867 151 867 q 125 861 133 868 q 113 839 115 853 q 103 798 107 818 q 97 758 100 778 q 88 665 93 711 q 83 572 83 619 q 83 499 83 536 q 86 426 82 463 q 88 409 86 422 q 92 381 90 396 q 96 352 94 365 q 99 335 97 339 z "},"f":{"ha":790,"x_min":39,"x_max":783,"o":"m 382 82 q 340 27 367 49 q 281 -4 314 6 q 214 -10 249 -14 q 149 13 179 -7 q 122 31 135 21 q 100 56 108 42 q 81 111 89 72 q 66 194 72 150 q 56 278 60 238 q 51 339 53 318 q 43 506 47 422 q 42 672 39 589 q 49 767 44 719 q 72 857 53 814 q 117 931 88 897 q 182 986 146 965 q 270 1019 222 1010 q 365 1025 318 1028 q 497 1016 432 1022 q 629 999 563 1010 q 682 985 656 994 q 731 960 708 976 q 757 933 746 949 q 774 897 768 917 q 772 821 783 861 q 755 774 765 797 q 726 735 744 751 q 688 714 707 718 q 662 713 675 711 q 636 717 649 714 q 538 733 588 725 q 440 738 489 740 q 423 735 432 736 q 407 728 414 733 q 391 694 396 718 q 389 656 386 671 q 395 637 390 647 q 408 624 400 626 q 446 621 418 621 q 505 622 474 621 q 564 623 536 622 q 603 624 592 624 q 642 617 622 624 q 677 599 661 611 q 703 571 693 588 q 715 535 714 554 q 716 473 718 504 q 697 417 714 442 q 652 381 682 393 q 594 369 622 369 q 555 369 585 369 q 491 369 525 369 q 427 369 457 369 q 388 369 397 369 q 392 284 386 326 q 399 199 397 242 q 398 139 401 168 q 382 82 394 110 m 317 965 q 322 933 308 947 q 354 928 336 919 q 372 951 369 935 q 361 978 375 967 q 337 982 350 986 q 317 965 324 978 m 111 338 q 139 322 119 319 q 163 343 158 324 q 163 358 165 350 q 158 372 160 365 q 154 393 157 378 q 149 426 151 408 q 145 458 147 443 q 143 479 143 474 q 140 527 142 493 q 139 599 139 561 q 140 672 139 638 q 144 719 142 706 q 153 776 149 747 q 169 831 158 804 q 190 867 178 850 q 217 899 201 885 q 241 913 228 907 q 261 931 254 918 q 263 949 265 940 q 253 965 260 958 q 237 972 246 971 q 219 965 228 972 q 199 953 210 958 q 181 942 189 949 q 133 881 151 917 q 104 808 115 844 q 85 681 86 746 q 83 550 83 615 q 85 506 83 536 q 91 442 88 475 q 99 379 94 408 q 111 338 104 350 z "},"g":{"ha":851,"x_min":29,"x_max":838,"o":"m 611 33 q 484 -7 553 1 q 350 -4 415 -15 q 256 23 301 4 q 171 71 211 42 q 124 113 146 90 q 85 164 101 136 q 53 233 65 196 q 38 310 42 271 q 35 339 36 317 q 33 386 33 361 q 31 433 32 411 q 31 464 31 456 q 36 605 29 535 q 64 743 43 675 q 138 878 86 815 q 257 978 189 942 q 315 1003 285 993 q 376 1015 344 1013 q 585 996 481 1021 q 653 973 619 986 q 714 939 686 960 q 745 910 731 926 q 768 875 760 894 q 778 825 778 851 q 769 774 778 799 q 746 728 761 749 q 708 694 731 707 q 644 679 678 676 q 565 693 604 679 q 486 708 526 707 q 433 699 460 708 q 390 668 406 689 q 358 606 368 640 q 344 536 347 571 q 342 442 342 489 q 350 349 343 394 q 356 319 353 333 q 371 294 360 306 q 426 271 393 275 q 482 286 460 267 q 499 310 493 296 q 508 338 506 324 q 458 351 478 336 q 429 390 439 367 q 422 443 419 414 q 438 500 424 472 q 482 542 451 526 q 549 567 513 558 q 625 576 586 575 q 693 574 664 576 q 731 567 713 571 q 765 551 750 563 q 801 518 785 538 q 826 475 818 499 q 835 438 833 457 q 835 399 838 418 q 774 310 826 336 q 759 228 771 269 q 728 151 747 188 q 677 84 707 115 q 611 33 647 53 m 275 918 q 303 908 286 904 q 324 929 321 913 q 319 955 326 944 q 296 965 311 965 q 271 949 278 965 q 275 918 264 933 m 81 357 q 110 360 96 350 q 119 389 124 371 l 119 392 q 119 466 119 429 q 119 540 118 503 q 124 577 121 560 q 131 614 128 594 q 156 712 140 663 q 203 801 171 761 q 209 809 204 803 q 219 823 214 815 q 228 836 224 831 q 236 844 233 842 q 247 851 240 849 q 257 858 253 853 q 263 877 264 868 q 256 893 263 886 q 240 902 250 900 q 218 899 229 904 q 194 880 208 894 q 167 848 181 865 q 143 814 154 831 q 126 788 132 797 q 106 738 114 764 q 90 685 97 711 q 74 613 82 649 q 64 540 67 576 q 63 463 63 501 q 64 386 64 425 q 81 357 64 367 m 731 472 q 751 461 740 461 q 770 468 763 461 q 780 486 778 475 q 774 508 782 497 q 756 523 767 518 q 735 533 746 528 q 697 544 717 542 q 658 546 678 546 q 640 540 647 546 q 631 525 633 533 q 633 508 629 517 q 646 493 636 499 q 669 490 651 490 q 694 489 688 490 q 714 483 701 489 q 731 472 726 478 z "},"h":{"ha":1060,"x_min":43,"x_max":1025,"o":"m 906 15 q 869 -12 890 -3 q 822 -24 847 -22 q 772 -21 797 -26 q 726 -3 747 -15 q 702 16 714 6 q 682 39 690 26 q 660 96 667 65 q 656 157 653 126 q 665 253 660 206 q 668 350 671 301 q 531 331 601 332 q 394 346 461 331 q 394 237 394 292 q 393 128 394 182 q 392 98 393 113 q 388 68 392 83 q 356 21 379 40 q 301 -8 331 1 q 240 -18 271 -18 q 178 -8 208 -18 q 124 22 147 3 q 85 69 100 42 q 64 126 71 97 q 45 267 44 196 q 44 411 46 339 q 43 589 43 500 q 57 765 43 678 q 74 847 64 806 q 108 922 85 888 q 142 963 124 943 q 183 994 160 982 q 272 1018 224 1015 q 361 1001 321 1021 q 391 985 376 994 q 414 960 406 975 q 429 925 425 944 q 435 886 433 906 q 424 759 438 822 q 406 632 411 696 q 538 632 472 636 q 667 613 603 628 q 670 724 671 668 q 669 835 669 779 q 672 892 671 863 q 692 944 674 922 q 735 981 708 967 q 789 997 761 994 q 846 997 817 1000 q 900 982 875 994 q 941 953 922 971 q 971 913 960 935 q 1000 824 992 871 q 1014 731 1008 778 q 1022 510 1025 621 q 1006 289 1019 400 q 988 204 1000 246 q 961 122 976 163 q 938 67 950 94 q 906 15 925 39 m 708 749 q 722 735 713 738 q 740 734 731 732 q 755 744 749 736 q 761 763 761 751 q 758 808 760 786 q 761 851 756 831 q 770 882 764 863 q 788 907 776 901 q 801 922 799 913 q 801 942 804 932 q 788 957 797 951 q 767 958 779 963 q 735 933 747 951 q 715 892 722 915 q 704 844 707 869 q 703 799 701 819 q 704 774 703 792 q 708 749 706 756 m 146 908 q 148 881 139 893 q 172 868 157 868 q 194 879 186 868 q 200 904 203 890 q 175 925 194 924 q 146 908 156 926 m 104 310 q 119 295 110 299 q 137 295 128 292 q 152 307 146 299 q 157 328 158 315 q 155 340 157 331 q 151 362 153 350 q 149 383 150 374 q 147 396 147 393 q 139 503 140 449 q 140 611 138 557 q 142 633 140 622 q 144 656 143 644 q 165 806 149 733 q 162 826 168 818 q 147 838 156 835 q 128 838 138 842 q 113 824 118 835 q 105 795 108 815 q 99 753 101 775 q 94 710 96 731 q 90 681 92 689 q 84 537 83 608 q 92 393 85 465 q 93 376 92 388 q 97 351 94 364 q 100 326 99 338 q 104 310 101 314 z "},"i":{"ha":476,"x_min":42,"x_max":435,"o":"m 328 17 q 269 -7 301 -1 q 206 -6 238 -12 q 147 17 175 0 q 100 60 118 33 q 81 117 89 76 q 67 203 72 157 q 59 290 63 249 q 54 353 56 332 q 47 470 51 411 q 42 588 43 529 q 44 704 42 646 q 56 819 46 763 q 63 858 58 839 q 76 897 68 878 q 135 972 97 944 q 219 1007 174 1000 q 308 998 264 1014 q 385 943 353 982 q 415 882 407 917 q 426 813 424 847 q 432 713 432 763 q 433 614 432 664 q 432 423 435 518 q 418 232 429 328 q 408 160 414 196 q 386 92 401 125 q 362 50 376 69 q 328 17 347 31 m 175 918 q 203 919 190 911 q 215 943 215 928 q 203 967 215 958 q 175 968 190 975 q 160 943 160 961 q 175 918 160 925 m 94 356 q 108 336 97 342 q 128 333 118 331 q 146 343 139 335 q 150 365 153 351 q 144 412 147 378 q 140 484 142 446 q 135 556 138 522 q 133 603 133 590 q 133 724 131 664 q 150 843 135 785 q 156 856 153 850 q 163 868 160 861 q 156 900 171 886 q 124 906 142 914 q 110 891 115 901 q 100 867 104 881 q 92 840 96 853 q 88 818 89 826 q 85 798 86 813 q 82 767 83 783 q 79 734 81 750 q 78 713 78 718 q 82 540 75 626 q 86 467 85 504 q 92 393 88 429 q 92 374 92 389 q 94 356 93 358 z "},"j":{"ha":769,"x_min":3,"x_max":735,"o":"m 431 8 q 333 -5 382 -1 q 236 -3 285 -8 q 153 13 194 1 q 79 49 113 25 q 41 83 58 64 q 17 126 24 103 q 10 216 3 168 q 46 299 18 264 q 86 333 63 319 q 136 350 110 347 q 165 349 143 351 q 211 345 186 347 q 258 342 236 343 q 286 340 279 340 q 319 348 303 342 q 346 368 336 354 q 364 414 360 389 q 369 463 368 439 q 365 556 371 510 q 355 650 360 603 q 347 744 350 697 q 353 836 344 790 q 368 896 358 867 q 396 950 378 925 q 415 974 404 963 q 438 994 425 986 q 494 1019 463 1010 q 557 1028 525 1028 q 618 1018 589 1028 q 667 988 647 1008 q 710 911 697 953 q 730 810 725 863 q 735 707 735 758 q 731 578 735 642 q 721 449 726 514 q 704 319 717 383 q 665 196 692 256 q 626 128 650 160 q 572 71 603 96 q 505 31 542 47 q 431 8 468 15 m 472 929 q 501 920 483 915 q 522 942 519 925 q 515 968 526 957 q 489 975 504 979 q 467 957 474 972 q 472 929 461 942 m 401 413 q 398 383 390 399 q 424 367 406 367 q 451 386 443 367 q 463 425 460 406 q 465 444 464 431 q 465 475 465 458 q 465 506 465 492 q 464 525 464 519 q 452 647 461 588 q 446 769 443 707 q 449 815 447 792 q 463 857 451 838 q 464 876 467 867 q 453 891 461 885 q 436 898 446 897 q 418 892 426 899 q 406 865 411 885 q 397 838 400 846 q 390 761 390 800 q 394 683 390 722 q 406 572 400 628 q 408 461 413 517 q 408 436 408 454 q 401 413 407 418 z "},"k":{"ha":976,"x_min":38,"x_max":954,"o":"m 935 217 q 950 135 954 176 q 924 60 946 93 q 866 7 903 26 q 785 -10 829 -12 q 754 -5 769 -8 q 725 6 739 -1 q 686 34 704 17 q 653 71 668 51 q 542 224 593 144 q 428 374 490 303 q 421 278 425 325 q 410 183 417 231 q 394 117 404 150 q 365 57 385 85 q 257 -8 325 0 q 176 2 215 -12 q 108 49 136 17 q 83 106 93 67 q 67 191 74 146 q 58 278 61 236 q 54 344 56 321 q 42 553 47 449 q 47 764 38 658 q 55 825 50 794 q 69 885 60 856 q 112 954 83 925 q 176 998 140 983 q 253 1012 213 1013 q 331 992 293 1011 q 394 929 374 969 q 419 864 413 899 q 429 793 426 829 q 431 726 432 760 q 432 660 431 693 q 527 774 481 717 q 629 881 574 831 q 693 931 658 908 q 767 964 728 954 q 845 960 806 974 q 913 914 885 946 q 938 872 928 894 q 951 824 949 849 q 947 775 953 800 q 929 731 942 750 q 883 674 911 699 q 826 628 856 650 q 740 564 783 596 q 657 497 697 532 q 700 459 668 488 q 768 398 732 431 q 835 337 804 365 q 878 297 867 308 q 909 259 894 279 q 935 217 924 239 m 140 924 q 146 901 138 911 q 168 890 154 890 q 195 906 186 890 q 193 936 204 921 q 163 947 181 951 q 140 924 144 943 m 663 858 q 661 838 657 847 q 674 822 665 828 q 692 818 682 817 q 710 829 703 819 q 765 879 731 857 q 774 881 768 881 q 783 883 781 882 q 799 911 801 892 q 776 935 796 931 q 745 931 761 939 q 715 913 729 922 q 703 903 711 910 q 688 888 696 896 q 672 871 679 879 q 663 858 665 863 m 94 354 q 110 340 100 343 q 128 339 119 336 q 144 350 138 342 q 147 371 150 358 q 139 431 140 401 q 135 492 138 461 q 129 590 132 540 q 129 689 126 640 q 133 758 132 724 q 144 825 135 792 q 147 838 144 828 q 150 850 150 847 q 135 874 150 867 q 106 871 119 882 q 96 856 99 865 q 90 838 93 846 q 80 790 83 814 q 75 740 76 765 q 73 657 74 699 q 75 574 72 615 q 76 537 75 564 q 80 479 78 510 q 84 422 82 449 q 88 386 86 396 q 90 370 89 383 q 94 354 92 357 z "},"l":{"ha":697,"x_min":38,"x_max":697,"o":"m 478 -19 q 350 -30 415 -31 q 225 -6 285 -29 q 167 25 194 6 q 119 71 139 44 q 85 135 97 100 q 68 206 74 169 q 49 421 54 314 q 40 636 43 528 q 40 758 38 697 q 63 878 43 819 q 133 976 82 940 q 249 1010 183 1013 q 303 1000 276 1008 q 351 975 329 992 q 386 939 371 960 q 408 894 401 918 q 422 805 419 850 q 425 715 424 760 q 427 549 428 632 q 422 383 426 467 q 421 338 421 360 q 425 292 421 315 q 436 265 428 278 q 458 246 444 251 q 511 238 483 236 q 567 246 539 240 q 591 252 579 249 q 615 254 603 256 q 657 238 638 254 q 690 174 682 213 q 685 103 697 136 q 670 73 679 88 q 649 49 661 58 q 603 22 628 32 q 554 4 578 13 q 516 -9 535 -3 q 478 -19 497 -15 m 108 897 q 131 883 115 883 q 157 894 147 882 q 161 923 168 908 q 136 939 154 938 q 110 926 119 940 q 108 897 101 913 m 100 374 q 118 367 108 367 q 135 374 128 368 q 144 388 142 379 q 142 407 146 397 q 138 431 139 413 q 136 454 136 449 q 131 531 132 493 q 126 606 129 568 q 126 640 126 615 q 125 694 125 665 q 126 747 125 722 q 128 781 126 772 q 133 814 129 790 q 132 847 136 838 q 104 863 124 865 q 81 840 85 860 q 76 796 78 825 q 72 729 74 767 q 72 651 71 692 q 73 573 72 610 q 75 506 74 536 q 79 460 76 475 q 82 440 81 453 q 85 415 83 428 q 91 390 88 401 q 100 374 94 378 z "},"m":{"ha":1310,"x_min":39,"x_max":1272,"o":"m 1226 96 q 1199 40 1218 64 q 1154 3 1181 17 q 1097 -15 1128 -11 q 1036 -11 1067 -19 q 1001 3 1018 -6 q 969 24 983 11 q 933 72 947 44 q 910 128 918 100 q 894 214 899 171 q 886 301 890 257 q 826 210 857 256 q 763 119 796 164 q 726 78 747 99 q 697 60 714 67 q 662 53 681 54 q 625 57 643 53 q 593 71 607 61 q 553 113 578 81 q 503 181 529 144 q 455 253 478 218 q 422 303 432 288 q 411 183 418 243 q 375 69 404 122 q 333 20 358 40 q 277 -8 307 0 q 215 -14 247 -17 q 153 6 182 -11 q 110 41 129 19 q 85 88 92 63 q 60 224 65 154 q 51 363 56 293 q 43 517 47 440 q 40 669 39 593 q 44 747 42 708 q 54 822 47 785 q 66 872 58 847 q 89 919 74 897 q 129 965 104 946 q 183 994 154 983 q 240 1006 210 1004 q 297 997 269 1007 q 351 974 325 988 q 399 940 376 960 q 452 877 429 913 q 493 804 475 842 q 578 609 542 708 q 656 411 614 510 q 733 611 696 511 q 818 807 769 711 q 874 898 842 854 q 951 968 907 942 q 994 990 972 981 q 1039 1003 1015 1000 q 1097 1001 1068 1007 q 1153 982 1126 996 q 1200 947 1179 968 q 1232 899 1221 925 q 1259 805 1253 854 q 1268 707 1265 756 q 1267 524 1272 615 q 1257 342 1263 433 q 1248 217 1254 279 q 1226 96 1242 156 m 893 856 q 911 829 893 836 q 943 838 929 822 q 948 847 946 842 q 953 856 950 851 q 968 875 960 867 q 985 892 976 883 q 999 903 990 896 q 1015 908 1008 910 q 1035 910 1026 906 q 1047 924 1043 915 q 1049 941 1051 932 q 1039 957 1047 950 q 1023 964 1033 961 q 1006 964 1013 967 q 983 956 994 960 q 961 944 971 953 q 942 927 954 938 q 919 904 931 917 q 901 878 908 892 q 893 856 893 865 m 169 935 q 185 910 169 917 q 215 914 201 903 q 225 938 226 924 q 210 960 224 953 q 183 958 196 967 q 169 935 169 950 m 96 351 q 108 333 99 339 q 126 329 117 328 q 144 338 136 331 q 151 357 151 344 q 148 384 151 364 q 143 410 144 404 q 140 441 142 418 q 135 489 138 464 q 131 537 133 514 q 129 568 129 560 q 133 713 129 642 q 156 856 136 785 q 158 861 156 861 q 165 889 169 872 q 139 909 158 908 q 110 892 119 910 q 99 858 103 875 q 90 824 94 842 q 87 803 89 818 q 83 772 85 789 q 79 739 81 754 q 78 718 78 724 q 74 609 75 664 q 79 499 74 554 q 81 470 79 492 q 86 425 83 449 q 91 380 89 401 q 96 351 93 358 z "},"n":{"ha":1067,"x_min":39,"x_max":1026,"o":"m 860 -1 q 794 -1 828 -8 q 731 21 760 6 q 668 56 699 36 q 611 101 638 76 q 510 217 556 154 q 425 347 465 281 q 408 190 421 267 q 399 140 406 164 q 381 92 392 115 q 362 59 372 75 q 336 32 351 43 q 280 5 311 13 q 217 0 249 -3 q 157 17 186 3 q 107 56 128 32 q 81 115 90 74 q 65 203 71 157 q 56 294 58 250 q 51 364 53 339 q 43 517 47 440 q 40 669 39 593 q 46 776 42 722 q 65 879 50 829 q 88 933 72 907 q 128 975 104 958 q 201 1011 160 1000 q 283 1014 243 1022 q 361 974 328 1003 q 426 904 397 942 q 479 826 456 867 q 556 690 521 760 q 635 554 590 621 q 633 724 632 639 q 661 889 633 810 q 706 960 675 931 q 774 1005 736 990 q 853 1017 811 1019 q 932 990 894 1014 q 986 935 967 968 q 1011 857 1006 899 q 1019 775 1017 815 q 1024 526 1026 649 q 1011 278 1021 403 q 1003 195 1008 236 q 983 114 997 154 q 928 29 965 63 q 860 -1 897 4 m 681 743 q 705 728 688 728 q 731 743 722 728 q 733 758 733 750 q 732 774 733 767 q 744 869 729 824 q 751 883 747 876 q 757 896 754 889 q 753 926 764 913 q 726 936 743 939 q 712 926 718 933 q 701 913 706 919 q 681 846 686 881 q 676 776 675 811 q 677 759 676 771 q 681 743 678 747 m 168 924 q 151 907 156 917 q 150 888 147 897 q 163 874 153 879 q 186 871 172 868 q 203 885 200 874 q 203 906 207 896 q 190 923 200 917 q 168 924 181 929 m 104 301 q 118 283 108 288 q 138 280 128 278 q 153 291 147 282 q 158 314 160 300 q 143 453 146 383 q 138 593 140 522 q 137 692 135 642 q 150 789 139 742 q 156 808 151 794 q 163 825 160 821 q 168 842 168 833 q 163 858 168 850 q 150 869 158 865 q 132 869 142 872 q 114 854 118 867 q 102 824 107 839 q 93 792 97 808 q 86 751 88 772 q 82 710 85 731 q 82 682 82 703 q 82 638 82 661 q 82 593 82 614 q 82 565 82 572 q 84 513 82 550 q 89 433 86 475 q 96 353 92 390 q 104 301 100 315 z "},"o":{"ha":914,"x_min":24,"x_max":890,"o":"m 601 22 q 424 -1 514 -6 q 324 14 374 1 q 231 51 274 26 q 156 108 190 75 q 99 182 122 142 q 43 323 60 247 q 25 475 26 399 q 39 638 24 556 q 90 793 54 719 q 149 880 114 839 q 228 949 183 921 q 319 991 269 976 q 417 1008 368 1006 q 522 1008 469 1013 q 624 989 575 1004 q 722 940 675 972 q 797 865 765 910 q 847 772 828 821 q 885 599 879 689 q 883 421 890 508 q 852 276 876 347 q 782 147 828 206 q 701 72 747 104 q 601 22 654 39 m 303 896 q 329 885 314 883 q 351 900 344 886 q 349 928 358 915 q 325 940 340 940 q 299 925 307 940 q 303 896 292 910 m 111 290 q 128 284 119 283 q 145 290 138 285 q 156 302 153 294 q 156 319 160 310 q 148 342 151 331 q 142 367 144 354 q 135 419 138 393 q 132 471 132 444 q 131 489 132 474 q 129 508 129 504 q 131 583 129 544 q 143 657 132 621 q 160 710 151 683 q 182 760 168 736 q 191 776 185 765 q 206 799 197 788 q 222 821 214 811 q 235 835 229 831 q 251 847 242 842 q 263 860 260 851 q 257 892 271 879 q 225 897 243 906 q 206 883 219 894 q 188 868 192 872 q 159 830 172 849 q 135 792 146 811 q 85 653 99 728 q 74 507 71 579 q 78 434 76 471 q 86 361 81 397 q 90 344 88 354 q 95 323 92 333 q 103 303 99 313 q 111 290 107 294 m 386 301 q 423 290 403 293 q 463 292 443 288 q 505 311 486 297 q 539 343 524 325 q 580 415 565 375 q 597 497 594 456 q 594 587 601 542 q 565 671 588 632 q 537 712 554 693 q 499 742 519 731 q 444 751 471 753 q 376 726 406 749 q 326 671 346 704 q 295 597 306 638 q 285 517 285 556 q 294 438 285 478 q 324 365 303 399 q 351 329 335 346 q 386 301 367 313 z "},"p":{"ha":851,"x_min":43,"x_max":835,"o":"m 317 22 q 259 -6 290 1 q 197 -10 228 -14 q 138 10 165 -6 q 89 51 110 25 q 69 105 75 68 q 60 183 63 142 q 58 264 58 225 q 58 324 58 303 q 57 426 58 375 q 53 528 56 476 q 46 661 49 594 q 46 794 43 728 q 47 815 46 800 q 50 847 49 831 q 53 879 51 864 q 56 900 54 894 q 69 930 61 915 q 90 956 78 944 q 170 1001 125 986 q 260 1024 215 1017 q 417 1035 338 1035 q 571 1017 496 1036 q 658 985 615 1006 q 736 933 701 965 q 785 871 765 907 q 815 796 804 835 q 833 657 835 729 q 813 518 832 585 q 781 439 801 478 q 729 369 760 400 q 635 302 689 329 q 525 264 582 275 q 403 264 464 253 q 396 193 400 228 q 381 125 392 158 q 356 69 372 96 q 317 22 340 42 m 140 946 q 148 919 138 931 q 174 913 158 908 q 194 931 189 915 q 189 958 200 946 q 160 969 178 974 q 140 946 143 964 m 93 388 q 107 369 97 374 q 127 366 117 364 q 144 376 138 368 q 147 399 151 385 q 142 436 144 408 q 138 494 140 464 q 133 551 135 524 q 131 589 131 578 q 131 632 131 600 q 131 700 131 664 q 131 767 131 736 q 133 810 132 799 q 136 834 133 817 q 142 857 139 851 q 142 880 147 869 q 128 894 138 890 q 106 895 118 899 q 89 879 94 892 q 84 858 86 875 q 81 833 82 840 q 76 786 78 821 q 74 712 75 751 q 74 638 74 672 q 75 589 75 603 q 77 560 75 582 q 81 514 79 539 q 85 467 83 489 q 88 439 86 446 q 89 413 88 433 q 93 388 90 393 m 408 458 q 459 460 432 453 q 506 483 486 467 q 534 528 525 503 q 549 581 543 554 q 553 643 553 606 q 548 719 553 681 q 531 790 543 757 q 500 840 519 824 q 475 853 489 850 q 448 852 461 856 q 424 839 435 849 q 410 815 414 829 q 408 775 406 796 q 410 714 410 760 q 410 617 410 668 q 409 519 410 565 q 408 458 408 474 z "},"q":{"ha":939,"x_min":19,"x_max":926,"o":"m 888 -104 q 850 -130 872 -118 q 803 -148 828 -142 q 756 -154 779 -154 q 714 -144 732 -154 q 685 -115 700 -137 q 656 -67 669 -93 q 631 -15 642 -40 q 614 26 619 11 q 458 -3 540 -1 q 301 22 376 -4 q 222 61 260 38 q 151 117 183 85 q 88 208 113 157 q 47 314 63 260 q 27 539 19 422 q 78 760 35 656 q 150 878 104 822 q 257 964 196 933 q 349 998 300 986 q 449 1012 399 1010 q 549 1006 500 1014 q 644 982 599 999 q 717 944 683 967 q 778 892 751 922 q 831 814 810 857 q 864 726 851 771 q 889 573 886 651 q 885 415 892 494 q 859 290 879 351 q 804 174 839 228 q 844 114 824 143 q 888 56 865 85 q 902 35 894 44 q 914 14 910 25 q 923 -12 919 1 q 924 -40 926 -26 q 888 -104 915 -79 m 315 899 q 347 903 333 892 q 357 919 356 910 q 354 936 358 928 q 342 949 350 944 q 322 951 333 954 q 300 928 303 947 q 315 899 297 908 m 97 313 q 127 309 111 301 q 143 335 143 317 q 140 347 143 342 q 135 360 138 353 q 126 413 128 386 q 122 467 125 440 q 122 485 122 472 q 122 510 122 497 q 123 536 122 524 q 124 554 124 549 q 145 642 131 599 q 179 726 160 686 q 210 782 193 754 q 249 833 226 810 q 262 844 254 840 q 272 857 269 849 q 274 878 278 868 q 263 893 271 888 q 244 898 254 899 q 225 888 233 897 q 219 883 222 885 q 204 867 214 879 q 184 842 194 856 q 165 816 174 829 q 153 797 157 803 q 96 667 121 735 q 65 529 71 600 q 66 467 63 497 q 72 406 69 438 q 75 384 74 397 q 79 356 76 371 q 86 330 82 342 q 97 313 90 318 m 417 292 q 458 292 436 288 q 496 308 479 297 q 559 372 535 332 q 594 460 583 413 q 600 556 604 507 q 579 647 596 606 q 519 729 560 697 q 457 751 493 749 q 379 726 415 751 q 325 663 346 703 q 295 578 304 624 q 290 485 286 532 q 308 400 293 438 q 358 324 326 354 q 385 303 371 313 q 417 292 400 294 z "},"r":{"ha":860,"x_min":43,"x_max":843,"o":"m 281 -11 q 190 -19 238 -25 q 104 11 143 -12 q 64 55 79 26 q 46 113 49 83 q 44 151 44 124 q 43 212 43 178 q 44 285 43 246 q 44 358 44 324 q 45 419 44 393 q 46 458 46 446 q 47 573 44 517 q 56 688 50 629 q 68 780 61 733 q 90 871 75 826 q 103 905 96 889 q 124 935 111 921 q 181 982 147 963 q 250 1013 214 1001 q 425 1031 333 1038 q 597 990 517 1024 q 685 942 643 971 q 758 872 728 913 q 807 774 794 828 q 811 692 815 733 q 794 613 807 651 q 731 502 775 551 q 635 417 688 453 q 684 358 660 388 q 735 301 708 329 q 776 256 754 278 q 815 211 797 235 q 840 134 843 174 q 812 64 836 94 q 747 18 788 33 q 661 14 707 3 q 592 44 625 24 q 532 93 560 65 q 453 187 488 136 q 389 290 418 238 q 388 213 388 251 q 382 138 389 175 q 372 88 379 113 q 350 43 365 64 q 319 10 338 25 q 281 -11 301 -4 m 286 956 q 285 933 279 943 q 302 917 292 922 q 324 916 313 913 q 339 933 335 919 q 336 957 342 947 q 322 971 331 967 q 302 972 313 975 q 286 956 292 968 m 90 274 q 114 252 94 254 q 143 268 133 250 q 145 292 149 279 q 142 315 142 304 q 140 350 140 326 q 140 404 140 374 q 139 468 139 435 q 140 532 139 501 q 141 586 140 563 q 143 621 142 610 q 163 740 150 681 q 204 853 176 800 q 232 885 215 872 q 235 887 233 886 q 240 889 238 888 q 255 904 251 894 q 255 923 258 914 q 242 938 251 932 q 221 940 233 943 q 198 929 208 938 q 179 911 188 921 q 149 865 160 890 q 128 814 138 840 q 104 724 113 769 q 89 632 96 678 q 85 565 86 613 q 83 466 83 518 q 84 367 83 414 q 88 301 85 319 q 89 288 88 299 q 90 274 90 276 m 383 567 q 442 560 413 565 q 500 567 472 556 q 540 595 524 575 q 565 640 557 615 q 570 692 572 665 q 554 739 568 718 q 510 774 538 764 q 450 785 481 785 q 389 781 419 785 q 381 674 382 728 q 383 567 381 619 z "},"s":{"ha":794,"x_min":25,"x_max":775,"o":"m 483 -8 q 361 -17 422 -19 q 239 -6 300 -15 q 176 6 207 -1 q 118 29 146 14 q 69 69 90 43 q 38 124 49 94 q 26 187 26 154 q 38 249 25 219 q 82 310 53 285 q 140 338 107 329 q 206 344 174 347 q 288 330 247 342 q 369 317 328 318 q 401 326 388 317 q 422 347 415 335 q 426 374 429 360 q 410 397 424 388 q 374 417 393 410 q 335 431 354 425 q 295 444 315 438 q 257 460 275 450 q 181 501 218 479 q 111 554 143 524 q 76 597 92 574 q 53 649 60 621 q 44 699 47 674 q 42 749 40 724 q 51 803 44 776 q 71 854 58 831 q 115 910 89 885 q 174 954 142 936 q 274 996 221 981 q 379 1017 326 1011 q 538 1018 458 1026 q 690 982 617 1010 q 754 932 733 967 q 771 884 767 911 q 772 829 775 857 q 757 776 768 801 q 729 733 746 750 q 696 708 715 718 q 657 700 676 699 q 585 711 621 701 q 514 725 550 721 q 453 726 485 729 q 396 707 422 722 q 374 681 381 699 q 379 649 368 664 q 420 615 396 628 q 469 590 444 601 q 524 572 496 579 q 578 551 551 564 q 634 516 607 536 q 682 471 661 496 q 735 373 719 426 q 746 265 750 319 q 717 159 742 210 q 651 69 693 108 q 573 19 617 38 q 483 -8 529 0 m 243 908 q 270 903 256 899 q 288 924 285 908 q 281 952 292 940 q 256 961 271 964 q 233 938 238 957 q 243 908 229 919 m 225 514 q 244 513 235 510 q 260 522 254 515 q 266 539 265 529 q 260 557 267 549 q 251 563 256 561 q 242 568 246 565 q 213 586 226 578 q 188 607 199 594 q 180 615 185 608 q 169 629 175 622 q 160 643 164 636 q 154 653 156 650 q 138 694 143 671 q 133 742 132 718 q 140 788 133 765 q 160 828 147 810 q 177 847 167 839 q 193 868 188 856 q 194 890 199 881 q 181 905 190 900 q 160 907 171 910 q 143 892 149 904 q 129 876 140 889 q 115 861 118 864 q 98 832 106 847 q 86 801 90 817 q 76 728 75 765 q 90 656 76 690 q 101 636 93 649 q 117 609 108 624 q 135 582 126 594 q 150 565 144 569 q 165 553 154 561 q 187 538 175 546 q 209 522 199 529 q 225 514 219 515 z "},"t":{"ha":781,"x_min":4,"x_max":778,"o":"m 486 24 q 398 -10 447 -6 q 304 10 349 -14 q 267 37 285 21 q 240 75 249 53 q 228 117 233 96 q 221 161 224 139 q 210 249 214 206 q 203 336 206 292 q 192 537 196 436 q 194 738 188 638 q 115 738 156 736 q 42 764 74 740 q 17 796 25 776 q 6 838 8 815 q 8 882 4 860 q 22 924 13 904 q 62 964 35 949 q 117 986 89 979 q 270 1013 192 1006 q 426 1018 349 1021 q 572 1005 500 1015 q 714 969 644 994 q 733 960 724 965 q 750 944 743 954 q 774 884 769 919 q 767 818 778 849 q 732 764 756 783 q 660 733 700 739 q 579 725 619 728 q 583 483 582 603 q 568 244 583 364 q 558 176 564 210 q 540 108 551 142 q 519 62 532 85 q 486 24 506 39 m 608 925 q 631 924 621 918 q 646 939 642 929 q 647 960 650 949 q 629 978 643 971 q 608 982 625 981 q 586 985 592 983 q 531 994 558 989 q 475 992 503 999 q 453 968 456 988 q 469 940 451 949 q 481 938 475 938 q 493 939 488 938 q 543 936 518 942 q 592 928 568 931 q 600 927 596 926 q 608 925 604 928 m 233 713 q 251 699 239 700 q 272 704 263 699 q 285 720 282 710 q 281 742 289 731 q 262 754 272 753 q 243 751 251 756 q 231 735 235 746 q 233 713 228 725 m 251 268 q 281 249 261 249 q 306 271 301 250 q 303 297 308 278 q 299 324 299 317 q 287 426 292 375 q 282 529 282 476 q 281 585 281 557 q 283 642 281 614 q 276 665 285 657 q 258 674 268 674 q 238 666 247 674 q 228 643 229 658 q 226 587 225 615 q 226 531 226 558 q 227 506 226 524 q 228 467 228 488 q 231 429 229 447 q 233 404 232 411 q 236 376 235 396 q 240 335 238 357 q 246 294 243 314 q 251 268 249 275 z "},"u":{"ha":942,"x_min":36,"x_max":911,"o":"m 608 8 q 342 4 474 -32 q 219 60 278 21 q 125 154 161 99 q 99 203 110 178 q 81 257 89 229 q 49 419 57 336 q 38 586 40 503 q 37 629 38 597 q 36 698 36 661 q 36 767 36 735 q 38 810 36 799 q 49 876 42 843 q 72 939 57 910 q 96 969 81 956 q 129 989 111 982 q 271 1011 199 1019 q 338 985 306 1008 q 381 929 369 961 q 390 875 389 903 q 392 819 392 847 q 384 724 390 771 q 374 629 378 678 q 370 558 371 593 q 372 486 369 522 q 376 448 374 471 q 383 401 378 425 q 396 356 388 376 q 417 328 404 336 q 488 309 449 307 q 546 344 526 311 q 567 413 563 376 q 572 485 571 449 q 571 528 572 497 q 567 597 569 558 q 563 679 565 636 q 558 761 560 722 q 553 830 556 800 q 550 874 551 860 q 548 896 549 885 q 550 918 547 907 q 592 981 561 957 q 649 1012 617 1001 q 714 1026 682 1022 q 767 1023 739 1029 q 819 1003 794 1017 q 863 968 844 989 q 889 922 882 947 q 907 824 903 874 q 910 725 911 775 q 898 503 910 613 q 858 285 886 393 q 811 173 843 226 q 733 79 779 119 q 674 37 706 56 q 608 8 643 18 m 608 733 q 632 712 613 714 q 661 728 651 710 q 663 745 664 733 q 660 770 663 757 q 656 795 658 783 q 651 814 653 807 q 649 842 649 828 q 650 871 650 856 q 651 884 650 875 q 653 902 651 893 q 656 919 654 911 q 661 931 658 926 q 667 951 669 940 q 658 967 665 961 q 640 975 650 974 q 619 968 629 976 q 605 944 610 961 q 598 909 600 928 q 595 872 596 890 q 594 842 594 853 q 596 821 594 836 q 599 788 597 806 q 604 755 601 771 q 608 733 607 739 m 106 879 q 135 882 121 871 q 146 915 151 896 q 119 933 140 933 q 101 926 108 933 q 91 910 93 919 q 92 892 89 901 q 106 879 94 883 m 115 296 q 147 288 128 281 q 165 314 165 294 q 161 335 165 318 q 156 356 157 351 q 137 464 144 410 q 126 574 129 518 q 123 662 125 618 q 121 750 121 706 q 123 769 122 760 q 125 786 124 778 q 122 806 126 797 q 110 818 118 814 q 92 820 101 822 q 76 810 83 818 q 70 794 72 804 q 67 771 68 783 q 66 747 67 758 q 65 728 65 735 q 66 702 65 721 q 67 663 67 683 q 69 622 68 642 q 69 597 69 603 q 80 476 74 536 q 100 357 86 417 q 101 344 100 353 q 105 326 103 335 q 110 308 107 317 q 115 296 113 300 z "},"v":{"ha":890,"x_min":11,"x_max":879,"o":"m 596 33 q 540 -8 572 8 q 473 -30 508 -25 q 402 -29 438 -35 q 338 -4 367 -24 q 279 53 304 19 q 238 125 254 88 q 162 316 196 219 q 96 511 128 413 q 54 649 74 581 q 21 789 35 718 q 13 849 15 818 q 22 908 11 881 q 47 958 31 935 q 88 994 64 982 q 131 1008 106 1004 q 183 1011 157 1013 q 233 1003 208 1010 q 272 982 257 996 q 297 940 285 969 q 317 878 308 911 q 333 813 326 844 q 342 764 339 781 q 363 649 353 706 q 385 535 372 592 q 397 481 390 507 q 414 431 403 456 q 424 410 417 424 q 439 393 432 396 q 449 389 443 389 q 474 407 464 393 q 497 466 489 435 q 511 529 504 497 q 526 653 522 592 q 542 776 531 714 q 563 856 550 817 q 599 932 576 896 q 678 989 625 975 q 750 993 713 997 q 818 969 788 989 q 858 932 842 956 q 878 881 875 908 q 874 833 879 864 q 859 763 868 801 q 839 683 850 725 q 817 603 828 642 q 796 535 806 565 q 781 488 786 504 q 733 340 757 413 q 681 193 708 267 q 645 108 665 150 q 596 33 625 67 m 578 808 q 605 788 583 788 q 632 808 626 788 q 645 849 638 829 q 667 885 653 869 q 679 896 669 889 q 693 906 689 903 q 701 907 697 907 q 708 910 706 907 q 724 938 726 918 q 703 961 722 957 q 683 959 694 963 q 661 949 672 956 q 640 935 650 943 q 624 921 629 926 q 616 910 621 918 q 606 894 611 903 q 597 879 601 886 q 592 868 593 872 q 582 839 589 860 q 578 808 575 818 m 49 914 q 53 888 46 900 q 75 876 60 876 q 98 888 90 876 q 103 914 106 900 q 76 936 97 936 q 49 914 54 936 m 226 283 q 245 282 236 279 q 260 292 254 285 q 266 308 265 299 q 260 325 267 317 q 250 349 257 331 q 240 372 243 367 q 232 392 238 378 q 221 424 226 407 q 210 457 215 442 q 203 478 204 472 q 199 488 201 481 q 192 505 196 496 q 186 522 189 514 q 183 532 183 529 q 174 561 181 539 q 160 608 168 583 q 146 656 153 633 q 136 686 139 678 q 127 712 131 699 q 119 739 124 725 q 103 808 110 771 q 100 825 103 814 q 69 840 90 844 q 47 813 49 835 q 49 795 47 807 q 54 769 51 783 q 60 744 57 756 q 65 726 64 732 q 74 694 71 711 q 85 663 78 678 q 90 647 86 658 q 99 622 94 635 q 106 597 103 608 q 111 581 110 585 q 125 535 114 568 q 149 465 136 503 q 173 394 161 428 q 189 350 185 361 q 198 330 193 339 q 206 311 203 321 q 213 294 208 303 q 226 283 218 286 z "},"w":{"ha":1183,"x_min":31,"x_max":1153,"o":"m 315 -1 q 181 17 246 -21 q 136 56 151 32 q 114 113 125 72 q 94 201 103 154 q 78 290 85 247 q 69 351 72 332 q 42 562 54 457 q 35 772 31 667 q 39 828 36 800 q 51 883 42 856 q 88 949 63 921 q 144 994 113 978 q 214 1013 176 1010 q 289 1001 251 1015 q 344 968 318 990 q 382 917 371 946 q 401 852 394 885 q 413 788 407 819 q 431 622 425 704 q 440 456 438 539 q 485 522 460 489 q 547 571 511 556 q 608 578 576 583 q 664 553 639 574 q 708 503 689 532 q 742 446 726 475 q 749 572 744 510 q 761 696 754 633 q 771 784 765 740 q 785 871 776 828 q 803 924 790 899 q 835 969 815 950 q 899 1008 863 996 q 974 1017 936 1019 q 1045 996 1011 1014 q 1103 947 1079 978 q 1133 886 1122 919 q 1146 819 1143 853 q 1150 708 1153 764 q 1142 596 1147 653 q 1119 397 1132 496 q 1088 200 1107 299 q 1076 146 1082 172 q 1061 92 1069 119 q 1033 46 1051 64 q 949 2 999 14 q 854 6 900 -10 q 833 13 843 8 q 815 24 824 17 q 773 63 792 40 q 737 108 754 85 q 703 156 719 132 q 665 201 686 181 q 635 226 653 215 q 599 239 618 236 q 553 223 576 240 q 507 180 529 206 q 465 126 485 154 q 432 81 446 99 q 381 30 411 51 q 315 -1 350 8 m 792 700 q 806 687 797 690 q 824 685 815 683 q 838 694 832 688 q 844 713 844 701 q 853 791 844 753 q 878 865 863 829 q 884 881 881 871 q 893 894 888 892 q 908 917 907 901 q 899 942 910 932 q 872 947 886 951 q 849 931 857 943 q 815 857 826 896 q 796 778 803 818 q 793 761 794 772 q 790 738 792 750 q 789 716 789 726 q 792 700 789 706 m 128 871 q 156 861 139 857 q 176 882 174 865 q 170 911 181 899 q 142 919 160 924 q 122 901 126 917 q 128 871 117 885 m 121 297 q 134 283 125 286 q 152 281 143 279 q 168 290 161 283 q 175 308 175 297 q 169 329 175 314 q 161 350 164 344 q 151 399 157 364 q 140 474 146 435 q 131 549 135 514 q 126 600 128 585 q 124 637 125 613 q 124 688 124 661 q 127 740 125 715 q 135 776 129 765 q 133 803 140 788 q 104 817 122 819 q 81 794 86 814 q 77 776 79 789 q 73 748 75 763 q 69 719 71 733 q 68 700 68 706 q 69 631 68 665 q 74 561 71 596 q 78 517 75 549 q 87 449 82 485 q 97 381 92 413 q 107 338 103 350 q 113 317 110 326 q 121 297 117 307 z "},"x":{"ha":846,"x_min":28,"x_max":825,"o":"m 228 -3 q 157 -3 192 -10 q 94 23 122 4 q 48 71 65 42 q 29 138 31 100 q 38 209 29 174 q 63 276 47 244 q 119 383 89 331 q 181 486 149 435 q 134 559 157 522 q 90 635 111 596 q 61 695 75 664 q 38 758 47 726 q 31 789 33 774 q 29 819 28 804 q 39 871 32 846 q 61 918 46 896 q 116 972 81 950 q 189 996 151 994 q 244 990 217 996 q 294 969 272 985 q 362 906 333 943 q 418 832 390 869 q 449 872 433 853 q 482 911 465 892 q 515 945 497 929 q 556 972 533 961 q 622 992 586 988 q 690 988 657 996 q 786 924 749 972 q 825 815 824 876 q 819 767 825 790 q 803 719 813 743 q 735 590 775 651 q 653 468 696 528 q 696 392 675 431 q 736 315 717 354 q 764 251 751 283 q 782 185 776 219 q 784 130 786 158 q 771 78 782 101 q 725 25 754 46 q 662 -3 696 4 q 594 -3 628 -10 q 533 28 560 4 q 473 90 501 57 q 417 158 444 124 q 351 81 385 119 q 278 15 318 43 q 228 -3 257 1 m 154 917 q 183 913 168 906 q 199 939 199 921 q 185 963 199 954 q 158 964 172 971 q 142 942 143 957 q 154 917 142 928 m 171 572 q 190 556 178 558 q 213 560 203 554 q 226 578 222 567 q 219 603 229 590 q 208 622 215 607 q 192 652 200 636 q 176 683 183 668 q 167 703 169 697 q 160 715 164 706 q 151 733 156 724 q 142 752 146 743 q 136 765 138 761 q 129 832 125 799 q 135 856 138 843 q 121 874 132 868 q 92 872 106 881 q 76 846 79 863 q 79 769 71 808 q 107 699 88 731 q 119 676 110 693 q 131 653 128 658 q 138 637 132 649 q 150 612 143 625 q 163 588 157 599 q 171 572 168 576 z "},"y":{"ha":974,"x_min":10,"x_max":969,"o":"m 585 11 q 501 -11 546 -8 q 414 -1 456 -14 q 368 17 390 6 q 328 47 346 29 q 303 87 313 64 q 290 133 294 110 q 281 196 283 164 q 279 260 279 228 q 281 298 279 269 q 283 359 282 326 q 286 420 285 392 q 289 458 288 449 q 242 475 265 465 q 199 499 219 485 q 83 613 131 542 q 18 763 35 683 q 11 819 13 790 q 14 875 10 847 q 21 906 17 890 q 33 936 25 922 q 53 963 42 951 q 79 985 65 975 q 135 1013 104 1003 q 195 1022 165 1022 q 253 1010 225 1021 q 300 975 281 999 q 328 924 310 963 q 366 844 346 886 q 406 765 386 801 q 439 719 425 729 q 458 708 447 713 q 481 707 469 704 q 527 734 507 714 q 563 776 547 754 q 619 858 593 817 q 669 943 644 900 q 705 981 682 965 q 756 1002 728 996 q 814 1008 785 1008 q 868 999 843 1007 q 924 964 903 988 q 962 886 954 931 q 960 795 969 842 q 927 704 950 749 q 874 626 904 660 q 771 533 826 575 q 653 460 715 492 q 667 302 663 381 q 664 144 671 224 q 660 111 663 128 q 653 78 658 94 q 626 39 644 56 q 585 11 607 22 m 103 951 q 122 932 107 936 q 149 938 136 928 q 160 963 161 947 q 144 985 158 978 q 114 981 128 992 q 103 951 100 969 m 668 840 q 681 826 672 829 q 699 824 690 822 q 715 833 708 826 q 721 851 721 840 q 731 872 725 860 q 743 894 736 883 q 758 915 750 906 q 774 926 765 924 q 795 950 793 931 q 779 978 797 969 q 760 980 771 982 q 740 972 749 978 q 694 924 714 954 q 684 906 690 917 q 673 882 678 894 q 666 858 668 869 q 668 840 664 847 m 189 543 q 207 537 197 536 q 224 543 217 538 q 233 558 231 549 q 232 576 236 567 q 221 590 229 581 q 203 608 213 599 q 184 625 193 617 q 172 638 175 633 q 161 651 167 644 q 150 665 156 658 q 96 788 107 719 q 93 807 94 794 q 92 833 92 819 q 92 858 92 846 q 96 875 93 869 q 90 907 104 893 q 57 911 75 921 q 40 889 43 904 q 38 799 31 844 q 61 708 46 753 q 72 687 64 703 q 83 667 79 671 q 116 619 100 643 q 154 576 132 594 q 172 560 164 569 q 189 543 179 550 z "},"z":{"ha":760,"x_min":22,"x_max":738,"o":"m 483 -29 q 324 -32 404 -36 q 165 -4 243 -28 q 103 22 133 6 q 51 64 72 38 q 28 111 35 85 q 28 165 22 138 q 53 238 35 203 q 90 306 71 272 q 165 422 125 365 q 246 535 206 479 q 326 649 286 592 q 400 765 365 706 q 312 742 357 750 q 221 732 267 735 q 165 733 193 731 q 108 743 136 735 q 73 758 90 749 q 44 782 56 767 q 29 813 33 796 q 24 849 25 831 q 30 909 22 879 q 53 965 38 939 q 65 982 58 974 q 79 996 71 990 q 130 1017 103 1011 q 185 1025 157 1024 q 442 1029 311 1029 q 508 1027 475 1028 q 574 1022 542 1026 q 652 992 614 1017 q 710 932 690 968 q 731 859 726 899 q 726 783 735 819 q 710 737 721 760 q 686 692 699 714 q 544 467 622 575 q 394 246 465 358 q 467 259 424 253 q 556 265 511 265 q 640 256 600 265 q 700 225 679 247 q 727 182 717 207 q 736 133 738 157 q 719 70 735 101 q 678 21 704 39 q 585 -17 636 -8 q 483 -29 533 -26 m 85 940 q 83 918 78 928 q 97 904 88 908 q 118 903 107 900 q 136 918 129 906 q 147 928 139 922 q 157 938 154 935 q 181 945 168 944 q 204 947 193 946 q 216 950 211 949 q 228 950 221 951 q 250 954 242 947 q 261 972 258 961 q 259 992 264 982 q 240 1006 254 1003 q 220 1006 235 1007 q 200 1003 206 1004 q 171 999 185 1000 q 143 993 157 999 q 109 972 125 986 q 85 940 93 958 m 428 757 q 419 739 419 749 q 425 722 419 729 q 440 710 431 714 q 461 713 450 707 q 474 726 471 717 q 476 744 478 735 q 467 760 474 753 q 449 767 460 767 q 428 757 438 767 m 199 408 q 197 376 188 393 q 226 364 207 360 q 248 379 240 367 q 263 403 256 392 q 277 431 269 418 q 296 457 285 444 q 308 473 303 465 q 321 490 314 481 q 375 569 347 531 q 433 647 403 608 q 434 678 444 663 q 404 690 424 694 q 383 675 392 688 q 367 651 375 663 q 349 626 363 644 q 320 588 335 608 q 292 548 306 567 q 275 522 279 529 q 268 512 274 519 q 256 495 263 504 q 243 478 249 486 q 236 468 238 471 q 228 457 233 465 q 218 438 224 449 q 207 419 213 428 q 199 408 201 411 z "},"{":{"ha":531,"x_min":29,"x_max":544,"o":"m 360 -26 q 266 -20 314 -32 q 182 19 218 -8 q 127 90 147 47 q 103 176 107 132 q 104 251 99 214 q 110 326 110 289 q 103 373 108 350 q 86 415 99 396 q 66 434 79 428 q 40 446 53 440 q 30 463 29 451 q 42 482 31 475 q 71 505 57 493 q 94 532 85 517 q 109 569 106 549 q 111 610 113 590 q 105 667 110 638 q 97 724 100 696 q 101 819 94 771 q 129 908 108 867 q 173 969 146 942 q 235 1011 200 996 q 298 1027 264 1025 q 364 1026 332 1029 q 536 971 454 1015 q 542 963 540 968 q 542 951 544 957 q 533 944 539 947 q 524 944 528 942 q 476 963 503 958 q 425 958 449 968 q 378 923 397 947 q 351 869 358 899 q 346 777 340 824 q 354 683 351 731 q 353 622 356 653 q 342 563 350 592 q 269 478 322 503 q 315 458 293 469 q 353 428 338 447 q 376 369 372 403 q 381 304 379 336 q 379 249 381 283 q 379 178 378 214 q 388 111 381 142 q 413 67 396 81 q 445 60 424 58 q 479 67 467 61 q 492 72 486 69 q 504 76 497 74 q 517 70 511 79 q 518 54 522 61 q 481 19 503 32 q 436 -4 460 6 q 398 -18 417 -12 q 360 -26 379 -24 m 260 957 q 285 942 267 942 q 310 957 303 942 q 310 981 317 968 q 290 997 304 994 q 263 987 274 1001 q 260 957 253 972 m 138 592 q 162 569 142 572 q 190 586 182 567 q 192 605 193 592 q 190 633 192 618 q 187 661 189 647 q 185 682 185 675 q 186 763 183 722 q 200 842 189 803 q 215 879 206 861 q 242 906 224 897 q 257 931 257 913 q 242 956 257 949 q 205 949 224 964 q 175 918 186 933 q 165 903 172 915 q 157 889 158 892 q 132 788 138 840 q 129 682 126 735 q 133 658 131 676 q 135 633 135 639 q 135 613 135 629 q 138 592 136 596 z "},"}":{"ha":531,"x_min":-17,"x_max":501,"o":"m 338 11 q 261 -21 303 -11 q 178 -28 219 -31 q 132 -18 154 -25 q 89 -1 110 -11 q 52 18 69 8 q 19 43 35 28 q 11 60 13 50 q 19 75 10 71 q 24 76 22 75 q 26 76 25 76 q 51 67 39 72 q 78 61 64 63 q 98 60 88 60 q 115 65 108 60 q 138 97 131 75 q 149 147 146 119 q 151 200 151 174 q 151 244 151 226 q 151 302 151 274 q 154 360 151 331 q 163 397 157 379 q 179 431 168 415 q 217 460 194 450 q 261 478 239 469 q 203 532 225 494 q 182 594 188 560 q 176 660 176 628 q 183 741 178 700 q 186 822 188 782 q 178 877 185 850 q 153 925 171 904 q 117 951 138 940 q 75 964 97 963 q 41 960 58 965 q 8 944 24 954 q -10 950 -4 938 q -6 969 -17 963 q 42 993 18 982 q 90 1011 65 1004 q 182 1028 135 1022 q 274 1019 229 1033 q 338 987 308 1010 q 388 933 368 964 q 426 837 415 889 q 433 733 436 785 q 426 673 432 703 q 419 613 421 643 q 422 572 418 593 q 435 533 425 551 q 459 505 444 517 q 489 482 474 493 q 497 474 493 479 q 500 461 501 468 q 499 453 500 456 q 473 437 488 442 q 447 421 458 432 q 429 385 433 406 q 422 343 425 364 q 424 278 419 311 q 429 213 429 244 q 421 135 431 174 q 390 65 411 97 q 338 11 371 33 m 156 1011 q 138 997 142 1008 q 138 975 133 986 q 151 958 142 964 q 174 957 161 951 q 190 974 186 964 q 192 994 194 985 q 179 1008 189 1003 q 156 1011 169 1014 m 215 588 q 224 567 215 574 q 242 560 232 560 q 262 567 253 560 q 271 589 271 575 q 278 704 271 646 q 276 819 286 763 q 270 850 274 832 q 260 887 267 868 q 246 920 254 906 q 226 940 238 935 q 194 935 208 949 q 189 903 181 921 q 194 896 192 899 q 200 889 197 893 q 206 874 201 886 q 211 858 210 861 q 224 772 225 817 q 221 683 224 728 q 217 635 218 660 q 215 588 215 611 z "},"~":{"ha":939,"x_min":29,"x_max":917,"o":"m 206 218 q 176 209 193 210 q 142 213 160 208 q 108 225 125 217 q 81 242 92 233 q 60 260 69 250 q 43 281 50 269 q 32 315 35 296 q 31 351 29 333 q 58 467 35 411 q 110 546 78 510 q 182 607 142 582 q 236 630 207 622 q 294 636 265 638 q 322 635 308 636 q 350 628 336 633 q 399 600 376 617 q 444 565 422 583 q 489 529 467 547 q 536 497 511 511 q 563 486 549 490 q 592 485 576 482 q 608 489 600 486 q 624 499 617 492 q 638 514 628 503 q 658 538 647 525 q 678 561 668 550 q 692 576 688 572 q 725 601 706 593 q 766 610 744 610 q 809 604 788 611 q 849 585 831 597 q 881 556 867 572 q 903 518 896 539 q 907 453 917 488 q 878 385 896 417 q 836 324 860 353 q 785 267 813 294 q 724 225 758 240 q 672 212 699 215 q 617 213 644 208 q 524 244 568 219 q 443 303 479 269 q 417 329 429 315 q 386 350 404 343 q 329 347 358 361 q 285 313 304 335 q 250 268 267 292 q 230 241 240 254 q 206 218 219 228 m 69 365 q 78 344 69 351 q 97 338 86 338 q 115 344 107 338 q 125 365 124 351 q 125 378 125 372 q 128 390 125 383 q 143 429 135 410 q 167 464 151 449 q 183 483 176 472 q 199 500 190 493 q 220 514 203 504 q 242 526 238 524 q 257 530 249 531 q 272 532 265 529 q 292 545 286 535 q 295 566 297 556 q 284 583 293 576 q 261 588 275 590 q 249 586 257 586 q 229 581 242 586 q 204 569 217 576 q 181 556 192 563 q 164 543 169 549 q 156 536 161 542 q 147 524 151 531 q 137 513 142 518 q 131 506 132 507 q 99 464 111 488 q 78 415 86 440 q 71 390 74 403 q 69 365 68 378 m 332 535 q 342 515 332 521 q 363 511 351 510 q 383 520 375 513 q 389 542 392 528 q 376 562 386 556 q 357 567 367 568 q 340 557 347 565 q 332 535 332 549 z "}," ":{"ha":417,"x_min":0,"x_max":0,"o":""},"¢":{"ha":664,"x_min":31,"x_max":626,"o":"m 454 28 q 428 4 444 13 q 394 -8 413 -4 q 356 -10 375 -11 q 321 -1 338 -8 q 283 21 301 6 q 261 57 264 36 q 262 73 261 61 q 264 97 263 85 q 267 122 265 110 q 269 138 269 133 q 204 161 236 147 q 144 196 172 175 q 119 217 131 207 q 97 242 107 228 q 53 330 69 282 q 35 426 38 378 q 45 553 31 490 q 86 675 60 617 q 117 732 100 704 q 158 781 135 760 q 217 822 185 804 q 282 849 249 839 q 276 888 279 868 q 276 926 274 907 q 285 955 278 940 q 304 978 292 969 q 369 998 332 996 q 439 989 407 1000 q 486 942 474 978 q 492 892 493 918 q 489 842 492 867 q 559 802 525 826 q 611 742 593 778 q 624 695 622 721 q 620 644 626 669 q 601 598 614 619 q 568 563 588 576 q 535 547 553 551 q 499 544 517 543 q 451 553 475 546 q 401 565 426 560 q 331 568 365 574 q 300 549 311 564 q 285 517 288 535 q 287 485 282 500 q 303 461 292 471 q 335 453 315 451 q 405 468 371 456 q 475 485 439 481 q 532 476 504 488 q 568 447 554 468 q 592 404 582 426 q 613 351 604 379 q 619 294 621 322 q 590 217 617 253 q 536 167 568 188 q 469 135 504 147 q 470 79 471 107 q 454 28 469 51 m 224 767 q 237 749 226 756 q 258 746 247 743 q 280 770 278 750 q 264 799 282 790 q 235 795 249 806 q 224 767 221 785 m 93 356 q 114 338 100 342 q 139 342 128 333 q 149 360 149 349 q 143 382 150 372 q 140 392 142 385 q 138 403 139 400 q 131 478 128 439 q 144 554 135 518 q 157 600 150 578 q 175 644 164 622 q 183 658 178 651 q 192 672 189 665 q 210 689 199 685 q 225 706 222 694 q 223 726 228 717 q 207 740 218 736 q 183 739 196 744 q 163 724 176 736 q 147 706 150 713 q 136 688 144 703 q 125 668 128 672 q 83 540 96 608 q 81 406 69 472 q 86 381 82 400 q 93 356 90 361 z "},"£":{"ha":832,"x_min":28,"x_max":803,"o":"m 718 -14 q 651 -33 686 -29 q 581 -32 615 -36 q 488 -10 532 -26 q 396 14 443 6 q 352 18 374 17 q 308 17 331 19 q 244 0 276 11 q 181 -18 213 -11 q 142 -22 163 -22 q 101 -16 121 -21 q 65 -1 81 -11 q 40 26 49 10 q 29 72 31 47 q 34 122 28 97 q 52 168 40 146 q 82 204 64 190 q 103 215 92 211 q 126 222 115 219 q 147 226 133 224 q 175 232 161 229 q 201 239 189 235 q 218 249 214 243 q 225 269 224 256 q 226 299 226 283 q 226 329 226 314 q 224 353 225 344 q 178 351 200 353 q 132 351 156 349 q 90 368 108 353 q 74 389 81 375 q 64 419 68 403 q 58 451 60 435 q 60 479 57 467 q 69 504 63 492 q 88 524 76 517 q 117 540 101 533 q 147 549 132 546 q 168 551 158 551 q 189 549 178 550 q 168 663 172 604 q 175 781 164 722 q 196 853 182 817 q 232 919 210 889 q 315 992 265 964 q 377 1013 344 1007 q 443 1022 410 1019 q 528 1017 482 1025 q 618 990 575 1008 q 695 944 661 972 q 742 881 729 917 q 750 824 751 853 q 740 770 749 796 q 713 722 731 744 q 671 688 694 700 q 606 675 639 669 q 569 688 586 678 q 542 714 553 699 q 513 752 526 732 q 479 783 500 772 q 445 775 460 792 q 426 738 431 758 q 424 645 417 693 q 443 553 432 597 q 494 559 464 556 q 556 563 525 563 q 615 558 588 564 q 654 536 642 553 q 678 462 678 504 q 656 385 679 419 q 627 366 647 372 q 583 358 607 360 q 537 356 560 356 q 499 357 514 357 q 496 328 497 342 q 492 300 494 315 q 485 277 490 294 q 482 253 481 260 q 500 238 486 243 q 540 232 519 231 q 579 238 560 233 q 629 247 604 242 q 679 254 654 251 q 716 252 697 257 q 749 235 735 247 q 780 194 767 218 q 798 142 793 169 q 799 89 803 115 q 782 40 796 63 q 718 -14 758 4 m 389 957 q 407 937 392 942 q 433 942 422 932 q 444 967 446 951 q 428 989 443 982 q 399 985 413 996 q 389 957 385 975 m 221 567 q 236 552 226 556 q 255 551 246 549 q 269 563 264 554 q 274 585 275 572 q 271 599 274 589 q 265 622 268 610 q 260 645 263 635 q 258 660 258 656 q 256 733 254 696 q 268 804 257 769 q 274 820 269 810 q 284 842 279 831 q 295 862 289 853 q 306 875 301 871 q 328 894 317 885 q 351 911 339 904 q 367 931 365 919 q 363 953 369 943 q 346 966 357 963 q 322 960 335 969 q 314 955 318 957 q 307 950 310 953 q 298 942 304 947 q 284 930 292 936 q 270 918 276 924 q 263 910 264 913 q 244 885 251 899 q 231 858 238 872 q 226 847 229 856 q 219 828 222 838 q 213 809 215 818 q 208 796 210 800 q 201 740 201 768 q 200 685 200 713 q 202 660 200 676 q 207 624 204 643 q 214 590 210 606 q 221 567 218 574 z "},"¤":{"ha":1018,"x_min":40,"x_max":986,"o":"m 224 -24 q 174 -29 201 -33 q 142 -17 158 -25 q 113 1 126 -10 q 89 26 99 13 q 79 54 79 39 q 83 97 78 76 q 100 138 89 118 q 129 183 113 161 q 165 226 146 206 q 101 342 124 278 q 75 473 78 406 q 90 606 72 540 q 144 725 107 671 q 109 760 126 744 q 74 796 92 776 q 44 843 53 817 q 46 882 40 863 q 61 918 51 901 q 101 964 78 946 q 136 981 117 975 q 175 985 156 988 q 223 960 201 978 q 263 924 244 943 q 290 888 276 906 q 318 854 303 871 q 409 879 363 871 q 503 889 456 888 q 598 878 551 889 q 688 849 644 868 q 726 898 707 874 q 768 944 746 922 q 789 964 778 956 q 814 978 800 972 q 868 985 840 988 q 920 968 896 982 q 962 931 944 954 q 983 881 979 908 q 985 849 986 865 q 978 819 985 833 q 927 747 958 779 q 868 681 896 715 q 891 619 883 651 q 903 556 899 588 q 906 465 908 511 q 893 374 904 418 q 869 313 883 342 q 835 256 854 283 q 900 175 875 218 q 917 142 910 160 q 925 106 925 125 q 917 58 926 81 q 892 18 908 35 q 853 -8 875 1 q 804 -17 831 -18 q 774 -11 789 -17 q 749 6 760 -6 q 706 63 724 32 q 664 122 688 94 q 616 105 640 113 q 567 93 592 97 q 456 92 511 86 q 347 113 400 97 q 293 35 321 75 q 224 -24 265 -4 m 208 675 q 233 676 219 671 q 247 690 243 681 q 248 708 250 699 q 239 723 246 717 q 221 729 232 729 q 200 722 208 729 q 190 706 192 715 q 192 688 188 697 q 208 675 196 679 m 411 342 q 489 307 447 311 q 569 319 531 303 q 636 368 607 335 q 676 447 665 401 q 681 519 685 483 q 660 587 676 556 q 618 643 644 618 q 558 682 592 668 q 512 694 536 692 q 464 692 488 697 q 403 663 431 685 q 359 612 376 642 q 335 547 342 582 q 333 479 328 513 q 360 403 340 439 q 411 342 381 367 m 154 317 q 174 303 163 304 q 194 309 186 303 q 206 326 203 315 q 200 349 208 338 q 176 390 185 368 q 164 435 167 411 q 167 572 151 503 q 171 588 168 575 q 176 603 174 600 q 178 609 178 606 q 182 613 179 613 q 199 638 199 619 q 183 663 199 656 q 146 656 163 672 q 122 617 129 639 q 113 587 117 601 q 107 557 110 572 q 106 450 99 507 q 113 404 108 426 q 126 360 117 382 q 132 351 128 357 q 140 338 136 346 q 149 324 144 331 q 154 317 153 318 z "},"¥":{"ha":1008,"x_min":29,"x_max":990,"o":"m 617 18 q 539 -9 581 -3 q 457 -7 497 -15 q 403 10 429 0 q 357 39 378 21 q 333 69 342 51 q 317 104 324 86 q 263 99 290 100 q 213 108 236 97 q 183 139 193 118 q 171 181 174 160 q 186 225 171 207 q 238 257 207 249 q 300 271 269 265 l 300 300 q 251 292 276 296 q 201 289 226 289 q 165 295 183 289 q 136 317 147 301 q 121 360 122 335 q 126 406 119 385 q 135 426 131 417 q 149 443 140 436 q 197 469 169 461 q 250 481 224 476 q 104 614 160 528 q 53 713 74 660 q 31 821 33 765 q 34 882 29 851 q 54 939 39 913 q 97 983 71 964 q 154 1012 124 1001 q 217 1022 185 1022 q 276 1010 249 1022 q 319 975 304 996 q 340 940 326 967 q 369 882 354 913 q 396 824 383 851 q 414 786 408 796 q 434 747 424 767 q 463 717 444 728 q 501 707 482 703 q 537 726 519 711 q 570 760 554 740 q 600 800 586 781 q 645 870 624 835 q 688 943 667 906 q 740 992 706 976 q 802 1007 769 1004 q 865 1004 835 1010 q 936 971 907 996 q 982 881 975 933 q 966 748 990 815 q 899 632 942 681 q 813 551 858 588 q 717 483 767 515 q 742 481 725 483 q 778 476 760 479 q 814 468 797 472 q 838 458 831 464 q 865 433 853 447 q 881 401 878 419 q 874 339 885 367 q 846 306 864 315 q 822 296 835 299 q 796 296 808 293 q 740 303 768 299 q 683 314 711 308 q 685 290 685 303 q 686 267 685 278 q 719 259 700 264 q 758 247 739 254 q 790 230 776 240 q 807 206 804 219 q 800 151 813 178 q 763 114 788 125 q 722 106 743 104 q 681 111 700 108 q 673 82 678 96 q 661 57 668 68 q 617 18 644 32 m 685 858 q 690 826 676 840 q 722 821 704 813 q 735 836 732 825 q 744 857 739 847 q 751 869 746 861 q 763 885 757 876 q 775 901 769 893 q 783 911 781 908 q 810 926 790 918 q 839 935 829 935 q 857 941 850 935 q 866 956 864 947 q 865 974 868 965 q 851 988 861 983 q 830 990 843 992 q 803 984 817 989 q 777 972 789 979 q 757 960 765 965 q 742 945 751 956 q 723 922 732 935 q 706 898 714 910 q 694 881 697 886 q 690 869 692 875 q 685 858 688 864 m 99 910 q 83 892 86 903 q 85 872 81 881 q 99 857 89 863 q 122 858 110 851 q 138 875 135 864 q 135 896 140 886 q 121 910 131 906 q 99 910 111 915 m 274 500 q 297 499 286 494 q 312 513 307 504 q 314 533 317 522 q 299 550 311 544 q 269 570 288 556 q 231 603 250 585 q 197 638 213 621 q 175 667 181 656 q 146 725 160 694 q 132 788 132 756 q 126 806 132 799 q 110 815 119 813 q 92 813 101 817 q 79 800 83 810 q 76 781 75 793 q 78 756 76 769 q 85 729 81 742 q 92 710 89 717 q 112 664 100 686 q 139 621 124 642 q 181 572 158 594 q 229 531 204 550 q 246 519 232 528 q 263 508 260 511 q 274 500 265 506 z "},"­":{"ha":0,"x_min":0,"x_max":0,"o":""},"±":{"ha":751,"x_min":38,"x_max":715,"o":"m 481 356 q 420 337 453 340 q 356 336 388 333 q 322 342 339 339 q 290 353 306 346 q 274 363 282 357 q 260 376 265 368 q 238 431 243 401 q 229 490 232 461 q 164 486 197 488 q 99 496 131 485 q 47 553 58 511 q 40 598 43 571 q 40 653 38 625 q 48 705 42 681 q 68 742 54 729 q 106 764 83 757 q 165 773 135 772 q 225 771 196 774 q 223 824 224 797 q 225 878 222 850 q 238 922 228 900 q 265 956 247 944 q 299 967 276 963 q 344 973 321 971 q 391 974 368 975 q 426 972 414 974 q 470 952 450 968 q 500 915 490 936 q 517 851 514 885 q 518 785 519 818 q 567 788 543 786 q 617 788 592 789 q 649 783 632 786 q 679 771 665 779 q 693 757 686 764 q 703 740 700 750 q 715 688 714 715 q 715 632 715 660 q 714 597 715 614 q 707 563 713 579 q 633 501 690 508 q 582 500 607 499 q 531 503 557 501 q 527 447 529 475 q 514 392 525 418 q 500 371 508 381 q 481 356 492 361 m 361 900 q 389 885 369 882 q 413 908 408 889 q 411 926 415 918 q 399 939 407 935 q 365 934 379 949 q 361 900 351 919 m 268 738 q 285 727 275 729 q 304 728 296 725 q 317 740 313 732 q 319 760 322 749 q 317 783 317 768 q 318 815 317 799 q 322 845 319 831 q 328 867 324 860 q 333 874 329 869 q 335 906 344 889 q 306 918 325 922 q 286 905 294 915 q 274 883 278 894 q 262 824 263 856 q 261 763 261 793 q 268 738 261 746 m 533 -8 q 486 -9 518 -8 q 413 -10 454 -10 q 328 -10 372 -10 q 242 -8 283 -10 q 169 -6 201 -7 q 124 -1 138 -4 q 88 12 106 1 q 64 38 71 22 q 47 112 49 71 q 67 183 46 153 q 77 197 71 190 q 90 206 83 203 q 135 219 106 214 q 200 226 164 224 q 276 228 236 228 q 352 228 315 229 q 419 226 389 228 q 467 225 449 225 q 556 224 511 224 q 639 204 600 224 q 667 169 660 193 q 675 126 672 150 q 675 81 678 103 q 663 40 672 58 q 636 13 654 21 q 586 -3 613 1 q 533 -8 560 -7 m 136 132 q 163 130 149 125 q 190 136 176 135 q 206 137 194 136 q 231 138 218 138 q 255 138 243 138 q 271 138 267 138 q 285 137 275 138 q 305 136 294 136 q 324 136 315 136 q 338 138 333 136 q 351 152 347 143 q 352 169 354 161 q 343 184 350 178 q 325 190 336 190 q 294 191 317 190 q 248 192 272 192 q 202 192 224 193 q 172 189 181 192 q 150 185 165 188 q 131 179 135 182 q 121 153 119 168 q 136 132 122 139 m 393 138 q 423 140 408 129 q 433 169 438 151 q 415 190 431 185 q 389 185 400 196 q 377 160 376 175 q 393 138 378 144 z "},"×":{"ha":700,"x_min":35,"x_max":664,"o":"m 350 196 q 313 159 335 181 q 265 118 290 138 q 215 86 240 99 q 169 78 190 74 q 105 110 133 85 q 57 165 76 135 q 45 188 50 176 q 39 210 40 199 q 51 256 38 229 q 86 309 65 282 q 128 360 107 336 q 164 397 150 383 q 122 443 147 417 q 77 497 97 469 q 46 553 57 525 q 44 606 35 582 q 119 699 68 665 q 149 713 133 707 q 182 719 165 718 q 217 713 200 721 q 247 694 233 706 q 300 649 275 672 q 350 601 325 625 q 376 626 358 610 q 416 661 394 643 q 457 695 438 679 q 488 715 476 711 q 538 718 511 724 q 583 697 564 713 q 616 667 600 685 q 643 630 632 650 q 659 589 654 610 q 656 550 664 568 q 643 526 650 538 q 628 503 636 514 q 583 449 606 475 q 536 397 560 424 q 572 360 550 383 q 614 310 593 336 q 649 257 635 283 q 661 211 663 231 q 649 173 660 193 q 622 134 638 153 q 587 101 606 115 q 551 82 568 88 q 478 89 514 68 q 410 137 442 108 q 350 196 379 165 m 425 631 q 424 608 419 618 q 438 593 429 597 q 458 591 447 589 q 475 606 468 593 q 497 628 482 617 q 525 640 513 640 q 551 656 543 640 q 547 685 558 671 q 518 697 536 699 q 486 686 500 696 q 466 674 476 679 q 447 660 456 668 q 435 646 442 653 q 425 631 429 639 m 106 600 q 138 604 124 590 q 143 636 151 618 q 127 651 138 647 q 106 650 117 656 q 90 624 90 642 q 106 600 89 607 m 168 421 q 197 424 183 414 q 207 453 211 435 q 199 466 204 460 q 188 478 194 472 q 163 503 175 490 q 143 532 151 517 q 138 547 140 539 q 133 561 136 554 q 110 583 129 581 q 82 567 90 585 q 80 547 78 557 q 86 526 82 536 q 98 498 92 511 q 115 474 104 485 q 125 462 118 469 q 140 446 132 454 q 156 430 149 438 q 168 421 164 422 z "},"÷":{"ha":667,"x_min":19,"x_max":649,"o":"m 385 594 q 328 590 357 588 q 275 607 299 593 q 235 645 249 621 q 221 697 222 669 q 231 749 219 724 q 267 793 243 775 q 351 818 303 822 q 401 806 376 815 q 442 778 425 796 q 466 702 469 747 q 435 626 463 657 q 412 606 424 615 q 385 594 400 597 m 378 735 q 401 727 389 725 q 419 738 413 729 q 425 758 425 746 q 414 779 425 769 q 392 785 403 788 q 374 774 381 782 q 367 754 367 765 q 378 735 367 743 m 456 261 q 387 261 436 261 q 281 262 338 261 q 176 264 225 263 q 108 268 126 265 q 77 276 93 271 q 51 292 61 281 q 28 336 35 311 q 21 386 22 361 q 19 417 19 401 q 24 447 19 432 q 54 506 31 483 q 74 518 63 514 q 99 525 86 522 q 278 538 188 540 q 460 533 368 535 q 501 533 476 533 q 551 528 526 532 q 597 517 576 525 q 626 494 618 508 q 640 456 635 479 q 647 408 646 433 q 647 360 649 383 q 636 322 644 336 q 620 299 629 310 q 597 282 611 288 q 528 265 564 267 q 456 261 492 263 m 89 435 q 107 433 97 432 q 125 438 117 435 q 139 438 128 438 q 153 440 150 439 q 183 442 163 442 q 227 442 204 443 q 271 440 250 442 q 301 438 292 439 q 322 441 314 435 q 334 456 331 447 q 334 476 338 465 q 319 492 331 486 q 310 494 315 494 q 300 494 306 493 q 267 496 283 494 q 235 500 251 497 q 210 499 228 500 q 174 498 193 499 q 137 495 154 497 q 113 492 119 493 q 101 489 104 489 q 83 482 90 489 q 74 466 76 475 q 76 448 72 457 q 89 435 79 439 m 361 433 q 378 427 368 428 q 394 429 388 426 q 410 458 413 438 q 389 482 408 478 q 368 480 378 485 q 354 467 358 475 q 351 450 350 460 q 361 433 351 440 m 378 -8 q 322 -12 351 -15 q 268 4 292 -10 q 228 42 242 18 q 215 94 215 67 q 226 147 214 121 q 261 190 238 172 q 344 215 297 219 q 394 203 369 213 q 435 175 418 193 q 460 99 464 144 q 428 24 456 54 q 406 3 418 13 q 378 -8 393 -6 m 351 128 q 377 113 360 113 q 403 129 394 113 q 404 152 408 140 q 389 171 400 164 q 370 173 379 175 q 356 164 361 171 q 349 147 350 157 q 351 128 347 138 z "},"‘":{"ha":294,"x_min":32,"x_max":261,"o":"m 194 649 q 143 626 174 625 q 89 650 113 626 q 63 691 72 667 q 49 739 54 715 q 38 799 42 769 q 33 861 35 829 q 34 906 32 883 q 44 949 36 928 q 77 992 56 976 q 128 1010 99 1007 q 163 1010 146 1010 q 196 1003 181 1010 q 244 960 229 989 q 258 924 254 943 q 261 886 261 906 q 238 732 261 810 q 220 688 231 708 q 194 649 210 667 m 183 872 q 217 881 203 863 q 221 916 232 899 q 186 928 210 933 q 165 902 165 922 q 183 872 164 882 z "},"’":{"ha":294,"x_min":32,"x_max":261,"o":"m 194 649 q 143 626 174 625 q 89 650 113 626 q 63 691 72 667 q 49 739 54 715 q 38 799 42 769 q 33 861 35 829 q 34 906 32 883 q 44 949 36 928 q 77 992 56 976 q 128 1010 99 1007 q 163 1010 146 1010 q 196 1003 181 1010 q 244 960 229 989 q 258 924 254 943 q 261 886 261 906 q 238 732 261 810 q 220 688 231 708 q 194 649 210 667 m 157 915 q 171 898 161 903 q 190 895 181 893 q 206 906 199 897 q 213 928 213 914 q 206 946 213 939 q 192 955 200 953 q 174 953 183 957 q 160 940 165 950 q 157 927 158 936 q 157 915 156 918 z "},"“":{"ha":576,"x_min":32,"x_max":543,"o":"m 194 650 q 143 627 174 626 q 89 651 113 628 q 63 693 72 669 q 49 740 54 717 q 38 801 42 771 q 33 863 35 831 q 34 907 32 885 q 44 950 36 929 q 77 993 56 978 q 128 1011 99 1008 q 163 1012 146 1013 q 196 1004 181 1011 q 244 961 229 990 q 258 926 254 944 q 261 888 261 907 q 238 733 261 811 q 220 689 231 710 q 194 650 210 668 m 476 638 q 425 615 456 614 q 371 638 394 615 q 344 679 353 656 q 331 726 336 703 q 320 788 324 757 q 315 849 317 818 q 316 893 314 871 q 326 936 318 915 q 359 979 338 964 q 410 997 381 994 q 445 998 428 999 q 478 990 463 997 q 506 973 493 983 q 526 949 519 963 q 539 913 536 932 q 543 874 542 893 q 519 719 543 797 q 502 676 513 697 q 476 638 492 654 m 160 892 q 190 876 169 872 q 215 901 211 881 q 204 930 219 919 q 172 932 189 940 q 158 915 161 926 q 160 892 154 903 m 449 889 q 474 874 456 874 q 499 890 492 874 q 496 919 507 906 q 467 929 485 933 q 447 914 453 926 q 449 889 442 901 z "},"”":{"ha":576,"x_min":32,"x_max":543,"o":"m 194 650 q 143 627 174 626 q 89 651 113 628 q 63 693 72 669 q 49 740 54 717 q 38 801 42 771 q 33 863 35 831 q 34 907 32 885 q 44 950 36 929 q 77 993 56 978 q 128 1011 99 1008 q 163 1012 146 1013 q 196 1004 181 1011 q 244 961 229 990 q 258 926 254 944 q 261 888 261 907 q 238 733 261 811 q 220 689 231 710 q 194 650 210 668 m 476 638 q 425 615 456 614 q 371 638 394 615 q 344 679 353 656 q 331 726 336 703 q 320 788 324 757 q 315 849 317 818 q 316 893 314 871 q 326 936 318 915 q 359 979 338 964 q 410 997 381 994 q 445 998 428 999 q 478 990 463 997 q 506 973 493 983 q 526 949 519 963 q 539 913 536 932 q 543 874 542 893 q 519 719 543 797 q 502 676 513 697 q 476 638 492 654 m 457 896 q 486 892 471 885 q 501 918 501 900 q 489 942 501 933 q 461 943 476 950 q 445 921 446 936 q 457 896 444 906 m 175 919 q 185 892 171 903 q 214 889 199 882 q 230 906 225 894 q 229 928 235 917 q 199 944 219 947 q 175 919 179 940 z "},"€":{"ha":857,"x_min":22,"x_max":826,"o":"m 658 19 q 556 -24 613 -11 q 446 -36 500 -37 q 356 -25 401 -35 q 272 8 311 -15 q 199 74 231 33 q 149 161 167 115 q 124 244 133 201 q 107 329 114 286 q 69 343 92 332 q 40 369 46 354 q 37 421 31 394 q 68 456 43 447 q 100 465 82 461 q 101 481 100 472 q 101 496 101 489 q 67 501 85 497 q 38 518 49 506 q 26 559 22 533 q 43 603 29 585 q 57 612 47 608 q 78 617 67 615 q 101 621 90 619 q 119 622 113 622 q 152 733 132 679 q 200 839 172 788 q 258 914 222 879 q 336 968 293 949 q 444 999 388 992 q 557 999 501 1006 q 623 985 590 993 q 686 961 656 976 q 732 938 710 950 q 771 906 754 925 q 815 824 804 869 q 816 735 826 778 q 776 658 806 693 q 699 608 746 624 q 662 601 682 603 q 622 602 642 599 q 586 614 603 606 q 561 638 569 622 q 551 665 554 650 q 540 690 549 679 q 499 712 525 711 q 454 697 474 713 q 424 666 436 685 q 401 628 413 647 q 442 628 418 628 q 490 624 465 628 q 535 614 514 621 q 564 594 556 607 q 572 540 579 571 q 563 520 569 529 q 547 506 557 511 q 510 497 536 499 q 457 497 485 496 q 403 499 429 497 q 363 501 376 501 q 360 485 361 493 q 358 469 360 476 q 429 471 394 468 q 499 467 464 474 q 522 461 510 465 q 540 449 533 457 q 550 431 547 442 q 551 411 553 421 q 538 374 549 392 q 511 349 528 356 q 442 333 478 335 q 369 329 406 331 q 385 297 376 313 q 406 269 393 281 q 460 242 426 246 q 492 242 475 239 q 521 258 510 246 q 540 301 535 276 q 561 343 544 326 q 593 366 574 356 q 633 381 613 376 q 675 385 654 386 q 711 376 696 385 q 735 360 724 369 q 753 338 746 350 q 771 276 768 310 q 768 210 774 242 q 746 134 761 171 q 707 67 731 97 q 685 41 696 53 q 658 19 674 29 m 428 936 q 449 914 432 918 q 478 925 467 910 q 483 951 489 936 q 463 969 478 965 q 436 962 447 972 q 428 936 425 951 m 158 631 q 173 617 164 621 q 191 616 182 614 q 206 625 200 618 q 213 643 213 632 q 216 661 213 649 q 225 687 219 674 q 235 713 231 700 q 243 731 240 725 q 277 802 258 767 q 325 864 296 838 q 346 881 335 874 q 367 897 357 888 q 379 903 372 901 q 390 911 386 906 q 397 933 397 921 q 386 951 396 944 q 358 956 375 963 q 331 939 342 950 q 323 933 329 938 q 310 923 317 928 q 297 913 303 918 q 289 907 290 908 q 258 872 272 890 q 232 835 243 854 q 197 764 213 800 q 167 690 182 728 q 158 660 163 681 q 158 631 154 640 z "},"™":{"ha":989,"x_min":22,"x_max":953,"o":"m 269 632 q 223 596 256 603 q 161 603 190 589 q 145 613 153 607 q 133 628 138 619 q 120 681 125 644 q 113 756 115 717 q 111 832 111 796 q 113 886 111 868 q 81 886 97 886 q 50 892 65 886 q 28 908 35 897 q 22 932 22 919 q 29 956 22 944 q 50 975 36 968 q 81 985 63 982 q 172 996 125 994 q 265 993 218 997 q 291 991 275 993 q 324 985 307 989 q 355 977 340 982 q 376 964 369 972 q 384 924 392 946 q 356 892 376 903 q 324 883 340 885 q 292 882 308 882 q 294 809 294 846 q 290 736 293 772 q 285 682 289 708 q 269 632 281 656 m 922 613 q 872 591 903 594 q 819 604 840 588 q 792 649 801 621 q 785 681 788 664 q 782 713 783 697 q 767 692 776 706 q 745 663 757 678 q 722 636 733 649 q 701 621 710 624 q 650 625 674 611 q 632 640 643 628 q 610 666 621 651 q 589 694 599 681 q 574 714 579 707 q 570 676 572 694 q 561 639 568 657 q 515 595 547 607 q 450 600 482 583 q 425 626 431 610 q 412 689 414 657 q 407 753 410 721 q 403 815 404 785 q 404 875 401 844 q 408 908 406 892 q 417 940 410 925 q 442 972 425 961 q 478 985 458 982 q 520 982 499 988 q 560 964 542 976 q 587 937 575 953 q 608 904 599 921 q 645 830 628 868 q 678 754 663 792 q 708 824 693 790 q 742 892 724 858 q 760 922 750 907 q 782 950 769 938 q 829 979 800 971 q 872 985 849 988 q 913 969 894 982 q 928 956 921 964 q 939 939 936 949 q 949 890 947 915 q 953 839 951 864 q 951 771 953 804 q 946 703 949 738 q 944 681 946 694 q 939 654 942 668 q 932 628 936 640 q 922 613 928 617 m 300 921 q 322 913 311 913 q 341 920 333 914 q 349 938 349 926 q 342 960 350 949 q 322 969 333 971 q 301 960 310 968 q 291 941 293 953 q 300 921 289 929 m 856 914 q 876 904 864 903 q 896 913 888 906 q 906 933 904 921 q 897 953 908 944 q 875 960 886 961 q 857 953 864 960 q 849 936 850 947 q 856 914 847 925 z "},"−":{"ha":686,"x_min":26,"x_max":660,"o":"m 543 246 q 483 242 526 243 q 390 242 439 242 q 297 242 340 242 q 236 243 253 243 q 191 243 218 243 q 137 246 164 243 q 87 256 110 249 q 54 278 64 263 q 36 319 43 294 q 28 369 29 343 q 31 419 26 394 q 49 460 36 443 q 63 474 56 467 q 81 485 71 481 q 161 500 119 499 q 243 503 203 501 q 278 503 254 503 q 333 503 303 503 q 398 502 364 503 q 463 501 432 501 q 517 499 493 500 q 553 496 542 497 q 591 488 572 493 q 625 472 610 483 q 642 451 635 465 q 653 419 649 436 q 658 384 657 401 q 658 354 660 367 q 651 315 656 335 q 633 281 647 294 q 592 256 617 263 q 543 246 567 249 m 117 463 q 95 453 103 463 q 88 434 88 444 q 94 415 88 424 q 115 407 101 407 q 219 410 168 410 q 322 414 271 411 q 344 423 336 414 q 351 442 351 432 q 344 461 351 453 q 322 469 336 469 q 220 466 271 467 q 117 463 169 465 m 382 418 q 410 406 393 403 q 432 428 428 410 q 424 454 435 443 q 397 463 413 465 q 376 444 382 458 q 382 418 371 429 z "},"|":{"ha":511,"x_min":56,"x_max":454,"o":"m 343 -85 q 292 -110 319 -104 q 235 -113 264 -117 q 181 -96 207 -110 q 136 -58 156 -82 q 119 -35 126 -47 q 107 -8 111 -22 q 90 72 96 32 q 81 154 83 113 q 71 277 74 217 q 65 400 68 338 q 58 583 60 492 q 58 765 56 674 q 65 850 61 808 q 78 932 68 892 q 89 979 82 956 q 108 1024 96 1003 q 158 1078 128 1054 q 222 1113 188 1101 q 289 1117 256 1122 q 350 1094 322 1111 q 398 1049 378 1076 q 428 988 418 1021 q 438 938 435 963 q 444 889 442 914 q 451 764 450 826 q 453 639 451 701 q 451 384 454 511 q 432 129 447 257 q 420 58 428 93 q 397 -10 413 22 q 374 -50 388 -31 q 343 -85 361 -69 m 158 982 q 187 984 174 975 q 200 1010 200 993 q 185 1035 200 1028 q 156 1032 169 1043 q 142 1005 142 1021 q 158 982 143 989 m 122 224 q 153 215 135 208 q 172 242 172 222 q 170 267 172 254 q 167 293 168 279 q 165 320 165 307 q 163 347 165 333 q 160 381 161 356 q 158 433 158 406 q 156 486 157 461 q 154 519 154 511 q 148 676 147 599 q 156 832 149 753 q 157 846 156 836 q 160 867 158 856 q 165 888 163 878 q 169 901 167 897 q 171 922 175 913 q 158 938 167 932 q 140 942 150 943 q 121 931 129 940 q 113 912 117 925 q 106 883 108 899 q 102 853 104 868 q 100 832 100 839 q 92 709 94 769 q 93 586 90 649 q 100 481 96 533 q 104 375 104 428 q 106 354 104 364 q 108 333 107 344 q 111 301 111 318 q 115 269 111 285 q 117 246 118 258 q 122 224 115 233 z "},"`":{"ha":374,"x_min":22,"x_max":349,"o":"m 343 754 q 322 726 336 739 q 288 703 307 713 q 250 690 269 694 q 214 688 231 685 q 183 697 197 689 q 157 718 168 706 q 90 810 121 761 q 38 911 60 858 q 26 947 31 928 q 29 983 22 967 q 62 1019 40 1006 q 106 1042 83 1033 q 144 1051 124 1049 q 182 1044 165 1054 q 217 1015 203 1033 q 246 976 232 996 q 285 921 265 949 q 319 864 304 893 q 333 833 326 849 q 344 803 340 818 q 348 778 347 792 q 343 754 349 765 m 142 779 q 163 764 147 767 q 191 778 182 761 q 189 810 200 794 q 151 856 172 835 q 140 871 147 860 q 126 894 133 882 q 113 919 119 907 q 104 936 107 931 q 88 950 99 947 q 69 949 78 953 q 54 937 60 946 q 53 915 49 928 q 59 900 54 910 q 71 880 64 890 q 84 860 78 869 q 93 846 90 850 q 99 833 96 839 q 108 822 103 828 q 126 801 117 811 q 142 779 135 792 z "}}}
